<?xml version="1.0" encoding="UTF-8" standalone="no"?><!DOCTYPE svg PUBLIC "-//W3C//DTD SVG 1.1//EN" "http://www.w3.org/Graphics/SVG/1.1/DTD/svg11.dtd"><svg width="100%" height="100%" viewBox="0 0 3504 2108" version="1.1" xmlns="http://www.w3.org/2000/svg" xmlns:xlink="http://www.w3.org/1999/xlink" xml:space="preserve" xmlns:serif="http://www.serif.com/" style="fill-rule:evenodd;clip-rule:evenodd;"><g id="shape-51d91a5c-5418-8075-8004-33f6da577448"><rect id="fills-fc6c71bf-e049-8070-8004-4724a8e616fa" x="0" y="-4" width="3504" height="2108" style="fill:#151515;"/><path d="M689,1680l0,317c0,8.279 -6.721,15 -15,15l-574,0c-8.279,0 -15,-6.721 -15,-15l0,-317c0,-8.279 6.721,-15 15,-15l574,0c8.279,0 15,6.721 15,15Z" style="fill:none;stroke:#efefef;stroke-width:6px;"/><path id="fills-51d91a5c-5418-8075-8004-33f6da577473" d="M205.212,1920.24c2.376,-0 4.356,0.918 5.94,2.754c1.584,1.836 2.376,4.11 2.376,6.822c-0,2.712 -0.792,4.98 -2.376,6.804c-1.584,1.824 -3.564,2.736 -5.94,2.736c-1.728,-0 -3.234,-0.51 -4.518,-1.53c-1.284,-1.02 -2.214,-2.406 -2.79,-4.158l-0,12.528l-3.78,-0l-0,-25.596l3.78,-0l-0,5.328c0.576,-1.752 1.506,-3.138 2.79,-4.158c1.284,-1.02 2.79,-1.53 4.518,-1.53Zm-1.26,15.624c1.584,-0 2.922,-0.582 4.014,-1.746c1.092,-1.164 1.638,-2.598 1.638,-4.302c-0,-1.728 -0.546,-3.174 -1.638,-4.338c-1.092,-1.164 -2.43,-1.746 -4.014,-1.746c-1.752,-0 -3.198,0.576 -4.338,1.728c-1.14,1.152 -1.71,2.604 -1.71,4.356c-0,1.728 0.57,3.168 1.71,4.32c1.14,1.152 2.586,1.728 4.338,1.728Z" style="fill:#efefef;fill-rule:nonzero;"/><rect x="217.056" y="1912.36" width="3.78" height="26.64" style="fill:#efefef;fill-rule:nonzero;"/><path d="M232.644,1920.24c2.208,-0 4.008,0.576 5.4,1.728c1.392,1.152 2.088,2.808 2.088,4.968l0,12.06l-3.78,-0l0,-4.896c-1.128,3.504 -3.396,5.256 -6.804,5.256c-1.584,-0 -2.904,-0.474 -3.96,-1.422c-1.056,-0.948 -1.584,-2.19 -1.584,-3.726c0,-1.8 0.636,-3.15 1.908,-4.05c1.272,-0.9 2.892,-1.458 4.86,-1.674l3.564,-0.36c1.344,-0.12 2.016,-0.72 2.016,-1.8c0,-0.888 -0.342,-1.596 -1.026,-2.124c-0.684,-0.528 -1.578,-0.792 -2.682,-0.792c-1.128,-0 -2.082,0.288 -2.862,0.864c-0.78,0.576 -1.278,1.416 -1.494,2.52l-3.744,-0.9c0.336,-1.728 1.236,-3.102 2.7,-4.122c1.464,-1.02 3.264,-1.53 5.4,-1.53Zm-1.872,16.056c1.56,-0 2.88,-0.522 3.96,-1.566c1.08,-1.044 1.62,-2.262 1.62,-3.654l0,-1.008c-0.288,0.48 -0.984,0.78 -2.088,0.9l-3.492,0.432c-0.912,0.12 -1.638,0.39 -2.178,0.81c-0.54,0.42 -0.81,0.99 -0.81,1.71c0,0.72 0.27,1.296 0.81,1.728c0.54,0.432 1.266,0.648 2.178,0.648Z" style="fill:#efefef;fill-rule:nonzero;"/><path d="M254.568,1920.24c2.088,-0 3.792,0.732 5.112,2.196c1.32,1.464 1.98,3.324 1.98,5.58l-0,10.98l-3.78,0l-0,-10.404c-0,-1.416 -0.456,-2.586 -1.368,-3.51c-0.912,-0.924 -2.04,-1.386 -3.384,-1.386c-1.512,0 -2.748,0.462 -3.708,1.386c-0.96,0.924 -1.44,2.094 -1.44,3.51l-0,10.404l-3.78,0l-0,-18.396l3.78,0l-0,4.752c0.504,-1.584 1.338,-2.832 2.502,-3.744c1.164,-0.912 2.526,-1.368 4.086,-1.368Z" style="fill:#efefef;fill-rule:nonzero;"/><path d="M274.62,1920.24c2.952,-0 5.352,1.056 7.2,3.168c1.848,2.112 2.604,4.668 2.268,7.668l-15.228,0c0.264,1.488 0.948,2.694 2.052,3.618c1.104,0.924 2.436,1.386 3.996,1.386c1.2,0 2.274,-0.294 3.222,-0.882c0.948,-0.588 1.686,-1.386 2.214,-2.394l3.168,1.404c-0.816,1.56 -1.98,2.808 -3.492,3.744c-1.512,0.936 -3.252,1.404 -5.22,1.404c-2.76,0 -5.076,-0.912 -6.948,-2.736c-1.872,-1.824 -2.808,-4.092 -2.808,-6.804c0,-2.712 0.918,-4.986 2.754,-6.822c1.836,-1.836 4.11,-2.754 6.822,-2.754Zm0,3.276c-1.392,0 -2.598,0.426 -3.618,1.278c-1.02,0.852 -1.698,1.962 -2.034,3.33l11.304,0c-0.312,-1.368 -0.978,-2.478 -1.998,-3.33c-1.02,-0.852 -2.238,-1.278 -3.654,-1.278Z" style="fill:#efefef;fill-rule:nonzero;"/><path d="M289.416,1923.95l-3.924,0l0,-3.348l3.924,0l0,-5.976l3.78,-1.188l0,7.164l5.184,0l0,3.348l-5.184,0l0,8.496c0,1.128 0.252,1.944 0.756,2.448c0.504,0.504 1.308,0.756 2.412,0.756l2.016,0l0,3.348l-2.016,0c-2.376,0 -4.128,-0.552 -5.256,-1.656c-1.128,-1.104 -1.692,-2.796 -1.692,-5.076l0,-8.316Z" style="fill:#efefef;fill-rule:nonzero;"/><path id="fills-51d91a5c-5418-8075-8004-33f6da577474" d="M120.8,1955.6c-6.933,-6.933 -10.4,-15.467 -10.4,-25.6c0,-10.133 3.467,-18.667 10.4,-25.6c6.933,-6.933 15.467,-10.4 25.6,-10.4c10.133,-0 18.667,3.467 25.6,10.4c6.933,6.933 10.4,15.467 10.4,25.6c0,10.133 -3.467,18.667 -10.4,25.6c-6.933,6.933 -15.467,10.4 -25.6,10.4c-10.133,-0 -18.667,-3.467 -25.6,-10.4Zm13.3,-17.1l-0,8.6l26.3,-0l-0,-8.6l-7.4,-0l-0,-25.9l-18.9,4.9l-0,8.7l9,-2.3l-0,14.6l-9,-0Z" style="fill:#efefef;fill-rule:nonzero;"/><path id="fills-51d91a5c-5418-8075-8004-33f6da577476" d="M493.003,1925.94l0,-13.572l3.78,-0l0,26.64l-3.78,-0l0,-5.328c-0.576,1.752 -1.506,3.138 -2.79,4.158c-1.284,1.02 -2.79,1.53 -4.518,1.53c-2.376,-0 -4.356,-0.912 -5.94,-2.736c-1.584,-1.824 -2.376,-4.092 -2.376,-6.804c0,-2.712 0.792,-4.986 2.376,-6.822c1.584,-1.836 3.564,-2.754 5.94,-2.754c1.728,-0 3.234,0.51 4.518,1.53c1.284,1.02 2.214,2.406 2.79,4.158Zm-6.048,9.936c1.752,0 3.198,-0.576 4.338,-1.728c1.14,-1.152 1.71,-2.592 1.71,-4.32c0,-1.752 -0.57,-3.204 -1.71,-4.356c-1.14,-1.152 -2.586,-1.728 -4.338,-1.728c-1.584,0 -2.928,0.582 -4.032,1.746c-1.104,1.164 -1.656,2.61 -1.656,4.338c0,1.704 0.552,3.138 1.656,4.302c1.104,1.164 2.448,1.746 4.032,1.746Z" style="fill:#efefef;fill-rule:nonzero;"/><path d="M508.591,1920.26c2.208,-0 4.008,0.576 5.4,1.728c1.392,1.152 2.088,2.808 2.088,4.968l0,12.06l-3.78,-0l0,-4.896c-1.128,3.504 -3.396,5.256 -6.804,5.256c-1.584,-0 -2.904,-0.474 -3.96,-1.422c-1.056,-0.948 -1.584,-2.19 -1.584,-3.726c0,-1.8 0.636,-3.15 1.908,-4.05c1.272,-0.9 2.892,-1.458 4.86,-1.674l3.564,-0.36c1.344,-0.12 2.016,-0.72 2.016,-1.8c0,-0.888 -0.342,-1.596 -1.026,-2.124c-0.684,-0.528 -1.578,-0.792 -2.682,-0.792c-1.128,-0 -2.082,0.288 -2.862,0.864c-0.78,0.576 -1.278,1.416 -1.494,2.52l-3.744,-0.9c0.336,-1.728 1.236,-3.102 2.7,-4.122c1.464,-1.02 3.264,-1.53 5.4,-1.53Zm-1.872,16.056c1.56,-0 2.88,-0.522 3.96,-1.566c1.08,-1.044 1.62,-2.262 1.62,-3.654l0,-1.008c-0.288,0.48 -0.984,0.78 -2.088,0.9l-3.492,0.432c-0.912,0.12 -1.638,0.39 -2.178,0.81c-0.54,0.42 -0.81,0.99 -0.81,1.71c0,0.72 0.27,1.296 0.81,1.728c0.54,0.432 1.266,0.648 2.178,0.648Z" style="fill:#efefef;fill-rule:nonzero;"/><path d="M541.963,1920.26c1.896,-0 3.45,0.732 4.662,2.196c1.212,1.464 1.818,3.324 1.818,5.58l0,10.98l-3.78,0l0,-10.404c0,-1.416 -0.39,-2.586 -1.17,-3.51c-0.78,-0.924 -1.746,-1.386 -2.898,-1.386c-1.296,0 -2.358,0.462 -3.186,1.386c-0.828,0.924 -1.242,2.094 -1.242,3.51l0,10.404l-3.78,0l0,-10.404c0,-1.416 -0.384,-2.586 -1.152,-3.51c-0.768,-0.924 -1.728,-1.386 -2.88,-1.386c-1.296,0 -2.358,0.462 -3.186,1.386c-0.828,0.924 -1.242,2.094 -1.242,3.51l0,10.404l-3.78,0l0,-18.396l3.78,0l0,4.5c0.504,-1.512 1.266,-2.7 2.286,-3.564c1.02,-0.864 2.214,-1.296 3.582,-1.296c1.464,0 2.73,0.462 3.798,1.386c1.068,0.924 1.818,2.166 2.25,3.726c0.432,-1.56 1.194,-2.802 2.286,-3.726c1.092,-0.924 2.37,-1.386 3.834,-1.386Z" style="fill:#efefef;fill-rule:nonzero;"/><path d="M560.071,1920.26c2.208,-0 4.008,0.576 5.4,1.728c1.392,1.152 2.088,2.808 2.088,4.968l0,12.06l-3.78,-0l0,-4.896c-1.128,3.504 -3.396,5.256 -6.804,5.256c-1.584,-0 -2.904,-0.474 -3.96,-1.422c-1.056,-0.948 -1.584,-2.19 -1.584,-3.726c0,-1.8 0.636,-3.15 1.908,-4.05c1.272,-0.9 2.892,-1.458 4.86,-1.674l3.564,-0.36c1.344,-0.12 2.016,-0.72 2.016,-1.8c0,-0.888 -0.342,-1.596 -1.026,-2.124c-0.684,-0.528 -1.578,-0.792 -2.682,-0.792c-1.128,-0 -2.082,0.288 -2.862,0.864c-0.78,0.576 -1.278,1.416 -1.494,2.52l-3.744,-0.9c0.336,-1.728 1.236,-3.102 2.7,-4.122c1.464,-1.02 3.264,-1.53 5.4,-1.53Zm-1.872,16.056c1.56,-0 2.88,-0.522 3.96,-1.566c1.08,-1.044 1.62,-2.262 1.62,-3.654l0,-1.008c-0.288,0.48 -0.984,0.78 -2.088,0.9l-3.492,0.432c-0.912,0.12 -1.638,0.39 -2.178,0.81c-0.54,0.42 -0.81,0.99 -0.81,1.71c-0,0.72 0.27,1.296 0.81,1.728c0.54,0.432 1.266,0.648 2.178,0.648Z" style="fill:#efefef;fill-rule:nonzero;"/><path d="M586.531,1925.84l0,-5.22l3.78,0l0,16.416c0,2.712 -0.936,4.98 -2.808,6.804c-1.872,1.824 -4.188,2.736 -6.948,2.736c-1.944,-0 -3.678,-0.468 -5.202,-1.404c-1.524,-0.936 -2.67,-2.196 -3.438,-3.78l3.42,-1.692c0.504,1.056 1.206,1.89 2.106,2.502c0.9,0.612 1.938,0.918 3.114,0.918c1.68,0 3.096,-0.582 4.248,-1.746c1.152,-1.164 1.728,-2.61 1.728,-4.338l0,-3.6c-0.6,1.68 -1.542,3.024 -2.826,4.032c-1.284,1.008 -2.778,1.512 -4.482,1.512c-2.376,0 -4.356,-0.894 -5.94,-2.682c-1.584,-1.788 -2.376,-4.014 -2.376,-6.678c0,-2.664 0.792,-4.89 2.376,-6.678c1.584,-1.788 3.564,-2.682 5.94,-2.682c1.704,0 3.204,0.504 4.5,1.512c1.296,1.008 2.232,2.364 2.808,4.068Zm-5.94,9.684c1.704,0 3.12,-0.564 4.248,-1.692c1.128,-1.128 1.692,-2.532 1.692,-4.212c0,-1.68 -0.564,-3.078 -1.692,-4.194c-1.128,-1.116 -2.544,-1.674 -4.248,-1.674c-1.632,0 -3.006,0.564 -4.122,1.692c-1.116,1.128 -1.674,2.52 -1.674,4.176c0,1.68 0.558,3.084 1.674,4.212c1.116,1.128 2.49,1.692 4.122,1.692Z" style="fill:#efefef;fill-rule:nonzero;"/><path d="M603.415,1920.26c2.952,-0 5.352,1.056 7.2,3.168c1.848,2.112 2.604,4.668 2.268,7.668l-15.228,0c0.264,1.488 0.948,2.694 2.052,3.618c1.104,0.924 2.436,1.386 3.996,1.386c1.2,0 2.274,-0.294 3.222,-0.882c0.948,-0.588 1.686,-1.386 2.214,-2.394l3.168,1.404c-0.816,1.56 -1.98,2.808 -3.492,3.744c-1.512,0.936 -3.252,1.404 -5.22,1.404c-2.76,0 -5.076,-0.912 -6.948,-2.736c-1.872,-1.824 -2.808,-4.092 -2.808,-6.804c-0,-2.712 0.918,-4.986 2.754,-6.822c1.836,-1.836 4.11,-2.754 6.822,-2.754Zm-0,3.276c-1.392,0 -2.598,0.426 -3.618,1.278c-1.02,0.852 -1.698,1.962 -2.034,3.33l11.304,0c-0.312,-1.368 -0.978,-2.478 -1.998,-3.33c-1.02,-0.852 -2.238,-1.278 -3.654,-1.278Z" style="fill:#efefef;fill-rule:nonzero;"/><path d="M489.187,1963.44c2.376,0 4.356,0.918 5.94,2.754c1.584,1.836 2.376,4.11 2.376,6.822c0,2.712 -0.792,4.98 -2.376,6.804c-1.584,1.824 -3.564,2.736 -5.94,2.736c-1.728,0 -3.234,-0.51 -4.518,-1.53c-1.284,-1.02 -2.214,-2.406 -2.79,-4.158l0,5.328l-3.78,0l0,-26.64l3.78,0l0,13.572c0.576,-1.752 1.506,-3.138 2.79,-4.158c1.284,-1.02 2.79,-1.53 4.518,-1.53Zm-1.26,15.624c1.584,0 2.922,-0.582 4.014,-1.746c1.092,-1.164 1.638,-2.598 1.638,-4.302c0,-1.728 -0.546,-3.174 -1.638,-4.338c-1.092,-1.164 -2.43,-1.746 -4.014,-1.746c-1.752,0 -3.198,0.576 -4.338,1.728c-1.14,1.152 -1.71,2.604 -1.71,4.356c0,1.728 0.57,3.168 1.71,4.32c1.14,1.152 2.586,1.728 4.338,1.728Z" style="fill:#efefef;fill-rule:nonzero;"/><path d="M500.671,1974.57l0,-10.764l3.78,0l0,10.764c0,1.344 0.432,2.43 1.296,3.258c0.864,0.828 1.968,1.242 3.312,1.242c1.32,0 2.412,-0.414 3.276,-1.242c0.864,-0.828 1.296,-1.914 1.296,-3.258l0,-10.764l3.78,0l0,10.764c0,2.352 -0.786,4.272 -2.358,5.76c-1.572,1.488 -3.57,2.232 -5.994,2.232c-2.448,0 -4.458,-0.744 -6.03,-2.232c-1.572,-1.488 -2.358,-3.408 -2.358,-5.76Z" style="fill:#efefef;fill-rule:nonzero;"/><path d="M527.599,1982.2l-3.78,0l-0,-15.048l-3.924,0l-0,-3.348l3.924,0l-0,-1.512c-0,-2.28 0.564,-3.972 1.692,-5.076c1.128,-1.104 2.88,-1.656 5.256,-1.656l2.016,-0l0,3.348l-2.016,0c-1.104,0 -1.908,0.252 -2.412,0.756c-0.504,0.504 -0.756,1.32 -0.756,2.448l0,1.692l8.532,-0l-0,-1.512c-0,-2.28 0.564,-3.972 1.692,-5.076c1.128,-1.104 2.88,-1.656 5.256,-1.656l2.016,-0l0,3.348l-2.016,-0c-1.104,-0 -1.908,0.252 -2.412,0.756c-0.504,0.504 -0.756,1.32 -0.756,2.448l0,1.692l5.184,-0l0,3.348l-5.184,-0l0,15.048l-3.78,-0l-0,-15.048l-8.532,-0l0,15.048Z" style="fill:#efefef;fill-rule:nonzero;"/><path d="M570.151,1963.44c2.376,0 4.356,0.918 5.94,2.754c1.584,1.836 2.376,4.11 2.376,6.822c0,2.712 -0.792,4.98 -2.376,6.804c-1.584,1.824 -3.564,2.736 -5.94,2.736c-1.728,0 -3.234,-0.51 -4.518,-1.53c-1.284,-1.02 -2.214,-2.406 -2.79,-4.158l0,12.528l-3.78,0l0,-25.596l3.78,0l0,5.328c0.576,-1.752 1.506,-3.138 2.79,-4.158c1.284,-1.02 2.79,-1.53 4.518,-1.53Zm-1.26,15.624c1.584,-0 2.922,-0.582 4.014,-1.746c1.092,-1.164 1.638,-2.598 1.638,-4.302c0,-1.728 -0.546,-3.174 -1.638,-4.338c-1.092,-1.164 -2.43,-1.746 -4.014,-1.746c-1.752,0 -3.198,0.576 -4.338,1.728c-1.14,1.152 -1.71,2.604 -1.71,4.356c0,1.728 0.57,3.168 1.71,4.32c1.14,1.152 2.586,1.728 4.338,1.728Z" style="fill:#efefef;fill-rule:nonzero;"/><rect x="581.995" y="1955.56" width="3.78" height="26.64" style="fill:#efefef;fill-rule:nonzero;"/><path d="M597.583,1963.44c2.208,0 4.008,0.576 5.4,1.728c1.392,1.152 2.088,2.808 2.088,4.968l0,12.06l-3.78,0l0,-4.896c-1.128,3.504 -3.396,5.256 -6.804,5.256c-1.584,-0 -2.904,-0.474 -3.96,-1.422c-1.056,-0.948 -1.584,-2.19 -1.584,-3.726c0,-1.8 0.636,-3.15 1.908,-4.05c1.272,-0.9 2.892,-1.458 4.86,-1.674l3.564,-0.36c1.344,-0.12 2.016,-0.72 2.016,-1.8c0,-0.888 -0.342,-1.596 -1.026,-2.124c-0.684,-0.528 -1.578,-0.792 -2.682,-0.792c-1.128,-0 -2.082,0.288 -2.862,0.864c-0.78,0.576 -1.278,1.416 -1.494,2.52l-3.744,-0.9c0.336,-1.728 1.236,-3.102 2.7,-4.122c1.464,-1.02 3.264,-1.53 5.4,-1.53Zm-1.872,16.056c1.56,-0 2.88,-0.522 3.96,-1.566c1.08,-1.044 1.62,-2.262 1.62,-3.654l0,-1.008c-0.288,0.48 -0.984,0.78 -2.088,0.9l-3.492,0.432c-0.912,0.12 -1.638,0.39 -2.178,0.81c-0.54,0.42 -0.81,0.99 -0.81,1.71c-0,0.72 0.27,1.296 0.81,1.728c0.54,0.432 1.266,0.648 2.178,0.648Z" style="fill:#efefef;fill-rule:nonzero;"/><path d="M610.543,1967.15l-3.924,0l0,-3.348l3.924,0l0,-5.976l3.78,-1.188l0,7.164l5.184,0l0,3.348l-5.184,0l0,8.496c0,1.128 0.252,1.944 0.756,2.448c0.504,0.504 1.308,0.756 2.412,0.756l2.016,0l0,3.348l-2.016,0c-2.376,0 -4.128,-0.552 -5.256,-1.656c-1.128,-1.104 -1.692,-2.796 -1.692,-5.076l0,-8.316Z" style="fill:#efefef;fill-rule:nonzero;"/><path d="M631.099,1963.44c2.952,0 5.352,1.056 7.2,3.168c1.848,2.112 2.604,4.668 2.268,7.668l-15.228,0c0.264,1.488 0.948,2.694 2.052,3.618c1.104,0.924 2.436,1.386 3.996,1.386c1.2,0 2.274,-0.294 3.222,-0.882c0.948,-0.588 1.686,-1.386 2.214,-2.394l3.168,1.404c-0.816,1.56 -1.98,2.808 -3.492,3.744c-1.512,0.936 -3.252,1.404 -5.22,1.404c-2.76,0 -5.076,-0.912 -6.948,-2.736c-1.872,-1.824 -2.808,-4.092 -2.808,-6.804c-0,-2.712 0.918,-4.986 2.754,-6.822c1.836,-1.836 4.11,-2.754 6.822,-2.754Zm-0,3.276c-1.392,0 -2.598,0.426 -3.618,1.278c-1.02,0.852 -1.698,1.962 -2.034,3.33l11.304,0c-0.312,-1.368 -0.978,-2.478 -1.998,-3.33c-1.02,-0.852 -2.238,-1.278 -3.654,-1.278Z" style="fill:#efefef;fill-rule:nonzero;"/><g id="fills-51d91a5c-5418-8075-8004-33f6da577470" transform="matrix(1,0,0,1,84.975,2061.01)"><g transform="matrix(32,0,0,32,0,0)"><path d="M0.189,-0.516l0,0.134c0.017,-0.063 0.043,-0.104 0.078,-0.125c0.035,-0.021 0.073,-0.024 0.115,-0.011l0,0.128c-0.054,-0.019 -0.1,-0.018 -0.137,0.003c-0.037,0.02 -0.056,0.053 -0.056,0.098l0,0.289l-0.135,0l0,-0.516l0.135,0Z" style="fill:#efefef;fill-rule:nonzero;"/></g><g transform="matrix(32,0,0,32,12.096,0)"><path d="M0.27,-0.526c0.065,0 0.118,0.017 0.159,0.051c0.041,0.034 0.061,0.084 0.061,0.149l-0,0.326l-0.135,0l-0,-0.128c-0.029,0.092 -0.088,0.138 -0.178,0.138c-0.042,0 -0.078,-0.014 -0.108,-0.041c-0.03,-0.027 -0.045,-0.063 -0.045,-0.107c-0,-0.097 0.066,-0.152 0.199,-0.166l0.084,-0.008c0.032,-0.002 0.048,-0.016 0.048,-0.041c-0,-0.019 -0.008,-0.034 -0.024,-0.045c-0.015,-0.011 -0.035,-0.017 -0.06,-0.017c-0.027,0 -0.049,0.007 -0.066,0.021c-0.017,0.013 -0.027,0.032 -0.032,0.057l-0.134,-0.03c0.007,-0.046 0.032,-0.084 0.073,-0.114c0.041,-0.03 0.094,-0.045 0.158,-0.045Zm-0.045,0.429c0.035,0 0.066,-0.012 0.091,-0.036c0.026,-0.024 0.039,-0.052 0.039,-0.083l-0,-0.013c-0.008,0.007 -0.023,0.012 -0.046,0.015l-0.087,0.01c-0.019,0.003 -0.035,0.009 -0.046,0.019c-0.011,0.009 -0.017,0.021 -0.017,0.036c-0,0.015 0.006,0.028 0.018,0.038c0.012,0.009 0.028,0.014 0.048,0.014Z" style="fill:#efefef;fill-rule:nonzero;"/></g><g transform="matrix(32,0,0,32,29.344,0)"><path d="M0.04,-0.659c0,-0.023 0.008,-0.042 0.024,-0.057c0.016,-0.016 0.035,-0.024 0.058,-0.024c0.022,0 0.041,0.008 0.057,0.024c0.016,0.015 0.024,0.034 0.024,0.057c0,0.022 -0.008,0.041 -0.024,0.057c-0.016,0.016 -0.035,0.024 -0.057,0.024c-0.023,0 -0.042,-0.008 -0.058,-0.024c-0.016,-0.016 -0.024,-0.035 -0.024,-0.057Zm0.149,0.659l-0.135,-0l0,-0.516l0.135,0l0,0.516Z" style="fill:#efefef;fill-rule:nonzero;"/></g><g transform="matrix(32,0,0,32,37.12,0)"><path d="M0.446,-0.371l0,-0.369l0.135,0l0,0.74l-0.135,-0l0,-0.145c-0.015,0.047 -0.04,0.085 -0.073,0.113c-0.033,0.028 -0.072,0.042 -0.117,0.042c-0.063,-0 -0.116,-0.026 -0.158,-0.077c-0.043,-0.051 -0.064,-0.115 -0.064,-0.191c0,-0.076 0.021,-0.14 0.064,-0.191c0.042,-0.051 0.095,-0.077 0.158,-0.077c0.045,0 0.084,0.014 0.117,0.042c0.033,0.028 0.058,0.066 0.073,0.113Zm-0.141,0.258c0.041,0 0.075,-0.014 0.102,-0.041c0.026,-0.027 0.039,-0.062 0.039,-0.104c0,-0.041 -0.013,-0.076 -0.039,-0.103c-0.027,-0.027 -0.061,-0.041 -0.102,-0.041c-0.036,0 -0.067,0.014 -0.092,0.042c-0.026,0.027 -0.039,0.061 -0.039,0.102c0,0.041 0.013,0.076 0.038,0.104c0.025,0.027 0.056,0.041 0.093,0.041Z" style="fill:#efefef;fill-rule:nonzero;"/></g><g transform="matrix(32,0,0,32,57.44,0)"><path d="M0.673,-0.526c0.052,0 0.094,0.02 0.126,0.06c0.033,0.04 0.049,0.091 0.049,0.153l-0,0.313l-0.135,0l-0,-0.289c-0,-0.033 -0.009,-0.061 -0.027,-0.082c-0.017,-0.021 -0.039,-0.032 -0.066,-0.032c-0.03,0 -0.055,0.011 -0.074,0.032c-0.019,0.021 -0.028,0.049 -0.028,0.082l-0,0.289l-0.135,-0l-0,-0.289c-0,-0.033 -0.009,-0.061 -0.027,-0.082c-0.017,-0.021 -0.039,-0.032 -0.065,-0.032c-0.03,0 -0.055,0.011 -0.074,0.032c-0.019,0.021 -0.028,0.049 -0.028,0.082l-0,0.289l-0.135,-0l-0,-0.516l0.135,0l-0,0.125c0.013,-0.042 0.034,-0.075 0.061,-0.099c0.028,-0.024 0.061,-0.036 0.098,-0.036c0.04,0 0.074,0.012 0.102,0.037c0.028,0.025 0.048,0.058 0.059,0.1c0.013,-0.042 0.034,-0.075 0.063,-0.1c0.029,-0.025 0.063,-0.037 0.101,-0.037Z" style="fill:#efefef;fill-rule:nonzero;"/></g><g transform="matrix(32,0,0,32,86.144,0)"><path d="M0.27,-0.526c0.065,0 0.118,0.017 0.159,0.051c0.041,0.034 0.061,0.084 0.061,0.149l-0,0.326l-0.135,0l-0,-0.128c-0.029,0.092 -0.088,0.138 -0.178,0.138c-0.042,0 -0.078,-0.014 -0.108,-0.041c-0.03,-0.027 -0.045,-0.063 -0.045,-0.107c-0,-0.097 0.066,-0.152 0.199,-0.166l0.084,-0.008c0.032,-0.002 0.048,-0.016 0.048,-0.041c-0,-0.019 -0.008,-0.034 -0.024,-0.045c-0.015,-0.011 -0.035,-0.017 -0.06,-0.017c-0.027,0 -0.049,0.007 -0.066,0.021c-0.017,0.013 -0.027,0.032 -0.032,0.057l-0.134,-0.03c0.007,-0.046 0.032,-0.084 0.073,-0.114c0.041,-0.03 0.094,-0.045 0.158,-0.045Zm-0.045,0.429c0.035,0 0.066,-0.012 0.091,-0.036c0.026,-0.024 0.039,-0.052 0.039,-0.083l-0,-0.013c-0.008,0.007 -0.023,0.012 -0.046,0.015l-0.087,0.01c-0.019,0.003 -0.035,0.009 -0.046,0.019c-0.011,0.009 -0.017,0.021 -0.017,0.036c-0,0.015 0.006,0.028 0.018,0.038c0.012,0.009 0.028,0.014 0.048,0.014Z" style="fill:#efefef;fill-rule:nonzero;"/></g><g transform="matrix(32,0,0,32,103.392,0)"><path d="M0.379,-0.526c0.064,0 0.117,0.026 0.159,0.077c0.042,0.051 0.063,0.115 0.063,0.191c0,0.076 -0.021,0.14 -0.063,0.191c-0.042,0.051 -0.095,0.077 -0.159,0.077c-0.045,0 -0.085,-0.014 -0.117,-0.042c-0.034,-0.029 -0.058,-0.067 -0.073,-0.116l0,0.348l-0.135,0l0,-0.716l0.135,0l0,0.148c0.015,-0.049 0.04,-0.087 0.073,-0.115c0.032,-0.029 0.072,-0.043 0.117,-0.043Zm-0.049,0.413c0.037,-0 0.068,-0.014 0.093,-0.042c0.025,-0.027 0.038,-0.062 0.038,-0.103c0,-0.041 -0.013,-0.075 -0.038,-0.102c-0.025,-0.028 -0.056,-0.042 -0.093,-0.042c-0.041,0 -0.074,0.014 -0.101,0.041c-0.027,0.027 -0.04,0.062 -0.04,0.103c-0,0.041 0.013,0.076 0.04,0.104c0.027,0.027 0.06,0.041 0.101,0.041Z" style="fill:#efefef;fill-rule:nonzero;"/></g><g transform="matrix(32,0,0,32,123.712,0)"><path d="M0.024,-0.139l0.135,-0.028c0.006,0.047 0.037,0.07 0.092,0.07c0.027,-0 0.049,-0.005 0.066,-0.016c0.017,-0.01 0.025,-0.023 0.025,-0.038c0,-0.015 -0.008,-0.026 -0.023,-0.035c-0.015,-0.009 -0.033,-0.014 -0.055,-0.017c-0.023,-0.003 -0.047,-0.007 -0.074,-0.013c-0.026,-0.006 -0.05,-0.013 -0.073,-0.022c-0.022,-0.009 -0.041,-0.024 -0.056,-0.045c-0.014,-0.021 -0.022,-0.048 -0.022,-0.08c-0,-0.047 0.02,-0.085 0.061,-0.116c0.04,-0.032 0.09,-0.047 0.151,-0.047c0.061,0 0.111,0.013 0.15,0.041c0.039,0.027 0.063,0.063 0.07,0.108l-0.134,0.028c-0.007,-0.047 -0.035,-0.07 -0.086,-0.07c-0.022,0 -0.04,0.005 -0.054,0.014c-0.015,0.009 -0.022,0.021 -0.022,0.036c0,0.015 0.008,0.027 0.022,0.036c0.015,0.009 0.034,0.014 0.056,0.017c0.023,0.003 0.047,0.007 0.074,0.013c0.026,0.007 0.05,0.014 0.073,0.023c0.022,0.009 0.04,0.024 0.055,0.045c0.016,0.022 0.023,0.049 0.023,0.082c0,0.046 -0.022,0.085 -0.066,0.116c-0.044,0.031 -0.098,0.047 -0.161,0.047c-0.063,-0 -0.115,-0.014 -0.156,-0.041c-0.04,-0.027 -0.064,-0.063 -0.071,-0.108Z" style="fill:#efefef;fill-rule:nonzero;"/></g><g transform="matrix(32,0,0,32,139.776,0)"><path d="M0.04,-0.08c0,-0.025 0.009,-0.047 0.026,-0.064c0.017,-0.017 0.039,-0.026 0.064,-0.026c0.024,0 0.045,0.009 0.063,0.026c0.017,0.018 0.026,0.039 0.026,0.064c0,0.023 -0.009,0.044 -0.026,0.062c-0.018,0.018 -0.039,0.027 -0.063,0.027c-0.025,0 -0.046,-0.009 -0.064,-0.026c-0.017,-0.018 -0.026,-0.039 -0.026,-0.063Z" style="fill:#efefef;fill-rule:nonzero;"/></g><g transform="matrix(32,0,0,32,147.232,0)"><path d="M0.446,-0.375l0,-0.141l0.135,0l0,0.458c0,0.076 -0.026,0.14 -0.079,0.191c-0.053,0.051 -0.118,0.077 -0.197,0.077c-0.053,-0 -0.101,-0.013 -0.143,-0.038c-0.042,-0.025 -0.074,-0.059 -0.097,-0.101l0.121,-0.064c0.026,0.053 0.066,0.08 0.119,0.08c0.039,0 0.073,-0.014 0.1,-0.041c0.027,-0.027 0.041,-0.062 0.041,-0.104l0,-0.099c-0.015,0.046 -0.04,0.083 -0.073,0.11c-0.033,0.027 -0.072,0.041 -0.117,0.041c-0.063,-0 -0.116,-0.025 -0.159,-0.075c-0.042,-0.049 -0.063,-0.111 -0.063,-0.185c0,-0.074 0.021,-0.136 0.064,-0.186c0.042,-0.049 0.095,-0.074 0.158,-0.074c0.045,0 0.084,0.014 0.117,0.041c0.033,0.027 0.058,0.064 0.073,0.11Zm-0.137,0.246c0.039,0 0.072,-0.013 0.098,-0.039c0.026,-0.026 0.039,-0.059 0.039,-0.098c0,-0.039 -0.013,-0.072 -0.039,-0.097c-0.026,-0.026 -0.059,-0.039 -0.098,-0.039c-0.038,0 -0.07,0.013 -0.096,0.039c-0.026,0.026 -0.039,0.058 -0.039,0.097c-0,0.039 0.013,0.071 0.039,0.098c0.026,0.026 0.058,0.039 0.096,0.039Z" style="fill:#efefef;fill-rule:nonzero;"/></g><g transform="matrix(32,0,0,32,167.552,0)"><path d="M0.446,-0.375l0,-0.141l0.135,0l0,0.458c0,0.076 -0.026,0.14 -0.079,0.191c-0.053,0.051 -0.118,0.077 -0.197,0.077c-0.053,-0 -0.101,-0.013 -0.143,-0.038c-0.042,-0.025 -0.074,-0.059 -0.097,-0.101l0.121,-0.064c0.026,0.053 0.066,0.08 0.119,0.08c0.039,0 0.073,-0.014 0.1,-0.041c0.027,-0.027 0.041,-0.062 0.041,-0.104l0,-0.099c-0.015,0.046 -0.04,0.083 -0.073,0.11c-0.033,0.027 -0.072,0.041 -0.117,0.041c-0.063,-0 -0.116,-0.025 -0.159,-0.075c-0.042,-0.049 -0.063,-0.111 -0.063,-0.185c0,-0.074 0.021,-0.136 0.064,-0.186c0.042,-0.049 0.095,-0.074 0.158,-0.074c0.045,0 0.084,0.014 0.117,0.041c0.033,0.027 0.058,0.064 0.073,0.11Zm-0.137,0.246c0.039,0 0.072,-0.013 0.098,-0.039c0.026,-0.026 0.039,-0.059 0.039,-0.098c0,-0.039 -0.013,-0.072 -0.039,-0.097c-0.026,-0.026 -0.059,-0.039 -0.098,-0.039c-0.038,0 -0.07,0.013 -0.096,0.039c-0.026,0.026 -0.039,0.058 -0.039,0.097c-0,0.039 0.013,0.071 0.039,0.098c0.026,0.026 0.058,0.039 0.096,0.039Z" style="fill:#efefef;fill-rule:nonzero;"/></g><rect x="0" y="4" width="187.872" height="1.6" style="fill:#efefef;"/></g><path d="M276.85,2064.21l-4.32,-0l7.584,-28.8l4.32,-0l-7.584,28.8Z" style="fill:#efefef;fill-rule:nonzero;"/><path d="M296.242,2044.18c2.048,-0 3.744,0.821 5.088,2.464c1.344,1.643 2.016,3.68 2.016,6.112c-0,2.432 -0.672,4.469 -2.016,6.112c-1.344,1.643 -3.04,2.464 -5.088,2.464c-1.451,0 -2.704,-0.453 -3.76,-1.36c-1.056,-0.907 -1.829,-2.139 -2.32,-3.696l0,11.136l-4.32,0l0,-22.912l4.32,0l0,4.736c0.491,-1.557 1.264,-2.789 2.32,-3.696c1.056,-0.907 2.309,-1.36 3.76,-1.36Zm-1.568,13.216c1.173,-0 2.165,-0.443 2.976,-1.328c0.811,-0.885 1.216,-1.989 1.216,-3.312c0,-1.301 -0.405,-2.395 -1.216,-3.28c-0.811,-0.885 -1.803,-1.328 -2.976,-1.328c-1.301,-0 -2.379,0.437 -3.232,1.312c-0.853,0.875 -1.28,1.973 -1.28,3.296c0,1.323 0.427,2.427 1.28,3.312c0.853,0.885 1.931,1.328 3.232,1.328Z" style="fill:#efefef;fill-rule:nonzero;"/><path d="M313.074,2044.18c2.091,-0 3.787,0.544 5.088,1.632c1.301,1.088 1.952,2.677 1.952,4.768l0,10.432l-4.32,0l0,-4.096c-0.917,2.944 -2.816,4.416 -5.696,4.416c-1.344,0 -2.496,-0.437 -3.456,-1.312c-0.96,-0.875 -1.44,-2.016 -1.44,-3.424c0,-3.093 2.123,-4.864 6.368,-5.312l2.688,-0.256c1.024,-0.064 1.536,-0.501 1.536,-1.312c0,-0.597 -0.251,-1.077 -0.752,-1.44c-0.501,-0.363 -1.147,-0.544 -1.936,-0.544c-0.853,-0 -1.552,0.219 -2.096,0.656c-0.544,0.437 -0.891,1.051 -1.04,1.84l-4.288,-0.96c0.235,-1.472 1.013,-2.688 2.336,-3.648c1.323,-0.96 3.008,-1.44 5.056,-1.44Zm-1.44,13.728c1.131,-0 2.107,-0.384 2.928,-1.152c0.821,-0.768 1.232,-1.653 1.232,-2.656l0,-0.416c-0.256,0.235 -0.747,0.395 -1.472,0.48l-2.784,0.32c-0.619,0.085 -1.109,0.283 -1.472,0.592c-0.363,0.309 -0.544,0.699 -0.544,1.168c0,0.491 0.192,0.891 0.576,1.2c0.384,0.309 0.896,0.464 1.536,0.464Z" style="fill:#efefef;fill-rule:nonzero;"/><path d="M333.426,2044.18c1.835,-0 3.312,0.64 4.432,1.92c1.12,1.28 1.68,2.912 1.68,4.896l0,10.016l-4.32,-0l0,-9.248c0,-1.067 -0.341,-1.941 -1.024,-2.624c-0.683,-0.683 -1.536,-1.024 -2.56,-1.024c-1.152,-0 -2.091,0.341 -2.816,1.024c-0.725,0.683 -1.088,1.557 -1.088,2.624l0,9.248l-4.32,-0l0,-16.512l4.32,-0l0,4.224c0.427,-1.408 1.147,-2.517 2.16,-3.328c1.013,-0.811 2.192,-1.216 3.536,-1.216Z" style="fill:#efefef;fill-rule:nonzero;"/><path d="M344.114,2048.31l-3.328,-0l-0,-3.808l3.328,-0l0,-4.864l4.32,-1.344l0,6.208l4.288,-0l0,3.808l-4.288,-0l0,6.56c0,1.557 0.779,2.336 2.336,2.336l1.952,0l0,3.808l-1.952,0c-2.261,0 -3.936,-0.528 -5.024,-1.584c-1.088,-1.056 -1.632,-2.661 -1.632,-4.816l0,-6.304Z" style="fill:#efefef;fill-rule:nonzero;"/><path d="M365.554,2044.18c1.835,-0 3.312,0.64 4.432,1.92c1.12,1.28 1.68,2.912 1.68,4.896l-0,10.016l-4.32,-0l-0,-9.248c-0,-1.067 -0.341,-1.941 -1.024,-2.624c-0.683,-0.683 -1.536,-1.024 -2.56,-1.024c-1.152,-0 -2.091,0.341 -2.816,1.024c-0.725,0.683 -1.088,1.557 -1.088,2.624l-0,9.248l-4.32,-0l-0,-23.68l4.32,-0l-0,11.392c0.427,-1.408 1.147,-2.517 2.16,-3.328c1.013,-0.811 2.192,-1.216 3.536,-1.216Z" style="fill:#efefef;fill-rule:nonzero;"/><path d="M383.026,2044.18c2.773,-0 4.997,0.997 6.672,2.992c1.675,1.995 2.288,4.368 1.84,7.12l-12.736,0c0.299,1.003 0.848,1.808 1.648,2.416c0.8,0.608 1.755,0.912 2.864,0.912c1.877,0 3.243,-0.768 4.096,-2.304l3.552,1.6c-0.747,1.344 -1.797,2.416 -3.152,3.216c-1.355,0.8 -2.896,1.2 -4.624,1.2c-2.517,0 -4.619,-0.821 -6.304,-2.464c-1.685,-1.643 -2.528,-3.68 -2.528,-6.112c0,-2.432 0.832,-4.469 2.496,-6.112c1.664,-1.643 3.723,-2.464 6.176,-2.464Zm0,3.712c-0.96,0 -1.819,0.283 -2.576,0.848c-0.757,0.565 -1.285,1.317 -1.584,2.256l8.352,0c-0.299,-0.939 -0.821,-1.691 -1.568,-2.256c-0.747,-0.565 -1.621,-0.848 -2.624,-0.848Z" style="fill:#efefef;fill-rule:nonzero;"/><path d="M396.338,2058.87c-1.685,-1.643 -2.528,-3.68 -2.528,-6.112c0,-2.432 0.843,-4.469 2.528,-6.112c1.685,-1.643 3.787,-2.464 6.304,-2.464c2.517,-0 4.619,0.821 6.304,2.464c1.685,1.643 2.528,3.68 2.528,6.112c0,2.432 -0.843,4.469 -2.528,6.112c-1.685,1.643 -3.787,2.464 -6.304,2.464c-2.517,0 -4.619,-0.821 -6.304,-2.464Zm1.952,-6.112c0,1.323 0.416,2.427 1.248,3.312c0.832,0.885 1.867,1.328 3.104,1.328c1.237,0 2.272,-0.443 3.104,-1.328c0.832,-0.885 1.248,-1.989 1.248,-3.312c0,-1.323 -0.416,-2.421 -1.248,-3.296c-0.832,-0.875 -1.867,-1.312 -3.104,-1.312c-1.237,-0 -2.272,0.443 -3.104,1.328c-0.832,0.885 -1.248,1.979 -1.248,3.28Z" style="fill:#efefef;fill-rule:nonzero;"/><path d="M424.306,2044.18c1.835,-0 3.312,0.64 4.432,1.92c1.12,1.28 1.68,2.912 1.68,4.896l0,10.016l-4.32,-0l0,-9.248c0,-1.067 -0.341,-1.941 -1.024,-2.624c-0.683,-0.683 -1.536,-1.024 -2.56,-1.024c-1.152,-0 -2.091,0.341 -2.816,1.024c-0.725,0.683 -1.088,1.557 -1.088,2.624l0,9.248l-4.32,-0l0,-16.512l4.32,-0l0,4.224c0.427,-1.408 1.147,-2.517 2.16,-3.328c1.013,-0.811 2.192,-1.216 3.536,-1.216Z" style="fill:#efefef;fill-rule:nonzero;"/><path d="M436.018,2064.21l-4.32,-0l7.584,-28.8l4.32,-0l-7.584,28.8Z" style="fill:#efefef;fill-rule:nonzero;"/><path d="M464.178,2044.18c1.664,-0 3.013,0.64 4.048,1.92c1.035,1.28 1.552,2.912 1.552,4.896l0,10.016l-4.32,-0l-0,-9.248c-0,-1.067 -0.283,-1.941 -0.848,-2.624c-0.565,-0.683 -1.275,-1.024 -2.128,-1.024c-0.96,-0 -1.744,0.341 -2.352,1.024c-0.608,0.683 -0.912,1.557 -0.912,2.624l-0,9.248l-4.32,-0l-0,-9.248c-0,-1.067 -0.283,-1.941 -0.848,-2.624c-0.565,-0.683 -1.264,-1.024 -2.096,-1.024c-0.96,-0 -1.744,0.341 -2.352,1.024c-0.608,0.683 -0.912,1.557 -0.912,2.624l-0,9.248l-4.32,-0l-0,-16.512l4.32,-0l-0,4c0.427,-1.344 1.083,-2.4 1.968,-3.168c0.885,-0.768 1.925,-1.152 3.12,-1.152c1.28,-0 2.368,0.395 3.264,1.184c0.896,0.789 1.525,1.856 1.888,3.2c0.405,-1.344 1.077,-2.411 2.016,-3.2c0.939,-0.789 2.016,-1.184 3.232,-1.184Z" style="fill:#efefef;fill-rule:nonzero;"/><path d="M479.986,2044.18c2.091,-0 3.787,0.544 5.088,1.632c1.301,1.088 1.952,2.677 1.952,4.768l0,10.432l-4.32,0l0,-4.096c-0.917,2.944 -2.816,4.416 -5.696,4.416c-1.344,0 -2.496,-0.437 -3.456,-1.312c-0.96,-0.875 -1.44,-2.016 -1.44,-3.424c0,-3.093 2.123,-4.864 6.368,-5.312l2.688,-0.256c1.024,-0.064 1.536,-0.501 1.536,-1.312c0,-0.597 -0.251,-1.077 -0.752,-1.44c-0.501,-0.363 -1.147,-0.544 -1.936,-0.544c-0.853,-0 -1.552,0.219 -2.096,0.656c-0.544,0.437 -0.891,1.051 -1.04,1.84l-4.288,-0.96c0.235,-1.472 1.013,-2.688 2.336,-3.648c1.323,-0.96 3.008,-1.44 5.056,-1.44Zm-1.44,13.728c1.131,-0 2.107,-0.384 2.928,-1.152c0.821,-0.768 1.232,-1.653 1.232,-2.656l0,-0.416c-0.256,0.235 -0.747,0.395 -1.472,0.48l-2.784,0.32c-0.619,0.085 -1.109,0.283 -1.472,0.592c-0.363,0.309 -0.544,0.699 -0.544,1.168c0,0.491 0.192,0.891 0.576,1.2c0.384,0.309 0.896,0.464 1.536,0.464Z" style="fill:#efefef;fill-rule:nonzero;"/><path d="M492.21,2058.87c-1.685,-1.643 -2.528,-3.68 -2.528,-6.112c0,-2.432 0.843,-4.469 2.528,-6.112c1.685,-1.643 3.787,-2.464 6.304,-2.464c1.771,-0 3.36,0.459 4.768,1.376c1.408,0.917 2.464,2.208 3.168,3.872l-3.968,1.376c-0.363,-0.853 -0.896,-1.509 -1.6,-1.968c-0.704,-0.459 -1.493,-0.688 -2.368,-0.688c-1.237,-0 -2.272,0.443 -3.104,1.328c-0.832,0.885 -1.248,1.979 -1.248,3.28c0,1.323 0.416,2.427 1.248,3.312c0.832,0.885 1.867,1.328 3.104,1.328c0.875,-0 1.664,-0.235 2.368,-0.704c0.704,-0.469 1.237,-1.131 1.6,-1.984l3.968,1.376c-0.704,1.664 -1.76,2.955 -3.168,3.872c-1.408,0.917 -2.997,1.376 -4.768,1.376c-2.517,-0 -4.619,-0.821 -6.304,-2.464Z" style="fill:#efefef;fill-rule:nonzero;"/><path d="M513.33,2044.5l-0,4.288c0.533,-2.005 1.36,-3.339 2.48,-4c1.12,-0.661 2.352,-0.779 3.696,-0.352l-0,4.096c-1.728,-0.597 -3.189,-0.571 -4.384,0.08c-1.195,0.651 -1.792,1.701 -1.792,3.152l-0,9.248l-4.32,0l-0,-16.512l4.32,0Z" style="fill:#efefef;fill-rule:nonzero;"/><path d="M522.514,2058.87c-1.685,-1.643 -2.528,-3.68 -2.528,-6.112c0,-2.432 0.843,-4.469 2.528,-6.112c1.685,-1.643 3.787,-2.464 6.304,-2.464c2.517,-0 4.619,0.821 6.304,2.464c1.685,1.643 2.528,3.68 2.528,6.112c0,2.432 -0.843,4.469 -2.528,6.112c-1.685,1.643 -3.787,2.464 -6.304,2.464c-2.517,0 -4.619,-0.821 -6.304,-2.464Zm1.952,-6.112c0,1.323 0.416,2.427 1.248,3.312c0.832,0.885 1.867,1.328 3.104,1.328c1.237,0 2.272,-0.443 3.104,-1.328c0.832,-0.885 1.248,-1.989 1.248,-3.312c-0,-1.323 -0.416,-2.421 -1.248,-3.296c-0.832,-0.875 -1.867,-1.312 -3.104,-1.312c-1.237,-0 -2.272,0.443 -3.104,1.328c-0.832,0.885 -1.248,1.979 -1.248,3.28Z" style="fill:#efefef;fill-rule:nonzero;"/><path d="M542.29,2058.87c-1.685,-1.643 -2.528,-3.68 -2.528,-6.112c0,-2.432 0.843,-4.469 2.528,-6.112c1.685,-1.643 3.787,-2.464 6.304,-2.464c1.771,-0 3.36,0.459 4.768,1.376c1.408,0.917 2.464,2.208 3.168,3.872l-3.968,1.376c-0.363,-0.853 -0.896,-1.509 -1.6,-1.968c-0.704,-0.459 -1.493,-0.688 -2.368,-0.688c-1.237,-0 -2.272,0.443 -3.104,1.328c-0.832,0.885 -1.248,1.979 -1.248,3.28c0,1.323 0.416,2.427 1.248,3.312c0.832,0.885 1.867,1.328 3.104,1.328c0.875,-0 1.664,-0.235 2.368,-0.704c0.704,-0.469 1.237,-1.131 1.6,-1.984l3.968,1.376c-0.704,1.664 -1.76,2.955 -3.168,3.872c-1.408,0.917 -2.997,1.376 -4.768,1.376c-2.517,-0 -4.619,-0.821 -6.304,-2.464Z" style="fill:#efefef;fill-rule:nonzero;"/><path d="M560.914,2058.87c-1.685,-1.643 -2.528,-3.68 -2.528,-6.112c0,-2.432 0.843,-4.469 2.528,-6.112c1.685,-1.643 3.787,-2.464 6.304,-2.464c2.517,-0 4.619,0.821 6.304,2.464c1.685,1.643 2.528,3.68 2.528,6.112c0,2.432 -0.843,4.469 -2.528,6.112c-1.685,1.643 -3.787,2.464 -6.304,2.464c-2.517,0 -4.619,-0.821 -6.304,-2.464Zm1.952,-6.112c0,1.323 0.416,2.427 1.248,3.312c0.832,0.885 1.867,1.328 3.104,1.328c1.237,0 2.272,-0.443 3.104,-1.328c0.832,-0.885 1.248,-1.989 1.248,-3.312c-0,-1.323 -0.416,-2.421 -1.248,-3.296c-0.832,-0.875 -1.867,-1.312 -3.104,-1.312c-1.237,-0 -2.272,0.443 -3.104,1.328c-0.832,0.885 -1.248,1.979 -1.248,3.28Z" style="fill:#efefef;fill-rule:nonzero;"/><path d="M577.906,2056.56l4.32,-0.896c0.192,1.493 1.173,2.24 2.944,2.24c0.875,0 1.579,-0.165 2.112,-0.496c0.533,-0.331 0.8,-0.741 0.8,-1.232c-0,-0.469 -0.24,-0.843 -0.72,-1.12c-0.48,-0.277 -1.077,-0.459 -1.792,-0.544c-0.715,-0.085 -1.493,-0.224 -2.336,-0.416c-0.843,-0.192 -1.621,-0.427 -2.336,-0.704c-0.715,-0.277 -1.312,-0.757 -1.792,-1.44c-0.48,-0.683 -0.72,-1.536 -0.72,-2.56c0,-1.493 0.645,-2.736 1.936,-3.728c1.291,-0.992 2.907,-1.488 4.848,-1.488c1.941,0 3.541,0.432 4.8,1.296c1.259,0.864 2.005,2.021 2.24,3.472l-4.288,0.896c-0.213,-1.493 -1.131,-2.24 -2.752,-2.24c-0.704,0 -1.285,0.149 -1.744,0.448c-0.459,0.299 -0.688,0.683 -0.688,1.152c0,0.491 0.24,0.875 0.72,1.152c0.48,0.277 1.077,0.459 1.792,0.544c0.715,0.085 1.493,0.229 2.336,0.432c0.843,0.203 1.621,0.443 2.336,0.72c0.715,0.277 1.312,0.763 1.792,1.456c0.48,0.693 0.72,1.563 0.72,2.608c0,1.472 -0.704,2.709 -2.112,3.712c-1.408,1.003 -3.125,1.504 -5.152,1.504c-2.027,0 -3.685,-0.432 -4.976,-1.296c-1.291,-0.864 -2.053,-2.021 -2.288,-3.472Z" style="fill:#efefef;fill-rule:nonzero;"/><path d="M614.738,2044.18c1.664,-0 3.013,0.64 4.048,1.92c1.035,1.28 1.552,2.912 1.552,4.896l-0,10.016l-4.32,-0l0,-9.248c0,-1.067 -0.283,-1.941 -0.848,-2.624c-0.565,-0.683 -1.275,-1.024 -2.128,-1.024c-0.96,-0 -1.744,0.341 -2.352,1.024c-0.608,0.683 -0.912,1.557 -0.912,2.624l0,9.248l-4.32,-0l0,-9.248c0,-1.067 -0.283,-1.941 -0.848,-2.624c-0.565,-0.683 -1.264,-1.024 -2.096,-1.024c-0.96,-0 -1.744,0.341 -2.352,1.024c-0.608,0.683 -0.912,1.557 -0.912,2.624l0,9.248l-4.32,-0l0,-16.512l4.32,-0l0,4c0.427,-1.344 1.083,-2.4 1.968,-3.168c0.885,-0.768 1.925,-1.152 3.12,-1.152c1.28,-0 2.368,0.395 3.264,1.184c0.896,0.789 1.525,1.856 1.888,3.2c0.405,-1.344 1.077,-2.411 2.016,-3.2c0.939,-0.789 2.016,-1.184 3.232,-1.184Z" style="fill:#efefef;fill-rule:nonzero;"/><path id="fills-51d91a5c-5418-8075-8004-33f6da57747c" d="M188.212,1814.12c-1.872,-1.824 -2.808,-4.092 -2.808,-6.804c-0,-2.712 0.936,-4.986 2.808,-6.822c1.872,-1.836 4.188,-2.754 6.948,-2.754c1.992,-0 3.774,0.516 5.346,1.548c1.572,1.032 2.73,2.448 3.474,4.248l-3.492,1.188c-0.48,-1.08 -1.188,-1.932 -2.124,-2.556c-0.936,-0.624 -2.004,-0.936 -3.204,-0.936c-1.656,-0 -3.048,0.582 -4.176,1.746c-1.128,1.164 -1.692,2.61 -1.692,4.338c-0,1.728 0.564,3.168 1.692,4.32c1.128,1.152 2.52,1.728 4.176,1.728c1.2,-0 2.274,-0.306 3.222,-0.918c0.948,-0.612 1.65,-1.47 2.106,-2.574l3.492,1.188c-0.744,1.8 -1.902,3.216 -3.474,4.248c-1.572,1.032 -3.354,1.548 -5.346,1.548c-2.76,-0 -5.076,-0.912 -6.948,-2.736Z" style="fill:#efefef;fill-rule:nonzero;"/><path d="M216.004,1797.74c2.952,-0 5.352,1.056 7.2,3.168c1.848,2.112 2.604,4.668 2.268,7.668l-15.228,0c0.264,1.488 0.948,2.694 2.052,3.618c1.104,0.924 2.436,1.386 3.996,1.386c1.2,0 2.274,-0.294 3.222,-0.882c0.948,-0.588 1.686,-1.386 2.214,-2.394l3.168,1.404c-0.816,1.56 -1.98,2.808 -3.492,3.744c-1.512,0.936 -3.252,1.404 -5.22,1.404c-2.76,0 -5.076,-0.912 -6.948,-2.736c-1.872,-1.824 -2.808,-4.092 -2.808,-6.804c0,-2.712 0.918,-4.986 2.754,-6.822c1.836,-1.836 4.11,-2.754 6.822,-2.754Zm0,3.276c-1.392,0 -2.598,0.426 -3.618,1.278c-1.02,0.852 -1.698,1.962 -2.034,3.33l11.304,0c-0.312,-1.368 -0.978,-2.478 -1.998,-3.33c-1.02,-0.852 -2.238,-1.278 -3.654,-1.278Z" style="fill:#efefef;fill-rule:nonzero;"/><path d="M239.476,1797.74c2.088,-0 3.792,0.732 5.112,2.196c1.32,1.464 1.98,3.324 1.98,5.58l0,10.98l-3.78,0l0,-10.404c0,-1.416 -0.456,-2.586 -1.368,-3.51c-0.912,-0.924 -2.04,-1.386 -3.384,-1.386c-1.512,0 -2.748,0.462 -3.708,1.386c-0.96,0.924 -1.44,2.094 -1.44,3.51l0,10.404l-3.78,0l0,-18.396l3.78,0l0,4.752c0.504,-1.584 1.338,-2.832 2.502,-3.744c1.164,-0.912 2.526,-1.368 4.086,-1.368Z" style="fill:#efefef;fill-rule:nonzero;"/><path d="M252.256,1801.45l-3.924,0l0,-3.348l3.924,0l0,-5.976l3.78,-1.188l0,7.164l5.184,0l-0,3.348l-5.184,0l0,8.496c0,1.128 0.252,1.944 0.756,2.448c0.504,0.504 1.308,0.756 2.412,0.756l2.016,0l0,3.348l-2.016,0c-2.376,0 -4.128,-0.552 -5.256,-1.656c-1.128,-1.104 -1.692,-2.796 -1.692,-5.076l0,-8.316Z" style="fill:#efefef;fill-rule:nonzero;"/><path d="M264.028,1808.87l0,-10.764l3.78,0l0,10.764c0,1.344 0.432,2.43 1.296,3.258c0.864,0.828 1.968,1.242 3.312,1.242c1.32,0 2.412,-0.414 3.276,-1.242c0.864,-0.828 1.296,-1.914 1.296,-3.258l0,-10.764l3.78,0l0,10.764c0,2.352 -0.786,4.272 -2.358,5.76c-1.572,1.488 -3.57,2.232 -5.994,2.232c-2.448,0 -4.458,-0.744 -6.03,-2.232c-1.572,-1.488 -2.358,-3.408 -2.358,-5.76Z" style="fill:#efefef;fill-rule:nonzero;"/><path d="M288.652,1798.1l0,4.86c0.6,-2.184 1.542,-3.66 2.826,-4.428c1.284,-0.768 2.742,-0.96 4.374,-0.576l-0,3.6c-1.992,-0.552 -3.69,-0.378 -5.094,0.522c-1.404,0.9 -2.106,2.238 -2.106,4.014l-0,10.404l-3.78,0l-0,-18.396l3.78,0Z" style="fill:#efefef;fill-rule:nonzero;"/><path d="M298.912,1794.47c-0.456,-0.456 -0.684,-1.008 -0.684,-1.656c0,-0.648 0.234,-1.2 0.702,-1.656c0.468,-0.456 1.026,-0.684 1.674,-0.684c0.648,-0 1.2,0.228 1.656,0.684c0.456,0.456 0.684,1.008 0.684,1.656c0,0.648 -0.228,1.2 -0.684,1.656c-0.456,0.456 -1.008,0.684 -1.656,0.684c-0.648,0 -1.212,-0.228 -1.692,-0.684Zm3.564,22.032l-3.78,0l0,-18.396l3.78,0l0,18.396Z" style="fill:#efefef;fill-rule:nonzero;"/><path d="M308.812,1814.12c-1.872,-1.824 -2.808,-4.092 -2.808,-6.804c0,-2.712 0.936,-4.986 2.808,-6.822c1.872,-1.836 4.188,-2.754 6.948,-2.754c2.76,-0 5.076,0.918 6.948,2.754c1.872,1.836 2.808,4.11 2.808,6.822c0,2.712 -0.936,4.98 -2.808,6.804c-1.872,1.824 -4.188,2.736 -6.948,2.736c-2.76,-0 -5.076,-0.912 -6.948,-2.736Zm2.772,-11.124c-1.128,1.152 -1.692,2.592 -1.692,4.32c0,1.728 0.564,3.168 1.692,4.32c1.128,1.152 2.52,1.728 4.176,1.728c1.68,0 3.078,-0.576 4.194,-1.728c1.116,-1.152 1.674,-2.592 1.674,-4.32c0,-1.752 -0.558,-3.204 -1.674,-4.356c-1.116,-1.152 -2.514,-1.728 -4.194,-1.728c-1.656,0 -3.048,0.588 -4.176,1.764Z" style="fill:#efefef;fill-rule:nonzero;"/><path d="M339.412,1797.74c2.088,-0 3.792,0.732 5.112,2.196c1.32,1.464 1.98,3.324 1.98,5.58l-0,10.98l-3.78,0l-0,-10.404c-0,-1.416 -0.456,-2.586 -1.368,-3.51c-0.912,-0.924 -2.04,-1.386 -3.384,-1.386c-1.512,0 -2.748,0.462 -3.708,1.386c-0.96,0.924 -1.44,2.094 -1.44,3.51l-0,10.404l-3.78,0l-0,-18.396l3.78,0l-0,4.752c0.504,-1.584 1.338,-2.832 2.502,-3.744c1.164,-0.912 2.526,-1.368 4.086,-1.368Z" style="fill:#efefef;fill-rule:nonzero;"/><path d="M360.328,1811.64l3.78,-0.792c0.336,1.968 1.68,2.952 4.032,2.952c1.2,-0 2.166,-0.234 2.898,-0.702c0.732,-0.468 1.098,-1.062 1.098,-1.782c-0,-0.768 -0.384,-1.35 -1.152,-1.746c-0.768,-0.396 -1.704,-0.684 -2.808,-0.864c-1.104,-0.18 -2.214,-0.402 -3.33,-0.666c-1.116,-0.264 -2.058,-0.786 -2.826,-1.566c-0.768,-0.78 -1.152,-1.83 -1.152,-3.15c-0,-1.608 0.69,-2.94 2.07,-3.996c1.38,-1.056 3.114,-1.584 5.202,-1.584c2.088,0 3.798,0.468 5.13,1.404c1.332,0.936 2.13,2.208 2.394,3.816l-3.78,0.792c-0.288,-1.968 -1.536,-2.952 -3.744,-2.952c-1.008,0 -1.836,0.216 -2.484,0.648c-0.648,0.432 -0.972,0.996 -0.972,1.692c-0,0.624 0.276,1.128 0.828,1.512c0.552,0.384 1.248,0.636 2.088,0.756c0.84,0.12 1.746,0.3 2.718,0.54c0.972,0.24 1.878,0.51 2.718,0.81c0.84,0.3 1.536,0.834 2.088,1.602c0.552,0.768 0.828,1.728 0.828,2.88c-0,1.608 -0.75,2.946 -2.25,4.014c-1.5,1.068 -3.354,1.602 -5.562,1.602c-2.184,0 -3.96,-0.468 -5.328,-1.404c-1.368,-0.936 -2.196,-2.208 -2.484,-3.816Z" style="fill:#efefef;fill-rule:nonzero;"/><path d="M390.208,1797.74c2.376,-0 4.356,0.918 5.94,2.754c1.584,1.836 2.376,4.11 2.376,6.822c0,2.712 -0.792,4.98 -2.376,6.804c-1.584,1.824 -3.564,2.736 -5.94,2.736c-1.728,-0 -3.234,-0.51 -4.518,-1.53c-1.284,-1.02 -2.214,-2.406 -2.79,-4.158l-0,12.528l-3.78,-0l-0,-25.596l3.78,-0l-0,5.328c0.576,-1.752 1.506,-3.138 2.79,-4.158c1.284,-1.02 2.79,-1.53 4.518,-1.53Zm-1.26,15.624c1.584,-0 2.922,-0.582 4.014,-1.746c1.092,-1.164 1.638,-2.598 1.638,-4.302c-0,-1.728 -0.546,-3.174 -1.638,-4.338c-1.092,-1.164 -2.43,-1.746 -4.014,-1.746c-1.752,-0 -3.198,0.576 -4.338,1.728c-1.14,1.152 -1.71,2.604 -1.71,4.356c-0,1.728 0.57,3.168 1.71,4.32c1.14,1.152 2.586,1.728 4.338,1.728Z" style="fill:#efefef;fill-rule:nonzero;"/><path d="M409.612,1797.74c2.208,-0 4.008,0.576 5.4,1.728c1.392,1.152 2.088,2.808 2.088,4.968l0,12.06l-3.78,-0l-0,-4.896c-1.128,3.504 -3.396,5.256 -6.804,5.256c-1.584,-0 -2.904,-0.474 -3.96,-1.422c-1.056,-0.948 -1.584,-2.19 -1.584,-3.726c-0,-1.8 0.636,-3.15 1.908,-4.05c1.272,-0.9 2.892,-1.458 4.86,-1.674l3.564,-0.36c1.344,-0.12 2.016,-0.72 2.016,-1.8c-0,-0.888 -0.342,-1.596 -1.026,-2.124c-0.684,-0.528 -1.578,-0.792 -2.682,-0.792c-1.128,-0 -2.082,0.288 -2.862,0.864c-0.78,0.576 -1.278,1.416 -1.494,2.52l-3.744,-0.9c0.336,-1.728 1.236,-3.102 2.7,-4.122c1.464,-1.02 3.264,-1.53 5.4,-1.53Zm-1.872,16.056c1.56,-0 2.88,-0.522 3.96,-1.566c1.08,-1.044 1.62,-2.262 1.62,-3.654l0,-1.008c-0.288,0.48 -0.984,0.78 -2.088,0.9l-3.492,0.432c-0.912,0.12 -1.638,0.39 -2.178,0.81c-0.54,0.42 -0.81,0.99 -0.81,1.71c0,0.72 0.27,1.296 0.81,1.728c0.54,0.432 1.266,0.648 2.178,0.648Z" style="fill:#efefef;fill-rule:nonzero;"/><path d="M440.212,1815.53l4.284,-17.424l3.6,0l-4.752,18.396l-6.3,0l-3.852,-17.424l-3.852,17.424l-6.264,0l-4.788,-18.396l3.672,0l4.248,17.424l3.6,-17.424l6.804,0l3.6,17.424Z" style="fill:#efefef;fill-rule:nonzero;"/><path d="M460.912,1797.74c2.088,-0 3.792,0.732 5.112,2.196c1.32,1.464 1.98,3.324 1.98,5.58l-0,10.98l-3.78,0l-0,-10.404c-0,-1.416 -0.456,-2.586 -1.368,-3.51c-0.912,-0.924 -2.04,-1.386 -3.384,-1.386c-1.512,0 -2.748,0.462 -3.708,1.386c-0.96,0.924 -1.44,2.094 -1.44,3.51l-0,10.404l-3.78,0l-0,-18.396l3.78,0l-0,4.752c0.504,-1.584 1.338,-2.832 2.502,-3.744c1.164,-0.912 2.526,-1.368 4.086,-1.368Z" style="fill:#efefef;fill-rule:nonzero;"/><path id="fills-51d91a5c-5418-8075-8004-33f6da57747d" d="M162.75,1796.9c1.85,3.1 2.775,6.55 2.775,10.35c0,3.8 -0.925,7.25 -2.775,10.35l7.125,7.125l-7.575,7.5l-7.35,-7.275c-3.1,1.6 -6.45,2.4 -10.05,2.4c-3.65,0 -7.025,-0.8 -10.125,-2.4l-7.35,7.275l-7.575,-7.5l7.125,-7.125c-1.85,-3.1 -2.775,-6.55 -2.775,-10.35c0,-3.8 0.925,-7.25 2.775,-10.35l-7.125,-7.125l7.575,-7.5l7.35,7.275c3.1,-1.6 6.475,-2.4 10.125,-2.4c3.6,0 6.95,0.8 10.05,2.4l7.35,-7.275l7.575,7.5l-7.125,7.125Zm-25.2,2.7c-1.95,2.05 -2.925,4.6 -2.925,7.65c0,3.05 0.975,5.612 2.925,7.687c1.95,2.075 4.4,3.113 7.35,3.113c2.9,-0 5.325,-1.038 7.275,-3.113c1.95,-2.075 2.925,-4.637 2.925,-7.687c-0,-3.05 -0.975,-5.613 -2.925,-7.688c-1.95,-2.075 -4.375,-3.112 -7.275,-3.112c-2.95,0 -5.4,1.05 -7.35,3.15Z" style="fill:#dc6044;fill-rule:nonzero;"/><rect id="fills-51d91a5c-5418-8075-8004-33f6da577480" x="187.099" y="1713.37" width="3.78" height="26.64" style="fill:#efefef;fill-rule:nonzero;"/><path d="M195.343,1717.98c-0.456,-0.456 -0.684,-1.008 -0.684,-1.656c-0,-0.648 0.234,-1.2 0.702,-1.656c0.468,-0.456 1.026,-0.684 1.674,-0.684c0.648,-0 1.2,0.228 1.656,0.684c0.456,0.456 0.684,1.008 0.684,1.656c-0,0.648 -0.228,1.2 -0.684,1.656c-0.456,0.456 -1.008,0.684 -1.656,0.684c-0.648,0 -1.212,-0.228 -1.692,-0.684Zm3.564,22.032l-3.78,0l-0,-18.396l3.78,0l-0,18.396Z" style="fill:#efefef;fill-rule:nonzero;"/><path d="M212.011,1721.26c2.952,-0 5.352,1.056 7.2,3.168c1.848,2.112 2.604,4.668 2.268,7.668l-15.228,0c0.264,1.488 0.948,2.694 2.052,3.618c1.104,0.924 2.436,1.386 3.996,1.386c1.2,0 2.274,-0.294 3.222,-0.882c0.948,-0.588 1.686,-1.386 2.214,-2.394l3.168,1.404c-0.816,1.56 -1.98,2.808 -3.492,3.744c-1.512,0.936 -3.252,1.404 -5.22,1.404c-2.76,0 -5.076,-0.912 -6.948,-2.736c-1.872,-1.824 -2.808,-4.092 -2.808,-6.804c0,-2.712 0.918,-4.986 2.754,-6.822c1.836,-1.836 4.11,-2.754 6.822,-2.754Zm0,3.276c-1.392,0 -2.598,0.426 -3.618,1.278c-1.02,0.852 -1.698,1.962 -2.034,3.33l11.304,0c-0.312,-1.368 -0.978,-2.478 -1.998,-3.33c-1.02,-0.852 -2.238,-1.278 -3.654,-1.278Z" style="fill:#efefef;fill-rule:nonzero;"/><path d="M224.755,1732.38l-0,-10.764l3.78,-0l-0,10.764c-0,1.344 0.432,2.43 1.296,3.258c0.864,0.828 1.968,1.242 3.312,1.242c1.32,-0 2.412,-0.414 3.276,-1.242c0.864,-0.828 1.296,-1.914 1.296,-3.258l-0,-10.764l3.78,-0l-0,10.764c-0,2.352 -0.786,4.272 -2.358,5.76c-1.572,1.488 -3.57,2.232 -5.994,2.232c-2.448,-0 -4.458,-0.744 -6.03,-2.232c-1.572,-1.488 -2.358,-3.408 -2.358,-5.76Z" style="fill:#efefef;fill-rule:nonzero;"/><path d="M247.903,1724.96l-3.924,0l0,-3.348l3.924,0l0,-5.976l3.78,-1.188l0,7.164l5.184,0l-0,3.348l-5.184,0l-0,8.496c-0,1.128 0.252,1.944 0.756,2.448c0.504,0.504 1.308,0.756 2.412,0.756l2.016,0l-0,3.348l-2.016,0c-2.376,0 -4.128,-0.552 -5.256,-1.656c-1.128,-1.104 -1.692,-2.796 -1.692,-5.076l-0,-8.316Z" style="fill:#efefef;fill-rule:nonzero;"/><path d="M268.459,1721.26c2.952,-0 5.352,1.056 7.2,3.168c1.848,2.112 2.604,4.668 2.268,7.668l-15.228,0c0.264,1.488 0.948,2.694 2.052,3.618c1.104,0.924 2.436,1.386 3.996,1.386c1.2,0 2.274,-0.294 3.222,-0.882c0.948,-0.588 1.686,-1.386 2.214,-2.394l3.168,1.404c-0.816,1.56 -1.98,2.808 -3.492,3.744c-1.512,0.936 -3.252,1.404 -5.22,1.404c-2.76,0 -5.076,-0.912 -6.948,-2.736c-1.872,-1.824 -2.808,-4.092 -2.808,-6.804c0,-2.712 0.918,-4.986 2.754,-6.822c1.836,-1.836 4.11,-2.754 6.822,-2.754Zm0,3.276c-1.392,0 -2.598,0.426 -3.618,1.278c-1.02,0.852 -1.698,1.962 -2.034,3.33l11.304,0c-0.312,-1.368 -0.978,-2.478 -1.998,-3.33c-1.02,-0.852 -2.238,-1.278 -3.654,-1.278Z" style="fill:#efefef;fill-rule:nonzero;"/><path d="M291.931,1721.26c2.088,-0 3.792,0.732 5.112,2.196c1.32,1.464 1.98,3.324 1.98,5.58l-0,10.98l-3.78,0l-0,-10.404c-0,-1.416 -0.456,-2.586 -1.368,-3.51c-0.912,-0.924 -2.04,-1.386 -3.384,-1.386c-1.512,0 -2.748,0.462 -3.708,1.386c-0.96,0.924 -1.44,2.094 -1.44,3.51l-0,10.404l-3.78,0l-0,-18.396l3.78,0l-0,4.752c0.504,-1.584 1.338,-2.832 2.502,-3.744c1.164,-0.912 2.526,-1.368 4.086,-1.368Z" style="fill:#efefef;fill-rule:nonzero;"/><path d="M310.687,1721.26c2.208,-0 4.008,0.576 5.4,1.728c1.392,1.152 2.088,2.808 2.088,4.968l0,12.06l-3.78,-0l-0,-4.896c-1.128,3.504 -3.396,5.256 -6.804,5.256c-1.584,-0 -2.904,-0.474 -3.96,-1.422c-1.056,-0.948 -1.584,-2.19 -1.584,-3.726c-0,-1.8 0.636,-3.15 1.908,-4.05c1.272,-0.9 2.892,-1.458 4.86,-1.674l3.564,-0.36c1.344,-0.12 2.016,-0.72 2.016,-1.8c-0,-0.888 -0.342,-1.596 -1.026,-2.124c-0.684,-0.528 -1.578,-0.792 -2.682,-0.792c-1.128,-0 -2.082,0.288 -2.862,0.864c-0.78,0.576 -1.278,1.416 -1.494,2.52l-3.744,-0.9c0.336,-1.728 1.236,-3.102 2.7,-4.122c1.464,-1.02 3.264,-1.53 5.4,-1.53Zm-1.872,16.056c1.56,-0 2.88,-0.522 3.96,-1.566c1.08,-1.044 1.62,-2.262 1.62,-3.654l0,-1.008c-0.288,0.48 -0.984,0.78 -2.088,0.9l-3.492,0.432c-0.912,0.12 -1.638,0.39 -2.178,0.81c-0.54,0.42 -0.81,0.99 -0.81,1.71c0,0.72 0.27,1.296 0.81,1.728c0.54,0.432 1.266,0.648 2.178,0.648Z" style="fill:#efefef;fill-rule:nonzero;"/><path d="M332.611,1721.26c2.088,-0 3.792,0.732 5.112,2.196c1.32,1.464 1.98,3.324 1.98,5.58l0,10.98l-3.78,0l-0,-10.404c-0,-1.416 -0.456,-2.586 -1.368,-3.51c-0.912,-0.924 -2.04,-1.386 -3.384,-1.386c-1.512,0 -2.748,0.462 -3.708,1.386c-0.96,0.924 -1.44,2.094 -1.44,3.51l0,10.404l-3.78,0l0,-18.396l3.78,0l0,4.752c0.504,-1.584 1.338,-2.832 2.502,-3.744c1.164,-0.912 2.526,-1.368 4.086,-1.368Z" style="fill:#efefef;fill-rule:nonzero;"/><path d="M345.391,1724.96l-3.924,0l0,-3.348l3.924,0l0,-5.976l3.78,-1.188l0,7.164l5.184,0l0,3.348l-5.184,0l0,8.496c0,1.128 0.252,1.944 0.756,2.448c0.504,0.504 1.308,0.756 2.412,0.756l2.016,0l0,3.348l-2.016,0c-2.376,0 -4.128,-0.552 -5.256,-1.656c-1.128,-1.104 -1.692,-2.796 -1.692,-5.076l0,-8.316Z" style="fill:#efefef;fill-rule:nonzero;"/><path d="M367.603,1735.15l3.78,-0.792c0.336,1.968 1.68,2.952 4.032,2.952c1.2,-0 2.166,-0.234 2.898,-0.702c0.732,-0.468 1.098,-1.062 1.098,-1.782c-0,-0.768 -0.384,-1.35 -1.152,-1.746c-0.768,-0.396 -1.704,-0.684 -2.808,-0.864c-1.104,-0.18 -2.214,-0.402 -3.33,-0.666c-1.116,-0.264 -2.058,-0.786 -2.826,-1.566c-0.768,-0.78 -1.152,-1.83 -1.152,-3.15c-0,-1.608 0.69,-2.94 2.07,-3.996c1.38,-1.056 3.114,-1.584 5.202,-1.584c2.088,0 3.798,0.468 5.13,1.404c1.332,0.936 2.13,2.208 2.394,3.816l-3.78,0.792c-0.288,-1.968 -1.536,-2.952 -3.744,-2.952c-1.008,0 -1.836,0.216 -2.484,0.648c-0.648,0.432 -0.972,0.996 -0.972,1.692c-0,0.624 0.276,1.128 0.828,1.512c0.552,0.384 1.248,0.636 2.088,0.756c0.84,0.12 1.746,0.3 2.718,0.54c0.972,0.24 1.878,0.51 2.718,0.81c0.84,0.3 1.536,0.834 2.088,1.602c0.552,0.768 0.828,1.728 0.828,2.88c-0,1.608 -0.75,2.946 -2.25,4.014c-1.5,1.068 -3.354,1.602 -5.562,1.602c-2.184,0 -3.96,-0.468 -5.328,-1.404c-1.368,-0.936 -2.196,-2.208 -2.484,-3.816Z" style="fill:#efefef;fill-rule:nonzero;"/><path d="M397.483,1721.26c2.376,-0 4.356,0.918 5.94,2.754c1.584,1.836 2.376,4.11 2.376,6.822c0,2.712 -0.792,4.98 -2.376,6.804c-1.584,1.824 -3.564,2.736 -5.94,2.736c-1.728,-0 -3.234,-0.51 -4.518,-1.53c-1.284,-1.02 -2.214,-2.406 -2.79,-4.158l-0,12.528l-3.78,-0l-0,-25.596l3.78,-0l-0,5.328c0.576,-1.752 1.506,-3.138 2.79,-4.158c1.284,-1.02 2.79,-1.53 4.518,-1.53Zm-1.26,15.624c1.584,-0 2.922,-0.582 4.014,-1.746c1.092,-1.164 1.638,-2.598 1.638,-4.302c-0,-1.728 -0.546,-3.174 -1.638,-4.338c-1.092,-1.164 -2.43,-1.746 -4.014,-1.746c-1.752,-0 -3.198,0.576 -4.338,1.728c-1.14,1.152 -1.71,2.604 -1.71,4.356c-0,1.728 0.57,3.168 1.71,4.32c1.14,1.152 2.586,1.728 4.338,1.728Z" style="fill:#efefef;fill-rule:nonzero;"/><path d="M416.887,1721.26c2.208,-0 4.008,0.576 5.4,1.728c1.392,1.152 2.088,2.808 2.088,4.968l0,12.06l-3.78,-0l-0,-4.896c-1.128,3.504 -3.396,5.256 -6.804,5.256c-1.584,-0 -2.904,-0.474 -3.96,-1.422c-1.056,-0.948 -1.584,-2.19 -1.584,-3.726c-0,-1.8 0.636,-3.15 1.908,-4.05c1.272,-0.9 2.892,-1.458 4.86,-1.674l3.564,-0.36c1.344,-0.12 2.016,-0.72 2.016,-1.8c-0,-0.888 -0.342,-1.596 -1.026,-2.124c-0.684,-0.528 -1.578,-0.792 -2.682,-0.792c-1.128,-0 -2.082,0.288 -2.862,0.864c-0.78,0.576 -1.278,1.416 -1.494,2.52l-3.744,-0.9c0.336,-1.728 1.236,-3.102 2.7,-4.122c1.464,-1.02 3.264,-1.53 5.4,-1.53Zm-1.872,16.056c1.56,-0 2.88,-0.522 3.96,-1.566c1.08,-1.044 1.62,-2.262 1.62,-3.654l0,-1.008c-0.288,0.48 -0.984,0.78 -2.088,0.9l-3.492,0.432c-0.912,0.12 -1.638,0.39 -2.178,0.81c-0.54,0.42 -0.81,0.99 -0.81,1.71c0,0.72 0.27,1.296 0.81,1.728c0.54,0.432 1.266,0.648 2.178,0.648Z" style="fill:#efefef;fill-rule:nonzero;"/><path d="M447.487,1739.04l4.284,-17.424l3.6,0l-4.752,18.396l-6.3,0l-3.852,-17.424l-3.852,17.424l-6.264,0l-4.788,-18.396l3.672,0l4.248,17.424l3.6,-17.424l6.804,0l3.6,17.424Z" style="fill:#efefef;fill-rule:nonzero;"/><path d="M468.187,1721.26c2.088,-0 3.792,0.732 5.112,2.196c1.32,1.464 1.98,3.324 1.98,5.58l0,10.98l-3.78,0l-0,-10.404c-0,-1.416 -0.456,-2.586 -1.368,-3.51c-0.912,-0.924 -2.04,-1.386 -3.384,-1.386c-1.512,0 -2.748,0.462 -3.708,1.386c-0.96,0.924 -1.44,2.094 -1.44,3.51l0,10.404l-3.78,0l0,-18.396l3.78,0l0,4.752c0.504,-1.584 1.338,-2.832 2.502,-3.744c1.164,-0.912 2.526,-1.368 4.086,-1.368Z" style="fill:#efefef;fill-rule:nonzero;"/><path id="fills-51d91a5c-5418-8075-8004-33f6da57747f" d="M118.05,1704.5l54,0l-27,53.25l-27,-53.25Zm27,37.125l15.3,-30.15l-30.525,0l15.225,30.15Z" style="fill:#bf82bb;fill-rule:nonzero;"/><path d="M972.385,903l329.615,576l-658,0l328.385,-576Z" style="fill:none;fill-rule:nonzero;stroke:#92bacf;stroke-width:3px;"/><path d="M631.385,168l329.615,576l-658,0l328.385,-576Z" style="fill:none;fill-rule:nonzero;stroke:#92bacf;stroke-width:3px;"/><path d="M2618.39,901l329.615,576l-658,0l328.385,-576Z" style="fill:none;fill-rule:nonzero;stroke:#d5ad65;stroke-width:3px;"/><path d="M2954.39,168l329.615,576l-658,0l328.385,-576Z" style="fill:none;fill-rule:nonzero;stroke:#d5ad65;stroke-width:3px;"/><path d="M1789,1706l-382.354,-134.148l-581.646,-1181.5l226,0l169.875,-101.356l1136.25,0l169.875,101.356l226,0l-581.646,1181.5l-382.354,134.148Z" style="fill:none;fill-rule:nonzero;stroke:#b1b2b5;stroke-width:3px;"/><path d="M1347,289l884,0l-48,129l-784,0l-52,-129Z" style="fill:none;fill-rule:nonzero;stroke:#b1b2b5;stroke-width:3px;"/><path id="fills-51d91a5c-5418-8075-8004-33f6da577451" d="M1816,483.7l6.8,11.6l-20.3,11.7l20.3,11.7l-6.8,11.6l-20.2,-11.7l0,23.4l-13.5,0l0,-23.3l-20.1,11.6l-6.8,-11.6l20.3,-11.7l-20.3,-11.7l6.8,-11.6l20.1,11.6l0,-23.3l13.5,-0l0,23.4l20.2,-11.7Z" style="fill:#e64134;fill-rule:nonzero;"/><path id="fills-51d91a5c-5418-8075-8004-33f6da577452" d="M1458,336.2c2.467,4.133 3.7,8.733 3.7,13.8c0,5.067 -1.233,9.667 -3.7,13.8l9.5,9.5l-10.1,10l-9.8,-9.7c-4.133,2.133 -8.6,3.2 -13.4,3.2c-4.867,0 -9.367,-1.067 -13.5,-3.2l-9.8,9.7l-10.1,-10l9.5,-9.5c-2.467,-4.133 -3.7,-8.733 -3.7,-13.8c-0,-5.067 1.233,-9.667 3.7,-13.8l-9.5,-9.5l10.1,-10l9.8,9.7c4.133,-2.133 8.633,-3.2 13.5,-3.2c4.8,0 9.267,1.067 13.4,3.2l9.8,-9.7l10.1,10l-9.5,9.5Zm-33.6,3.6c-2.6,2.733 -3.9,6.133 -3.9,10.2c0,4.067 1.3,7.483 3.9,10.25c2.6,2.767 5.867,4.15 9.8,4.15c3.867,0 7.1,-1.383 9.7,-4.15c2.6,-2.767 3.9,-6.183 3.9,-10.25c-0,-4.067 -1.3,-7.483 -3.9,-10.25c-2.6,-2.767 -5.833,-4.15 -9.7,-4.15c-3.933,0 -7.2,1.4 -9.8,4.2Z" style="fill:#dc6044;fill-rule:nonzero;"/><path id="fills-51d91a5c-5418-8075-8004-33f6da577453" d="M2166,336.2c2.467,4.133 3.7,8.733 3.7,13.8c0,5.067 -1.233,9.667 -3.7,13.8l9.5,9.5l-10.1,10l-9.8,-9.7c-4.133,2.133 -8.6,3.2 -13.4,3.2c-4.867,0 -9.367,-1.067 -13.5,-3.2l-9.8,9.7l-10.1,-10l9.5,-9.5c-2.467,-4.133 -3.7,-8.733 -3.7,-13.8c0,-5.067 1.233,-9.667 3.7,-13.8l-9.5,-9.5l10.1,-10l9.8,9.7c4.133,-2.133 8.633,-3.2 13.5,-3.2c4.8,0 9.267,1.067 13.4,3.2l9.8,-9.7l10.1,10l-9.5,9.5Zm-33.6,3.6c-2.6,2.733 -3.9,6.133 -3.9,10.2c0,4.067 1.3,7.483 3.9,10.25c2.6,2.767 5.867,4.15 9.8,4.15c3.867,0 7.1,-1.383 9.7,-4.15c2.6,-2.767 3.9,-6.183 3.9,-10.25c0,-4.067 -1.3,-7.483 -3.9,-10.25c-2.6,-2.767 -5.833,-4.15 -9.7,-4.15c-3.933,0 -7.2,1.4 -9.8,4.2Z" style="fill:#dc6044;fill-rule:nonzero;"/><path id="fills-51d91a5c-5418-8075-8004-33f6da577454" d="M733.4,575l72,0l-36,71l-36,-71Zm36,49.5l20.4,-40.2l-40.7,0l20.3,40.2Z" style="fill:#bf82bb;fill-rule:nonzero;"/><path id="fills-51d91a5c-5418-8075-8004-33f6da577455" d="M1084.4,1316l72,0l-36,71l-36,-71Zm36,49.5l20.4,-40.2l-40.7,0l20.3,40.2Z" style="fill:#bf82bb;fill-rule:nonzero;"/><path id="fills-51d91a5c-5418-8075-8004-33f6da577456" d="M2414.4,1316l72,0l-36,71l-36,-71Zm36,49.5l20.4,-40.2l-40.7,0l20.3,40.2Z" style="fill:#bf82bb;fill-rule:nonzero;"/><path id="fills-51d91a5c-5418-8075-8004-33f6da577457" d="M2755.4,575l72,0l-36,71l-36,-71Zm36,49.5l20.4,-40.2l-40.7,0l20.3,40.2Z" style="fill:#bf82bb;fill-rule:nonzero;"/><g><circle id="stroke-shape-render-40-51d91a5c-5418-8075-8004-33f6da577486-0" cx="1457.23" cy="959.5" r="90.5" style="fill:none;stroke:#efefef;stroke-width:10px;"/><path id="fills-51d91a5c-5418-8075-8004-33f6da577487" d="M1482.22,994.496l-48,0l-0,-70l17,0l-0,55l31,0l-0,15Z" style="fill:#efefef;fill-rule:nonzero;"/></g><g><circle id="stroke-shape-render-44-51d91a5c-5418-8075-8004-33f6da577489-0" cx="1789.85" cy="1264.5" r="90.5" style="fill:none;stroke:#efefef;stroke-width:10px;"/><path id="fills-51d91a5c-5418-8075-8004-33f6da57748a" d="M1831.35,1233.48l-0,70l-16,0l-0,-64.9l-9,64.9l-30.1,0l-8.9,-64.9l-0,64.9l-16,0l-0,-70l31.3,0l8.9,64.9l9,-64.9l30.8,0Z" style="fill:#efefef;fill-rule:nonzero;"/></g><g><circle id="stroke-shape-render-48-51d91a5c-5418-8075-8004-33f6da57748c-0" cx="2122.46" cy="959.5" r="90.5" style="fill:none;stroke:#efefef;stroke-width:10px;"/><path id="fills-51d91a5c-5418-8075-8004-33f6da57748d" d="M2140.15,970.396l16.3,25.1l-20.2,0l-14.9,-23l-6.9,0l0,23l-17,0l0,-70l31,0c7.867,0 14.167,2.2 18.9,6.6c4.734,4.4 7.1,10.033 7.1,16.9c0,4.867 -1.25,9.183 -3.75,12.95c-2.5,3.767 -6.016,6.583 -10.55,8.45Zm-11.7,-29.9l-14,-0l0,16.5l14,-0c2.534,-0 4.567,-0.767 6.1,-2.3c1.534,-1.533 2.3,-3.5 2.3,-5.9c0,-2.4 -0.766,-4.383 -2.3,-5.95c-1.533,-1.567 -3.566,-2.35 -6.1,-2.35Z" style="fill:#efefef;fill-rule:nonzero;"/></g><path id="fills-51d91a5c-5418-8075-8004-33f6da57745b" d="M1761.45,1550.07c0,-4.176 1.488,-7.752 4.464,-10.728c2.976,-2.976 6.576,-4.464 10.8,-4.464c4.944,0 8.952,1.944 12.024,5.832c3.072,-3.888 7.08,-5.832 12.024,-5.832c4.224,0 7.824,1.488 10.8,4.464c2.976,2.976 4.464,6.552 4.464,10.728c0,2.976 -0.732,6.048 -2.196,9.216c-1.464,3.168 -3.6,6.372 -6.408,9.612c-2.808,3.24 -5.628,6.18 -8.46,8.82c-2.832,2.64 -6.24,5.64 -10.224,9c-3.984,-3.36 -7.392,-6.36 -10.224,-9c-2.832,-2.64 -5.652,-5.58 -8.46,-8.82c-2.808,-3.24 -4.944,-6.444 -6.408,-9.612c-1.464,-3.168 -2.196,-6.24 -2.196,-9.216Z" style="fill:#b1b2b5;fill-rule:nonzero;"/><rect id="fills-51d91a5c-5418-8075-8004-33f6da57748e" x="854.9" y="165.367" width="10.5" height="74" style="fill:#92bacf;fill-rule:nonzero;"/><path d="M877.8,178.167c-1.267,-1.266 -1.9,-2.8 -1.9,-4.6c-0,-1.8 0.65,-3.333 1.95,-4.6c1.3,-1.266 2.85,-1.9 4.65,-1.9c1.8,0 3.333,0.634 4.6,1.9c1.267,1.267 1.9,2.8 1.9,4.6c-0,1.8 -0.633,3.334 -1.9,4.6c-1.267,1.267 -2.8,1.9 -4.6,1.9c-1.8,0 -3.367,-0.633 -4.7,-1.9Zm9.9,61.2l-10.5,0l-0,-51.1l10.5,0l-0,51.1Z" style="fill:#92bacf;fill-rule:nonzero;"/><path d="M940.9,202.767l0,-14.5l10.5,0l0,45.6c0,7.534 -2.6,13.834 -7.8,18.9c-5.2,5.067 -11.633,7.6 -19.3,7.6c-5.4,0 -10.217,-1.3 -14.45,-3.9c-4.233,-2.6 -7.417,-6.1 -9.55,-10.5l9.5,-4.7c1.4,2.934 3.35,5.25 5.85,6.95c2.5,1.7 5.383,2.55 8.65,2.55c4.667,0 8.6,-1.616 11.8,-4.85c3.2,-3.233 4.8,-7.25 4.8,-12.05l0,-10c-1.667,4.667 -4.283,8.4 -7.85,11.2c-3.567,2.8 -7.717,4.2 -12.45,4.2c-6.6,0 -12.1,-2.483 -16.5,-7.45c-4.4,-4.966 -6.6,-11.15 -6.6,-18.55c0,-7.4 2.2,-13.583 6.6,-18.55c4.4,-4.966 9.9,-7.45 16.5,-7.45c4.733,0 8.9,1.4 12.5,4.2c3.6,2.8 6.2,6.567 7.8,11.3Zm-16.5,26.9c4.733,0 8.667,-1.566 11.8,-4.7c3.133,-3.133 4.7,-7.033 4.7,-11.7c0,-4.666 -1.567,-8.55 -4.7,-11.65c-3.133,-3.1 -7.067,-4.65 -11.8,-4.65c-4.533,0 -8.35,1.567 -11.45,4.7c-3.1,3.134 -4.65,7 -4.65,11.6c0,4.667 1.55,8.567 4.65,11.7c3.1,3.134 6.917,4.7 11.45,4.7Z" style="fill:#92bacf;fill-rule:nonzero;"/><path d="M992,187.267c5.8,0 10.533,2.034 14.2,6.1c3.667,4.067 5.5,9.234 5.5,15.5l-0,30.5l-10.5,0l-0,-28.9c-0,-3.933 -1.267,-7.183 -3.8,-9.75c-2.533,-2.566 -5.667,-3.85 -9.4,-3.85c-4.2,0 -7.633,1.284 -10.3,3.85c-2.667,2.567 -4,5.817 -4,9.75l-0,28.9l-10.5,0l-0,-74l10.5,0l-0,36.1c1.4,-4.4 3.717,-7.866 6.95,-10.4c3.233,-2.533 7.017,-3.8 11.35,-3.8Z" style="fill:#92bacf;fill-rule:nonzero;"/><path d="M1027.5,197.567l-10.9,0l0,-9.3l10.9,0l0,-16.6l10.5,-3.3l0,19.9l14.4,0l0,9.3l-14.4,0l0,23.6c0,3.134 0.7,5.4 2.1,6.8c1.4,1.4 3.633,2.1 6.7,2.1l5.6,0l0,9.3l-5.6,0c-6.6,0 -11.467,-1.533 -14.6,-4.6c-3.133,-3.066 -4.7,-7.766 -4.7,-14.1l0,-23.1Z" style="fill:#92bacf;fill-rule:nonzero;"/><path id="fills-51d91a5c-5418-8075-8004-33f6da57748f" d="M2571.3,203.067l0,-37.7l10.5,0l0,74l-10.5,0l0,-14.8c-1.6,4.867 -4.183,8.717 -7.75,11.55c-3.567,2.834 -7.75,4.25 -12.55,4.25c-6.6,0 -12.1,-2.533 -16.5,-7.6c-4.4,-5.066 -6.6,-11.366 -6.6,-18.9c0,-7.533 2.2,-13.85 6.6,-18.95c4.4,-5.1 9.9,-7.65 16.5,-7.65c4.8,0 8.983,1.417 12.55,4.25c3.567,2.834 6.15,6.684 7.75,11.55Zm-16.8,27.6c4.867,0 8.883,-1.6 12.05,-4.8c3.167,-3.2 4.75,-7.2 4.75,-12c0,-4.866 -1.583,-8.9 -4.75,-12.1c-3.167,-3.2 -7.183,-4.8 -12.05,-4.8c-4.4,0 -8.133,1.617 -11.2,4.85c-3.067,3.234 -4.6,7.25 -4.6,12.05c-0,4.734 1.533,8.717 4.6,11.95c3.067,3.234 6.8,4.85 11.2,4.85Z" style="fill:#d5ad65;fill-rule:nonzero;"/><path d="M2614.6,187.267c6.133,0 11.133,1.6 15,4.8c3.867,3.2 5.8,7.8 5.8,13.8l-0,33.5l-10.5,0l-0,-13.6c-3.133,9.734 -9.433,14.6 -18.9,14.6c-4.4,0 -8.067,-1.316 -11,-3.95c-2.933,-2.633 -4.4,-6.083 -4.4,-10.35c0,-5 1.767,-8.75 5.3,-11.25c3.533,-2.5 8.033,-4.05 13.5,-4.65l9.9,-1c3.733,-0.333 5.6,-2 5.6,-5c-0,-2.466 -0.95,-4.433 -2.85,-5.9c-1.9,-1.466 -4.383,-2.2 -7.45,-2.2c-3.133,0 -5.783,0.8 -7.95,2.4c-2.167,1.6 -3.55,3.934 -4.15,7l-10.4,-2.5c0.933,-4.8 3.433,-8.616 7.5,-11.45c4.067,-2.833 9.067,-4.25 15,-4.25Zm-5.2,44.6c4.333,0 8,-1.45 11,-4.35c3,-2.9 4.5,-6.283 4.5,-10.15l-0,-2.8c-0.8,1.334 -2.733,2.167 -5.8,2.5l-9.7,1.2c-2.533,0.334 -4.55,1.084 -6.05,2.25c-1.5,1.167 -2.25,2.75 -2.25,4.75c-0,2 0.75,3.6 2.25,4.8c1.5,1.2 3.517,1.8 6.05,1.8Z" style="fill:#d5ad65;fill-rule:nonzero;"/><path d="M2657.2,188.267l0,13.5c1.667,-6.066 4.283,-10.166 7.85,-12.3c3.567,-2.133 7.617,-2.666 12.15,-1.6l0,10c-5.533,-1.533 -10.25,-1.05 -14.15,1.45c-3.9,2.5 -5.85,6.217 -5.85,11.15l0,28.9l-10.5,0l0,-51.1l10.5,0Z" style="fill:#d5ad65;fill-rule:nonzero;"/><path d="M2710.7,209.567l23.6,29.8l-13.3,0l-17.4,-22l-8,8.6l0,13.4l-10.5,0l0,-74l10.5,0l0,46.8l21.6,-23.9l13.2,0l-19.7,21.3Z" style="fill:#d5ad65;fill-rule:nonzero;"/><circle id="fills-51d91a5c-5418-8075-8004-33f6da577490" cx="1256" cy="1449" r="54" style="fill:#151515;"/><path id="fills-51d91a5c-5418-8075-8004-33f6da577491" d="M1209.15,1496.55c-12.133,-12.133 -18.2,-27.067 -18.2,-44.8c0,-17.733 6.067,-32.667 18.2,-44.8c12.133,-12.133 27.067,-18.2 44.8,-18.2c17.733,0 32.667,6.067 44.8,18.2c12.133,12.133 18.2,27.067 18.2,44.8c0,17.733 -6.067,32.667 -18.2,44.8c-12.133,12.133 -27.067,18.2 -44.8,18.2c-17.733,0 -32.667,-6.067 -44.8,-18.2Zm23.275,-29.925l-0,15.05l46.025,0l-0,-15.05l-12.95,0l-0,-45.325l-33.075,8.575l-0,15.225l15.75,-4.025l-0,25.55l-15.75,0Z" style="fill:#efefef;fill-rule:nonzero;"/><circle id="fills-51d91a5c-5418-8075-8004-33f6da577492" cx="2325" cy="1449" r="54" style="fill:#151515;"/><path id="fills-51d91a5c-5418-8075-8004-33f6da577493" d="M2278.15,1496.55c-12.133,-12.133 -18.2,-27.067 -18.2,-44.8c-0,-17.733 6.067,-32.667 18.2,-44.8c12.133,-12.133 27.067,-18.2 44.8,-18.2c17.733,0 32.667,6.067 44.8,18.2c12.133,12.133 18.2,27.067 18.2,44.8c-0,17.733 -6.067,32.667 -18.2,44.8c-12.133,12.133 -27.067,18.2 -44.8,18.2c-17.733,0 -32.667,-6.067 -44.8,-18.2Zm23.275,-29.925l0,15.05l46.025,0l-0,-15.05l-12.95,0l-0,-45.325l-33.075,8.575l-0,15.225l15.75,-4.025l-0,25.55l-15.75,0Z" style="fill:#efefef;fill-rule:nonzero;"/><ellipse id="fills-51d91a5c-5418-8075-8004-33f6da577494" cx="683" cy="1447" rx="51" ry="48" style="fill:#151515;"/><path id="fills-51d91a5c-5418-8075-8004-33f6da577496" d="M638.15,1486.55c-12.133,-12.133 -18.2,-27.067 -18.2,-44.8c0,-17.733 6.067,-32.667 18.2,-44.8c12.133,-12.133 27.067,-18.2 44.8,-18.2c17.733,0 32.667,6.067 44.8,18.2c12.133,12.133 18.2,27.067 18.2,44.8c0,17.733 -6.067,32.667 -18.2,44.8c-12.133,12.133 -27.067,18.2 -44.8,18.2c-17.733,0 -32.667,-6.067 -44.8,-18.2Zm21,-28.875l0,14l48.125,0l0,-15.05l-23.275,0l10.85,-7.175c8.05,-4.667 12.075,-10.675 12.075,-18.025c-0,-6.067 -2.188,-10.908 -6.563,-14.525c-4.375,-3.617 -10.179,-5.425 -17.412,-5.425c-7.117,0 -12.979,1.925 -17.588,5.775c-4.608,3.85 -6.912,9.333 -6.912,16.45l17.85,0c-0.117,-1.983 0.437,-3.646 1.662,-4.987c1.225,-1.342 2.946,-2.013 5.163,-2.013c1.867,0 3.354,0.467 4.462,1.4c1.109,0.933 1.663,2.158 1.663,3.675c-0,2.1 -1.225,4.025 -3.675,5.775l-26.425,20.125Z" style="fill:#efefef;fill-rule:nonzero;"/><ellipse id="fills-51d91a5c-5418-8075-8004-33f6da577497" cx="2927" cy="1456" rx="51" ry="48" style="fill:#151515;"/><path id="fills-51d91a5c-5418-8075-8004-33f6da577499" d="M2882.15,1495.55c-12.133,-12.133 -18.2,-27.067 -18.2,-44.8c-0,-17.733 6.067,-32.667 18.2,-44.8c12.133,-12.133 27.067,-18.2 44.8,-18.2c17.733,0 32.667,6.067 44.8,18.2c12.133,12.133 18.2,27.067 18.2,44.8c-0,17.733 -6.067,32.667 -18.2,44.8c-12.133,12.133 -27.067,18.2 -44.8,18.2c-17.733,0 -32.667,-6.067 -44.8,-18.2Zm21,-28.875l0,14l48.125,0l0,-15.05l-23.275,0l10.85,-7.175c8.05,-4.667 12.075,-10.675 12.075,-18.025c0,-6.067 -2.187,-10.908 -6.562,-14.525c-4.375,-3.617 -10.18,-5.425 -17.413,-5.425c-7.117,0 -12.979,1.925 -17.587,5.775c-4.609,3.85 -6.913,9.333 -6.913,16.45l17.85,0c-0.117,-1.983 0.438,-3.646 1.663,-4.987c1.225,-1.342 2.945,-2.013 5.162,-2.013c1.867,0 3.354,0.467 4.463,1.4c1.108,0.933 1.662,2.158 1.662,3.675c0,2.1 -1.225,4.025 -3.675,5.775l-26.425,20.125Z" style="fill:#efefef;fill-rule:nonzero;"/><ellipse id="fills-51d91a5c-5418-8075-8004-33f6da57749a" cx="974" cy="925" rx="51" ry="48" style="fill:#151515;"/><path id="fills-51d91a5c-5418-8075-8004-33f6da57749c" d="M925.15,971.55c-12.133,-12.133 -18.2,-27.067 -18.2,-44.8c0,-17.733 6.067,-32.667 18.2,-44.8c12.133,-12.133 27.067,-18.2 44.8,-18.2c17.733,-0 32.667,6.067 44.8,18.2c12.133,12.133 18.2,27.067 18.2,44.8c0,17.733 -6.067,32.667 -18.2,44.8c-12.133,12.133 -27.067,18.2 -44.8,18.2c-17.733,-0 -32.667,-6.067 -44.8,-18.2Zm38.5,-36.225l-17.675,1.925c0.467,6.65 2.829,11.608 7.088,14.875c4.258,3.267 9.887,4.9 16.887,4.9c7.117,0 12.892,-1.692 17.325,-5.075c4.433,-3.383 6.65,-8.108 6.65,-14.175c0,-8.4 -4.433,-14.233 -13.3,-17.5l11.2,-8.575l0,-14.875l-42.525,0l0,15.05l21,0l-9.8,7.175l0,12.775l7.175,0c5.717,0 8.575,1.692 8.575,5.075c0,1.517 -0.554,2.742 -1.663,3.675c-1.108,0.933 -2.595,1.4 -4.462,1.4c-4.317,0 -6.475,-2.217 -6.475,-6.65Z" style="fill:#efefef;fill-rule:nonzero;"/><ellipse id="fills-51d91a5c-5418-8075-8004-33f6da57749d" cx="2629" cy="925" rx="51" ry="48" style="fill:#151515;"/><path id="fills-51d91a5c-5418-8075-8004-33f6da57749f" d="M2580.15,971.55c-12.133,-12.133 -18.2,-27.067 -18.2,-44.8c-0,-17.733 6.067,-32.667 18.2,-44.8c12.133,-12.133 27.067,-18.2 44.8,-18.2c17.733,-0 32.667,6.067 44.8,18.2c12.133,12.133 18.2,27.067 18.2,44.8c-0,17.733 -6.067,32.667 -18.2,44.8c-12.133,12.133 -27.067,18.2 -44.8,18.2c-17.733,-0 -32.667,-6.067 -44.8,-18.2Zm38.5,-36.225l-17.675,1.925c0.467,6.65 2.829,11.608 7.088,14.875c4.258,3.267 9.887,4.9 16.887,4.9c7.117,0 12.892,-1.692 17.325,-5.075c4.433,-3.383 6.65,-8.108 6.65,-14.175c0,-8.4 -4.433,-14.233 -13.3,-17.5l11.2,-8.575l0,-14.875l-42.525,0l0,15.05l21,0l-9.8,7.175l0,12.775l7.175,0c5.717,0 8.575,1.692 8.575,5.075c0,1.517 -0.554,2.742 -1.662,3.675c-1.109,0.933 -2.596,1.4 -4.463,1.4c-4.317,0 -6.475,-2.217 -6.475,-6.65Z" style="fill:#efefef;fill-rule:nonzero;"/><ellipse id="fills-51d91a5c-5418-8075-8004-33f6da5774a0" cx="923" cy="711" rx="51" ry="48" style="fill:#151515;"/><path id="fills-51d91a5c-5418-8075-8004-33f6da5774a2" d="M876.15,754.55c-12.133,-12.133 -18.2,-27.067 -18.2,-44.8c0,-17.733 6.067,-32.667 18.2,-44.8c12.133,-12.133 27.067,-18.2 44.8,-18.2c17.733,-0 32.667,6.067 44.8,18.2c12.133,12.133 18.2,27.067 18.2,44.8c0,17.733 -6.067,32.667 -18.2,44.8c-12.133,12.133 -27.067,18.2 -44.8,18.2c-17.733,-0 -32.667,-6.067 -44.8,-18.2Zm14,-38.325l0,14.7l30.625,-0l0,8.75l16.8,-0l0,-8.75l6.825,-0l0,-14.7l-6.825,0l0,-36.4l-30.625,0l-16.8,36.4Zm30.625,0l-14.175,0l14.175,-30.45l0,30.45Z" style="fill:#efefef;fill-rule:nonzero;"/><ellipse id="fills-51d91a5c-5418-8075-8004-33f6da5774a3" cx="2659" cy="711" rx="51" ry="48" style="fill:#151515;"/><path id="fills-51d91a5c-5418-8075-8004-33f6da5774a5" d="M2612.15,754.55c-12.133,-12.133 -18.2,-27.067 -18.2,-44.8c-0,-17.733 6.067,-32.667 18.2,-44.8c12.133,-12.133 27.067,-18.2 44.8,-18.2c17.733,-0 32.667,6.067 44.8,18.2c12.133,12.133 18.2,27.067 18.2,44.8c-0,17.733 -6.067,32.667 -18.2,44.8c-12.133,12.133 -27.067,18.2 -44.8,18.2c-17.733,-0 -32.667,-6.067 -44.8,-18.2Zm14,-38.325l0,14.7l30.625,-0l0,8.75l16.8,-0l-0,-8.75l6.825,-0l0,-14.7l-6.825,0l-0,-36.4l-30.625,0l-16.8,36.4Zm30.625,0l-14.175,0l14.175,-30.45l0,30.45Z" style="fill:#efefef;fill-rule:nonzero;"/><ellipse id="fills-51d91a5c-5418-8075-8004-33f6da5774a6" cx="320" cy="715" rx="51" ry="48" style="fill:#151515;"/><path id="fills-51d91a5c-5418-8075-8004-33f6da5774a8" d="M272.15,750.55c-12.133,-12.133 -18.2,-27.067 -18.2,-44.8c0,-17.733 6.067,-32.667 18.2,-44.8c12.133,-12.133 27.067,-18.2 44.8,-18.2c17.733,-0 32.667,6.067 44.8,18.2c12.133,12.133 18.2,27.067 18.2,44.8c0,17.733 -6.067,32.667 -18.2,44.8c-12.133,12.133 -27.067,18.2 -44.8,18.2c-17.733,-0 -32.667,-6.067 -44.8,-18.2Zm38.325,-34.825l-17.675,1.925c0.817,6.067 3.325,10.646 7.525,13.738c4.2,3.091 9.742,4.637 16.625,4.637c7,0 12.833,-2.042 17.5,-6.125c4.667,-4.083 7,-9.275 7,-15.575c0,-5.133 -1.546,-9.304 -4.637,-12.512c-3.092,-3.209 -7.146,-4.813 -12.163,-4.813c-6.417,0 -11.142,2.625 -14.175,7.875l1.925,-14l24.325,0l0,-15.05l-37.45,0l-4.55,34.65l15.925,1.75c1.167,-2.917 3.325,-4.375 6.475,-4.375c1.983,0 3.558,0.583 4.725,1.75c1.167,1.167 1.75,2.742 1.75,4.725c0,2.1 -0.613,3.733 -1.837,4.9c-1.225,1.167 -2.83,1.75 -4.813,1.75c-1.75,0 -3.208,-0.496 -4.375,-1.487c-1.167,-0.992 -1.867,-2.246 -2.1,-3.763Z" style="fill:#efefef;fill-rule:nonzero;"/><ellipse id="fills-51d91a5c-5418-8075-8004-33f6da5774a9" cx="3264" cy="719" rx="51" ry="48" style="fill:#151515;"/><path id="fills-51d91a5c-5418-8075-8004-33f6da5774ab" d="M3216.15,754.55c-12.133,-12.133 -18.2,-27.067 -18.2,-44.8c-0,-17.733 6.067,-32.667 18.2,-44.8c12.133,-12.133 27.067,-18.2 44.8,-18.2c17.733,-0 32.667,6.067 44.8,18.2c12.133,12.133 18.2,27.067 18.2,44.8c-0,17.733 -6.067,32.667 -18.2,44.8c-12.133,12.133 -27.067,18.2 -44.8,18.2c-17.733,-0 -32.667,-6.067 -44.8,-18.2Zm38.325,-34.825l-17.675,1.925c0.817,6.067 3.325,10.646 7.525,13.738c4.2,3.091 9.742,4.637 16.625,4.637c7,0 12.833,-2.042 17.5,-6.125c4.667,-4.083 7,-9.275 7,-15.575c0,-5.133 -1.546,-9.304 -4.637,-12.512c-3.092,-3.209 -7.146,-4.813 -12.163,-4.813c-6.417,0 -11.142,2.625 -14.175,7.875l1.925,-14l24.325,0l0,-15.05l-37.45,0l-4.55,34.65l15.925,1.75c1.167,-2.917 3.325,-4.375 6.475,-4.375c1.983,0 3.558,0.583 4.725,1.75c1.167,1.167 1.75,2.742 1.75,4.725c0,2.1 -0.612,3.733 -1.837,4.9c-1.225,1.167 -2.83,1.75 -4.813,1.75c-1.75,0 -3.208,-0.496 -4.375,-1.487c-1.167,-0.992 -1.867,-2.246 -2.1,-3.763Z" style="fill:#efefef;fill-rule:nonzero;"/><ellipse id="fills-51d91a5c-5418-8075-8004-33f6da5774ac" cx="632" cy="208" rx="51" ry="48" style="fill:#151515;"/><path id="fills-51d91a5c-5418-8075-8004-33f6da5774ae" d="M584.15,247.55c-12.133,-12.133 -18.2,-27.067 -18.2,-44.8c0,-17.733 6.067,-32.667 18.2,-44.8c12.133,-12.133 27.067,-18.2 44.8,-18.2c17.733,0 32.667,6.067 44.8,18.2c12.133,12.133 18.2,27.067 18.2,44.8c0,17.733 -6.067,32.667 -18.2,44.8c-12.133,12.133 -27.067,18.2 -44.8,18.2c-17.733,0 -32.667,-6.067 -44.8,-18.2Zm20.3,-36.4c0,6.3 2.333,11.521 7,15.662c4.667,4.142 10.5,6.213 17.5,6.213c7,0 12.863,-2.1 17.588,-6.3c4.725,-4.2 7.087,-9.392 7.087,-15.575c0,-3.85 -0.904,-7.175 -2.712,-9.975c-1.809,-2.8 -4.025,-4.725 -6.65,-5.775c-2.625,-1.05 -5.425,-1.342 -8.4,-0.875c-2.975,0.467 -5.513,1.692 -7.613,3.675l15.575,-25.375l-19.775,-0l-14.7,24.5c-3.267,5.25 -4.9,9.858 -4.9,13.825Zm17.675,0.175c0,-1.983 0.642,-3.588 1.925,-4.813c1.283,-1.225 2.917,-1.837 4.9,-1.837c1.983,-0 3.617,0.612 4.9,1.837c1.283,1.225 1.925,2.83 1.925,4.813c0,1.867 -0.642,3.412 -1.925,4.637c-1.283,1.225 -2.917,1.838 -4.9,1.838c-1.983,0 -3.617,-0.613 -4.9,-1.838c-1.283,-1.225 -1.925,-2.77 -1.925,-4.637Z" style="fill:#efefef;fill-rule:nonzero;"/><ellipse id="fills-51d91a5c-5418-8075-8004-33f6da5774af" cx="2956" cy="209" rx="51" ry="48" style="fill:#151515;"/><path id="fills-51d91a5c-5418-8075-8004-33f6da5774b1" d="M2908.15,248.55c-12.133,-12.133 -18.2,-27.067 -18.2,-44.8c-0,-17.733 6.067,-32.667 18.2,-44.8c12.133,-12.133 27.067,-18.2 44.8,-18.2c17.733,0 32.667,6.067 44.8,18.2c12.133,12.133 18.2,27.067 18.2,44.8c-0,17.733 -6.067,32.667 -18.2,44.8c-12.133,12.133 -27.067,18.2 -44.8,18.2c-17.733,0 -32.667,-6.067 -44.8,-18.2Zm20.3,-36.4c-0,6.3 2.333,11.521 7,15.662c4.667,4.142 10.5,6.213 17.5,6.213c7,0 12.862,-2.1 17.587,-6.3c4.725,-4.2 7.088,-9.392 7.088,-15.575c-0,-3.85 -0.904,-7.175 -2.713,-9.975c-1.808,-2.8 -4.025,-4.725 -6.65,-5.775c-2.625,-1.05 -5.425,-1.342 -8.399,-0.875c-2.976,0.467 -5.513,1.692 -7.613,3.675l15.575,-25.375l-19.775,-0l-14.7,24.5c-3.267,5.25 -4.9,9.858 -4.9,13.825Zm17.675,0.175c-0,-1.983 0.642,-3.588 1.925,-4.813c1.283,-1.225 2.917,-1.837 4.9,-1.837c1.983,-0 3.617,0.612 4.9,1.837c1.283,1.225 1.925,2.83 1.925,4.813c-0,1.867 -0.642,3.412 -1.925,4.637c-1.283,1.225 -2.917,1.838 -4.9,1.838c-1.983,0 -3.617,-0.613 -4.9,-1.838c-1.283,-1.225 -1.925,-2.77 -1.925,-4.637Z" style="fill:#efefef;fill-rule:nonzero;"/><path d="M1930,1656l0,452m-284,0l0,-452" style="fill:none;fill-rule:nonzero;stroke:#b1b2b5;stroke-width:3px;"/><path d="M651.92,956.904l-222.657,138.464l71.594,200.161l-88.785,43.304l-92.623,-189.905l-88.827,-182.122l-96.039,-196.91l88.786,-43.303l117.067,186.653l250.747,-80.869l60.737,124.527Z" style="fill:none;fill-rule:nonzero;stroke:#b1b2b5;stroke-width:3px;"/><path d="M327.158,1196.67l47.344,97.07l23.369,-11.398l-47.345,-97.07l-23.368,11.398Z" style="fill:none;stroke:#b1b2b5;stroke-width:3px;"/><path d="M141.31,813.344l47.344,97.07l23.369,-11.398l-47.345,-97.07l-23.368,11.398Z" style="fill:none;stroke:#b1b2b5;stroke-width:3px;"/><path d="M2778.39,1016.9l222.656,138.464l-71.594,200.161l88.785,43.304l92.623,-189.905l88.827,-182.122l96.039,-196.91l-88.785,-43.303l-117.068,186.653l-250.747,-80.869l-60.736,124.527Z" style="fill:none;fill-rule:nonzero;stroke:#b1b2b5;stroke-width:3px;"/><path d="M3103.15,1256.67l-47.344,97.069l-23.368,-11.397l47.344,-97.07l23.368,11.398Z" style="fill:none;stroke:#b1b2b5;stroke-width:3px;"/><path d="M3289,873.343l-47.345,97.07l-23.368,-11.398l47.344,-97.07l23.369,11.398Z" style="fill:none;stroke:#b1b2b5;stroke-width:3px;"/><g><circle id="stroke-shape-render-40-51d91a5c-5418-8075-8004-33f6da577486-01" serif:id="stroke-shape-render-40-51d91a5c-5418-8075-8004-33f6da577486-0" cx="403.663" cy="1929.47" r="51.443" style="fill:none;stroke:#efefef;stroke-width:5.68px;"/><path id="fills-51d91a5c-5418-8075-8004-33f6da5774871" serif:id="fills-51d91a5c-5418-8075-8004-33f6da577487" d="M417.867,1949.36l-27.285,-0l0,-39.79l9.664,-0l-0,31.263l17.621,0l-0,8.527Z" style="fill:#efefef;fill-rule:nonzero;"/></g></g></svg>