<?xml version="1.0" encoding="UTF-8" standalone="no"?><!DOCTYPE svg PUBLIC "-//W3C//DTD SVG 1.1//EN" "http://www.w3.org/Graphics/SVG/1.1/DTD/svg11.dtd"><svg width="100%" height="100%" viewBox="0 0 14600 8784" version="1.1" xmlns="http://www.w3.org/2000/svg" xmlns:xlink="http://www.w3.org/1999/xlink" xml:space="preserve" xmlns:serif="http://www.serif.com/" style="fill-rule:evenodd;clip-rule:evenodd;"><g id="shape-51d91a5c-5418-8075-8004-33f6da577448"><rect id="fills-fc6c71bf-e049-8070-8004-4724a8e616fa" x="0" y="-8.333" width="14600" height="8783.33" style="fill:#151515;"/><circle cx="5228.02" cy="6039.69" r="259.268" style="fill:#151515;"/><path d="M2870.83,7000l0,1320.83c0,34.495 -28.005,62.5 -62.5,62.5l-2391.67,0c-34.495,0 -62.5,-28.005 -62.5,-62.5l-0,-1320.83c-0,-34.495 28.005,-62.5 62.5,-62.5l2391.67,0c34.495,0 62.5,28.005 62.5,62.5Z" style="fill:none;stroke:#bf82bb;stroke-width:25px;"/><path id="fills-51d91a5c-5418-8075-8004-33f6da577473" d="M855.05,8001.02c9.9,-0 18.15,3.825 24.75,11.475c6.6,7.65 9.9,17.125 9.9,28.425c0,11.3 -3.3,20.75 -9.9,28.35c-6.6,7.6 -14.85,11.4 -24.75,11.4c-7.2,-0 -13.475,-2.125 -18.825,-6.375c-5.35,-4.25 -9.225,-10.025 -11.625,-17.325l0,52.2l-15.75,-0l0,-106.65l15.75,-0l0,22.2c2.4,-7.3 6.275,-13.075 11.625,-17.325c5.35,-4.25 11.625,-6.375 18.825,-6.375Zm-5.25,65.1c6.6,-0 12.175,-2.425 16.725,-7.275c4.55,-4.85 6.825,-10.825 6.825,-17.925c-0,-7.2 -2.275,-13.225 -6.825,-18.075c-4.55,-4.85 -10.125,-7.275 -16.725,-7.275c-7.3,-0 -13.325,2.4 -18.075,7.2c-4.75,4.8 -7.125,10.85 -7.125,18.15c0,7.2 2.375,13.2 7.125,18c4.75,4.8 10.775,7.2 18.075,7.2Z" style="fill:#efefef;fill-rule:nonzero;"/><rect x="904.4" y="7968.17" width="15.75" height="111" style="fill:#efefef;fill-rule:nonzero;"/><path d="M969.35,8001.02c9.2,-0 16.7,2.4 22.5,7.2c5.8,4.8 8.7,11.7 8.7,20.7l0,50.25l-15.75,-0l0,-20.4c-4.7,14.6 -14.15,21.9 -28.35,21.9c-6.6,-0 -12.1,-1.975 -16.5,-5.925c-4.4,-3.95 -6.6,-9.125 -6.6,-15.525c0,-7.5 2.65,-13.125 7.95,-16.875c5.3,-3.75 12.05,-6.075 20.25,-6.975l14.85,-1.5c5.6,-0.5 8.4,-3 8.4,-7.5c0,-3.7 -1.425,-6.65 -4.275,-8.85c-2.85,-2.2 -6.575,-3.3 -11.175,-3.3c-4.7,-0 -8.675,1.2 -11.925,3.6c-3.25,2.4 -5.325,5.9 -6.225,10.5l-15.6,-3.75c1.4,-7.2 5.15,-12.925 11.25,-17.175c6.1,-4.25 13.6,-6.375 22.5,-6.375Zm-7.8,66.9c6.5,-0 12,-2.175 16.5,-6.525c4.5,-4.35 6.75,-9.425 6.75,-15.225l-0,-4.2c-1.2,2 -4.1,3.25 -8.7,3.75l-14.55,1.8c-3.8,0.5 -6.825,1.625 -9.075,3.375c-2.25,1.75 -3.375,4.125 -3.375,7.125c0,3 1.125,5.4 3.375,7.2c2.25,1.8 5.275,2.7 9.075,2.7Z" style="fill:#efefef;fill-rule:nonzero;"/><path d="M1060.7,8001.02c8.7,-0 15.8,3.05 21.3,9.15c5.5,6.1 8.25,13.85 8.25,23.25l0,45.75l-15.75,-0l0,-43.35c0,-5.9 -1.9,-10.775 -5.7,-14.625c-3.8,-3.85 -8.5,-5.775 -14.1,-5.775c-6.3,-0 -11.45,1.925 -15.45,5.775c-4,3.85 -6,8.725 -6,14.625l0,43.35l-15.75,-0l0,-76.65l15.75,-0l0,19.8c2.1,-6.6 5.575,-11.8 10.425,-15.6c4.85,-3.8 10.525,-5.7 17.025,-5.7Z" style="fill:#efefef;fill-rule:nonzero;"/><path d="M1144.25,8001.02c12.3,-0 22.3,4.4 30,13.2c7.7,8.8 10.85,19.45 9.45,31.95l-63.45,-0c1.1,6.2 3.95,11.225 8.55,15.075c4.6,3.85 10.15,5.775 16.65,5.775c5,-0 9.475,-1.225 13.425,-3.675c3.95,-2.45 7.025,-5.775 9.225,-9.975l13.2,5.85c-3.4,6.5 -8.25,11.7 -14.55,15.6c-6.3,3.9 -13.55,5.85 -21.75,5.85c-11.5,-0 -21.15,-3.8 -28.95,-11.4c-7.8,-7.6 -11.7,-17.05 -11.7,-28.35c0,-11.3 3.825,-20.775 11.475,-28.425c7.65,-7.65 17.125,-11.475 28.425,-11.475Zm0,13.65c-5.8,-0 -10.825,1.775 -15.075,5.325c-4.25,3.55 -7.075,8.175 -8.475,13.875l47.1,-0c-1.3,-5.7 -4.075,-10.325 -8.325,-13.875c-4.25,-3.55 -9.325,-5.325 -15.225,-5.325Z" style="fill:#efefef;fill-rule:nonzero;"/><path d="M1205.9,8016.47l-16.35,-0l-0,-13.95l16.35,-0l0,-24.9l15.75,-4.95l0,29.85l21.6,-0l0,13.95l-21.6,-0l0,35.4c0,4.7 1.05,8.1 3.15,10.2c2.1,2.1 5.45,3.15 10.05,3.15l8.4,-0l-0,13.95l-8.4,-0c-9.9,-0 -17.2,-2.3 -21.9,-6.9c-4.7,-4.6 -7.05,-11.65 -7.05,-21.15l0,-34.65Z" style="fill:#efefef;fill-rule:nonzero;"/><path id="fills-51d91a5c-5418-8075-8004-33f6da577474" d="M503.333,8152.5c-28.889,-28.889 -43.333,-64.444 -43.333,-106.667c0,-42.222 14.444,-77.777 43.333,-106.666c28.889,-28.889 64.445,-43.334 106.667,-43.334c42.222,0 77.778,14.445 106.667,43.334c28.889,28.889 43.333,64.444 43.333,106.666c0,42.223 -14.444,77.778 -43.333,106.667c-28.889,28.889 -64.445,43.333 -106.667,43.333c-42.222,0 -77.778,-14.444 -106.667,-43.333Zm55.417,-71.25l0,35.833l109.583,0l0,-35.833l-30.833,-0l0,-107.917l-78.75,20.417l0,36.25l37.5,-9.583l0,60.833l-37.5,-0Z" style="fill:#efefef;fill-rule:nonzero;"/><path id="fills-51d91a5c-5418-8075-8004-33f6da577476" d="M2054.18,8024.76l0,-56.55l15.75,-0l0,111l-15.75,-0l0,-22.2c-2.4,7.3 -6.275,13.075 -11.625,17.325c-5.35,4.25 -11.625,6.375 -18.825,6.375c-9.9,-0 -18.15,-3.8 -24.75,-11.4c-6.6,-7.6 -9.9,-17.05 -9.9,-28.35c0,-11.3 3.3,-20.775 9.9,-28.425c6.6,-7.65 14.85,-11.475 24.75,-11.475c7.2,-0 13.475,2.125 18.825,6.375c5.35,4.25 9.225,10.025 11.625,17.325Zm-25.2,41.4c7.3,-0 13.325,-2.4 18.075,-7.2c4.75,-4.8 7.125,-10.8 7.125,-18c0,-7.3 -2.375,-13.35 -7.125,-18.15c-4.75,-4.8 -10.775,-7.2 -18.075,-7.2c-6.6,-0 -12.2,2.425 -16.8,7.275c-4.6,4.85 -6.9,10.875 -6.9,18.075c0,7.1 2.3,13.075 6.9,17.925c4.6,4.85 10.2,7.275 16.8,7.275Z" style="fill:#efefef;fill-rule:nonzero;"/><path d="M2119.13,8001.06c9.2,-0 16.7,2.4 22.5,7.2c5.8,4.8 8.7,11.7 8.7,20.7l0,50.25l-15.75,-0l0,-20.4c-4.7,14.6 -14.15,21.9 -28.35,21.9c-6.6,-0 -12.1,-1.975 -16.5,-5.925c-4.4,-3.95 -6.6,-9.125 -6.6,-15.525c0,-7.5 2.65,-13.125 7.95,-16.875c5.3,-3.75 12.05,-6.075 20.25,-6.975l14.85,-1.5c5.6,-0.5 8.4,-3 8.4,-7.5c0,-3.7 -1.425,-6.65 -4.275,-8.85c-2.85,-2.2 -6.575,-3.3 -11.175,-3.3c-4.7,-0 -8.675,1.2 -11.925,3.6c-3.25,2.4 -5.325,5.9 -6.225,10.5l-15.6,-3.75c1.4,-7.2 5.15,-12.925 11.25,-17.175c6.1,-4.25 13.6,-6.375 22.5,-6.375Zm-7.8,66.9c6.5,-0 12,-2.175 16.5,-6.525c4.5,-4.35 6.75,-9.425 6.75,-15.225l0,-4.2c-1.2,2 -4.1,3.25 -8.7,3.75l-14.55,1.8c-3.8,0.5 -6.825,1.625 -9.075,3.375c-2.25,1.75 -3.375,4.125 -3.375,7.125c0,3 1.125,5.4 3.375,7.2c2.25,1.8 5.275,2.7 9.075,2.7Z" style="fill:#efefef;fill-rule:nonzero;"/><path d="M2258.18,8001.06c7.9,-0 14.375,3.05 19.425,9.15c5.05,6.1 7.575,13.85 7.575,23.25l0,45.75l-15.75,-0l0,-43.35c0,-5.9 -1.625,-10.775 -4.875,-14.625c-3.25,-3.85 -7.275,-5.775 -12.075,-5.775c-5.4,-0 -9.825,1.925 -13.275,5.775c-3.45,3.85 -5.175,8.725 -5.175,14.625l0,43.35l-15.75,-0l0,-43.35c0,-5.9 -1.6,-10.775 -4.8,-14.625c-3.2,-3.85 -7.2,-5.775 -12,-5.775c-5.4,-0 -9.825,1.925 -13.275,5.775c-3.45,3.85 -5.175,8.725 -5.175,14.625l0,43.35l-15.75,-0l0,-76.65l15.75,-0l0,18.75c2.1,-6.3 5.275,-11.25 9.525,-14.85c4.25,-3.6 9.225,-5.4 14.925,-5.4c6.1,-0 11.375,1.925 15.825,5.775c4.45,3.85 7.575,9.025 9.375,15.525c1.8,-6.5 4.975,-11.675 9.525,-15.525c4.55,-3.85 9.875,-5.775 15.975,-5.775Z" style="fill:#efefef;fill-rule:nonzero;"/><path d="M2333.63,8001.06c9.2,-0 16.7,2.4 22.5,7.2c5.8,4.8 8.7,11.7 8.7,20.7l0,50.25l-15.75,-0l0,-20.4c-4.7,14.6 -14.15,21.9 -28.35,21.9c-6.6,-0 -12.1,-1.975 -16.5,-5.925c-4.4,-3.95 -6.6,-9.125 -6.6,-15.525c0,-7.5 2.65,-13.125 7.95,-16.875c5.3,-3.75 12.05,-6.075 20.25,-6.975l14.85,-1.5c5.6,-0.5 8.4,-3 8.4,-7.5c0,-3.7 -1.425,-6.65 -4.275,-8.85c-2.85,-2.2 -6.575,-3.3 -11.175,-3.3c-4.7,-0 -8.675,1.2 -11.925,3.6c-3.25,2.4 -5.325,5.9 -6.225,10.5l-15.6,-3.75c1.4,-7.2 5.15,-12.925 11.25,-17.175c6.1,-4.25 13.6,-6.375 22.5,-6.375Zm-7.8,66.9c6.5,-0 12,-2.175 16.5,-6.525c4.5,-4.35 6.75,-9.425 6.75,-15.225l0,-4.2c-1.2,2 -4.1,3.25 -8.7,3.75l-14.55,1.8c-3.8,0.5 -6.825,1.625 -9.075,3.375c-2.25,1.75 -3.375,4.125 -3.375,7.125c0,3 1.125,5.4 3.375,7.2c2.25,1.8 5.275,2.7 9.075,2.7Z" style="fill:#efefef;fill-rule:nonzero;"/><path d="M2443.88,8024.31l0,-21.75l15.75,-0l0,68.4c0,11.3 -3.9,20.75 -11.7,28.35c-7.8,7.6 -17.45,11.4 -28.95,11.4c-8.1,-0 -15.325,-1.95 -21.675,-5.85c-6.35,-3.9 -11.125,-9.15 -14.325,-15.75l14.25,-7.05c2.1,4.4 5.025,7.875 8.775,10.425c3.75,2.55 8.075,3.825 12.975,3.825c7,-0 12.9,-2.425 17.7,-7.275c4.8,-4.85 7.2,-10.875 7.2,-18.075l0,-15c-2.5,7 -6.425,12.6 -11.775,16.8c-5.35,4.2 -11.575,6.3 -18.675,6.3c-9.9,-0 -18.15,-3.725 -24.75,-11.175c-6.6,-7.45 -9.9,-16.725 -9.9,-27.825c0,-11.1 3.3,-20.375 9.9,-27.825c6.6,-7.45 14.85,-11.175 24.75,-11.175c7.1,-0 13.35,2.1 18.75,6.3c5.4,4.2 9.3,9.85 11.7,16.95Zm-24.75,40.35c7.1,-0.001 13,-2.35 17.7,-7.051c4.7,-4.699 7.05,-10.549 7.05,-17.549c0,-7 -2.35,-12.825 -7.05,-17.475c-4.7,-4.65 -10.6,-6.975 -17.7,-6.975c-6.8,-0 -12.525,2.35 -17.175,7.05c-4.65,4.7 -6.975,10.5 -6.975,17.4c0,7 2.325,12.85 6.975,17.55c4.65,4.7 10.375,7.05 17.175,7.05Z" style="fill:#efefef;fill-rule:nonzero;"/><path d="M2514.23,8001.06c12.3,-0 22.3,4.4 30,13.2c7.7,8.8 10.85,19.45 9.45,31.95l-63.45,-0c1.1,6.2 3.95,11.225 8.55,15.075c4.6,3.85 10.15,5.775 16.65,5.775c5,-0 9.475,-1.225 13.425,-3.675c3.95,-2.45 7.025,-5.775 9.225,-9.975l13.2,5.85c-3.4,6.5 -8.25,11.7 -14.55,15.6c-6.3,3.9 -13.55,5.85 -21.75,5.85c-11.5,-0 -21.15,-3.8 -28.95,-11.4c-7.8,-7.6 -11.7,-17.05 -11.7,-28.35c0,-11.3 3.825,-20.775 11.475,-28.425c7.65,-7.65 17.125,-11.475 28.425,-11.475Zm0,13.65c-5.8,-0 -10.825,1.775 -15.075,5.325c-4.25,3.55 -7.075,8.175 -8.475,13.875l47.1,-0c-1.3,-5.7 -4.075,-10.325 -8.325,-13.875c-4.25,-3.55 -9.325,-5.325 -15.225,-5.325Z" style="fill:#efefef;fill-rule:nonzero;"/><path d="M2038.28,8181.01c9.9,-0 18.15,3.825 24.75,11.475c6.6,7.65 9.9,17.125 9.9,28.425c0,11.3 -3.3,20.75 -9.9,28.35c-6.6,7.6 -14.85,11.4 -24.75,11.4c-7.2,-0 -13.475,-2.125 -18.825,-6.375c-5.35,-4.25 -9.225,-10.025 -11.625,-17.325l0,22.2l-15.75,-0l0,-111l15.75,-0l0,56.55c2.4,-7.3 6.275,-13.075 11.625,-17.325c5.35,-4.25 11.625,-6.375 18.825,-6.375Zm-5.25,65.1c6.6,-0 12.175,-2.425 16.725,-7.275c4.55,-4.85 6.825,-10.825 6.825,-17.925c0,-7.2 -2.275,-13.225 -6.825,-18.075c-4.55,-4.85 -10.125,-7.275 -16.725,-7.275c-7.3,-0 -13.325,2.4 -18.075,7.2c-4.75,4.8 -7.125,10.85 -7.125,18.15c0,7.2 2.375,13.2 7.125,18c4.75,4.8 10.775,7.2 18.075,7.2Z" style="fill:#efefef;fill-rule:nonzero;"/><path d="M2086.13,8227.36l0,-44.85l15.75,-0l0,44.85c0,5.6 1.8,10.125 5.4,13.575c3.6,3.45 8.2,5.175 13.8,5.175c5.5,-0 10.05,-1.725 13.65,-5.175c3.6,-3.45 5.4,-7.976 5.4,-13.575l0,-44.85l15.75,-0l0,44.85c0,9.8 -3.275,17.8 -9.825,24c-6.55,6.2 -14.875,9.3 -24.975,9.3c-10.2,-0 -18.575,-3.1 -25.125,-9.3c-6.55,-6.2 -9.825,-14.2 -9.825,-24Z" style="fill:#efefef;fill-rule:nonzero;"/><path d="M2198.33,8259.16l-15.75,-0.001l0,-62.7l-16.35,0.001l0,-13.95l16.35,-0l0,-6.3c0,-9.5 2.35,-16.55 7.05,-21.15c4.7,-4.6 12,-6.9 21.9,-6.9l8.4,-0.001l0,13.95l-8.4,0.001c-4.6,-0.001 -7.95,1.05 -10.05,3.15c-2.1,2.1 -3.15,5.5 -3.15,10.2l0,7.05l35.55,-0l0,-6.3c0,-9.5 2.35,-16.55 7.05,-21.15c4.7,-4.6 12,-6.9 21.9,-6.9l8.4,-0.001l0,13.95l-8.4,0.001c-4.6,-0.001 -7.95,1.05 -10.05,3.15c-2.1,2.1 -3.15,5.5 -3.15,10.2l0,7.05l21.6,-0l0,13.949l-21.6,0.001l0,62.7l-15.75,-0.001l0,-62.7l-35.55,0.001l0,62.7Z" style="fill:#efefef;fill-rule:nonzero;"/><path d="M2375.63,8181.01c9.9,-0 18.15,3.825 24.75,11.475c6.6,7.65 9.9,17.125 9.9,28.425c0,11.3 -3.3,20.75 -9.9,28.35c-6.6,7.6 -14.85,11.4 -24.75,11.4c-7.2,-0 -13.475,-2.125 -18.825,-6.375c-5.35,-4.25 -9.225,-10.025 -11.625,-17.325l0,52.2l-15.75,-0l0,-106.65l15.75,-0l0,22.2c2.4,-7.3 6.275,-13.075 11.625,-17.325c5.35,-4.25 11.625,-6.375 18.825,-6.375Zm-5.25,65.1c6.6,-0 12.175,-2.425 16.725,-7.275c4.55,-4.85 6.825,-10.825 6.825,-17.925c0,-7.201 -2.275,-13.226 -6.825,-18.076c-4.55,-4.85 -10.125,-7.275 -16.725,-7.275c-7.3,0 -13.325,2.4 -18.075,7.2c-4.75,4.8 -7.125,10.85 -7.125,18.15c0,7.2 2.375,13.2 7.125,18c4.75,4.8 10.775,7.2 18.075,7.2Z" style="fill:#efefef;fill-rule:nonzero;"/><rect x="2424.98" y="8148.16" width="15.75" height="111" style="fill:#efefef;fill-rule:nonzero;"/><path d="M2489.93,8181.01c9.2,-0 16.7,2.4 22.5,7.2c5.8,4.8 8.7,11.7 8.7,20.7l0,50.249l-15.75,0.001l0,-20.4c-4.7,14.6 -14.15,21.899 -28.35,21.899c-6.6,0.001 -12.1,-1.975 -16.5,-5.924c-4.4,-3.95 -6.6,-9.125 -6.6,-15.525c0,-7.501 2.65,-13.126 7.95,-16.876c5.3,-3.749 12.05,-6.074 20.25,-6.974l14.85,-1.5c5.6,-0.5 8.4,-3 8.4,-7.5c0,-3.7 -1.425,-6.65 -4.275,-8.85c-2.85,-2.2 -6.575,-3.3 -11.175,-3.3c-4.7,-0.001 -8.675,1.2 -11.925,3.6c-3.25,2.399 -5.325,5.899 -6.225,10.499l-15.6,-3.749c1.4,-7.2 5.15,-12.925 11.25,-17.175c6.1,-4.25 13.6,-6.375 22.5,-6.375Zm-7.8,66.9c6.5,-0.001 12,-2.175 16.5,-6.525c4.5,-4.351 6.75,-9.426 6.75,-15.226l0,-4.2c-1.2,2.001 -4.1,3.251 -8.7,3.751l-14.55,1.8c-3.8,0.5 -6.825,1.625 -9.075,3.375c-2.25,1.75 -3.375,4.125 -3.375,7.125c0,3 1.125,5.4 3.375,7.2c2.25,1.8 5.275,2.7 9.075,2.7Z" style="fill:#efefef;fill-rule:nonzero;"/><path d="M2543.93,8196.46l-16.35,0.001l0,-13.95l16.35,-0l0,-24.9l15.75,-4.95l0,29.85l21.6,-0.001l0,13.95l-21.6,0l0,35.4c0,4.7 1.05,8.1 3.15,10.2c2.1,2.1 5.45,3.15 10.05,3.15l8.4,0l0,13.95l-8.4,0c-9.9,0 -17.2,-2.3 -21.9,-6.9c-4.7,-4.6 -7.05,-11.65 -7.05,-21.15l0,-34.65Z" style="fill:#efefef;fill-rule:nonzero;"/><path d="M2629.58,8181.01c12.3,-0 22.3,4.4 30,13.199c7.7,8.801 10.85,19.451 9.45,31.951l-63.45,-0c1.1,6.2 3.95,11.225 8.55,15.075c4.6,3.85 10.15,5.775 16.65,5.775c5,-0 9.475,-1.225 13.425,-3.675c3.95,-2.45 7.025,-5.775 9.225,-9.975l13.2,5.85c-3.4,6.499 -8.25,11.7 -14.55,15.6c-6.3,3.899 -13.55,5.85 -21.75,5.85c-11.5,-0.001 -21.15,-3.8 -28.95,-11.4c-7.8,-7.601 -11.7,-17.051 -11.7,-28.351c0,-11.299 3.825,-20.774 11.475,-28.424c7.65,-7.65 17.125,-11.475 28.425,-11.475Zm0,13.65c-5.8,-0 -10.825,1.775 -15.075,5.325c-4.25,3.55 -7.075,8.175 -8.475,13.875l47.1,-0c-1.3,-5.7 -4.075,-10.325 -8.325,-13.875c-4.25,-3.55 -9.325,-5.325 -15.225,-5.325Z" style="fill:#efefef;fill-rule:nonzero;"/><circle id="stroke-shape-render-13-51d91a5c-5418-8075-8004-33f6da57747a-0" cx="1702.08" cy="7969.6" r="227.083" style="fill:none;stroke:#efefef;stroke-width:41.67px;"/><path id="fills-51d91a5c-5418-8075-8004-33f6da57747b" d="M1762.73,8060.35l-116.5,0l0,-175l35.75,0l0,143.25l80.75,0l0,31.75Z" style="fill:#efefef;fill-rule:nonzero;"/><g id="fills-51d91a5c-5418-8075-8004-33f6da577470" transform="matrix(4.16667,0,0,4.16667,354.062,8587.55)"><g transform="matrix(36,0,0,36,0,0)"><path d="M0.189,-0.516l0,0.134c0.017,-0.063 0.043,-0.104 0.078,-0.125c0.035,-0.021 0.073,-0.024 0.115,-0.011l0,0.128c-0.054,-0.019 -0.1,-0.018 -0.137,0.003c-0.037,0.02 -0.056,0.053 -0.056,0.098l0,0.289l-0.135,0l0,-0.516l0.135,0Z" style="fill:#bf82bb;fill-rule:nonzero;"/></g><g transform="matrix(36,0,0,36,13.608,0)"><path d="M0.27,-0.526c0.065,0 0.118,0.017 0.159,0.051c0.041,0.034 0.061,0.084 0.061,0.149l-0,0.326l-0.135,0l-0,-0.128c-0.029,0.092 -0.088,0.138 -0.178,0.138c-0.042,0 -0.078,-0.014 -0.108,-0.041c-0.03,-0.027 -0.045,-0.063 -0.045,-0.107c-0,-0.097 0.066,-0.152 0.199,-0.166l0.084,-0.008c0.032,-0.002 0.048,-0.016 0.048,-0.041c-0,-0.019 -0.008,-0.034 -0.024,-0.045c-0.015,-0.011 -0.035,-0.017 -0.06,-0.017c-0.027,0 -0.049,0.007 -0.066,0.021c-0.017,0.013 -0.027,0.032 -0.032,0.057l-0.134,-0.03c0.007,-0.046 0.032,-0.084 0.073,-0.114c0.041,-0.03 0.094,-0.045 0.158,-0.045Zm-0.045,0.429c0.035,0 0.066,-0.012 0.091,-0.036c0.026,-0.024 0.039,-0.052 0.039,-0.083l-0,-0.013c-0.008,0.007 -0.023,0.012 -0.046,0.015l-0.087,0.01c-0.019,0.003 -0.035,0.009 -0.046,0.019c-0.011,0.009 -0.017,0.021 -0.017,0.036c-0,0.015 0.006,0.028 0.018,0.038c0.012,0.009 0.028,0.014 0.048,0.014Z" style="fill:#bf82bb;fill-rule:nonzero;"/></g><g transform="matrix(36,0,0,36,33.012,0)"><path d="M0.04,-0.659c0,-0.023 0.008,-0.042 0.024,-0.057c0.016,-0.016 0.035,-0.024 0.058,-0.024c0.022,0 0.041,0.008 0.057,0.024c0.016,0.015 0.024,0.034 0.024,0.057c0,0.022 -0.008,0.041 -0.024,0.057c-0.016,0.016 -0.035,0.024 -0.057,0.024c-0.023,0 -0.042,-0.008 -0.058,-0.024c-0.016,-0.016 -0.024,-0.035 -0.024,-0.057Zm0.149,0.659l-0.135,-0l0,-0.516l0.135,0l0,0.516Z" style="fill:#bf82bb;fill-rule:nonzero;"/></g><g transform="matrix(36,0,0,36,41.76,0)"><path d="M0.446,-0.371l0,-0.369l0.135,0l0,0.74l-0.135,-0l0,-0.145c-0.015,0.047 -0.04,0.085 -0.073,0.113c-0.033,0.028 -0.072,0.042 -0.117,0.042c-0.063,-0 -0.116,-0.026 -0.158,-0.077c-0.043,-0.051 -0.064,-0.115 -0.064,-0.191c0,-0.076 0.021,-0.14 0.064,-0.191c0.042,-0.051 0.095,-0.077 0.158,-0.077c0.045,0 0.084,0.014 0.117,0.042c0.033,0.028 0.058,0.066 0.073,0.113Zm-0.141,0.258c0.041,0 0.075,-0.014 0.102,-0.041c0.026,-0.027 0.039,-0.062 0.039,-0.104c0,-0.041 -0.013,-0.076 -0.039,-0.103c-0.027,-0.027 -0.061,-0.041 -0.102,-0.041c-0.036,0 -0.067,0.014 -0.092,0.042c-0.026,0.027 -0.039,0.061 -0.039,0.102c0,0.041 0.013,0.076 0.038,0.104c0.025,0.027 0.056,0.041 0.093,0.041Z" style="fill:#bf82bb;fill-rule:nonzero;"/></g><g transform="matrix(36,0,0,36,64.62,0)"><path d="M0.673,-0.526c0.052,0 0.094,0.02 0.126,0.06c0.033,0.04 0.049,0.091 0.049,0.153l-0,0.313l-0.135,0l-0,-0.289c-0,-0.033 -0.009,-0.061 -0.027,-0.082c-0.017,-0.021 -0.039,-0.032 -0.066,-0.032c-0.03,0 -0.055,0.011 -0.074,0.032c-0.019,0.021 -0.028,0.049 -0.028,0.082l-0,0.289l-0.135,-0l-0,-0.289c-0,-0.033 -0.009,-0.061 -0.027,-0.082c-0.017,-0.021 -0.039,-0.032 -0.065,-0.032c-0.03,0 -0.055,0.011 -0.074,0.032c-0.019,0.021 -0.028,0.049 -0.028,0.082l-0,0.289l-0.135,-0l-0,-0.516l0.135,0l-0,0.125c0.013,-0.042 0.034,-0.075 0.061,-0.099c0.028,-0.024 0.061,-0.036 0.098,-0.036c0.04,0 0.074,0.012 0.102,0.037c0.028,0.025 0.048,0.058 0.059,0.1c0.013,-0.042 0.034,-0.075 0.063,-0.1c0.029,-0.025 0.063,-0.037 0.101,-0.037Z" style="fill:#bf82bb;fill-rule:nonzero;"/></g><g transform="matrix(36,0,0,36,96.912,0)"><path d="M0.27,-0.526c0.065,0 0.118,0.017 0.159,0.051c0.041,0.034 0.061,0.084 0.061,0.149l-0,0.326l-0.135,0l-0,-0.128c-0.029,0.092 -0.088,0.138 -0.178,0.138c-0.042,0 -0.078,-0.014 -0.108,-0.041c-0.03,-0.027 -0.045,-0.063 -0.045,-0.107c-0,-0.097 0.066,-0.152 0.199,-0.166l0.084,-0.008c0.032,-0.002 0.048,-0.016 0.048,-0.041c-0,-0.019 -0.008,-0.034 -0.024,-0.045c-0.015,-0.011 -0.035,-0.017 -0.06,-0.017c-0.027,0 -0.049,0.007 -0.066,0.021c-0.017,0.013 -0.027,0.032 -0.032,0.057l-0.134,-0.03c0.007,-0.046 0.032,-0.084 0.073,-0.114c0.041,-0.03 0.094,-0.045 0.158,-0.045Zm-0.045,0.429c0.035,0 0.066,-0.012 0.091,-0.036c0.026,-0.024 0.039,-0.052 0.039,-0.083l-0,-0.013c-0.008,0.007 -0.023,0.012 -0.046,0.015l-0.087,0.01c-0.019,0.003 -0.035,0.009 -0.046,0.019c-0.011,0.009 -0.017,0.021 -0.017,0.036c-0,0.015 0.006,0.028 0.018,0.038c0.012,0.009 0.028,0.014 0.048,0.014Z" style="fill:#bf82bb;fill-rule:nonzero;"/></g><g transform="matrix(36,0,0,36,116.316,0)"><path d="M0.379,-0.526c0.064,0 0.117,0.026 0.159,0.077c0.042,0.051 0.063,0.115 0.063,0.191c0,0.076 -0.021,0.14 -0.063,0.191c-0.042,0.051 -0.095,0.077 -0.159,0.077c-0.045,0 -0.085,-0.014 -0.117,-0.042c-0.034,-0.029 -0.058,-0.067 -0.073,-0.116l0,0.348l-0.135,0l0,-0.716l0.135,0l0,0.148c0.015,-0.049 0.04,-0.087 0.073,-0.115c0.032,-0.029 0.072,-0.043 0.117,-0.043Zm-0.049,0.413c0.037,-0 0.068,-0.014 0.093,-0.042c0.025,-0.027 0.038,-0.062 0.038,-0.103c0,-0.041 -0.013,-0.075 -0.038,-0.102c-0.025,-0.028 -0.056,-0.042 -0.093,-0.042c-0.041,0 -0.074,0.014 -0.101,0.041c-0.027,0.027 -0.04,0.062 -0.04,0.103c-0,0.041 0.013,0.076 0.04,0.104c0.027,0.027 0.06,0.041 0.101,0.041Z" style="fill:#bf82bb;fill-rule:nonzero;"/></g><g transform="matrix(36,0,0,36,139.176,0)"><path d="M0.024,-0.139l0.135,-0.028c0.006,0.047 0.037,0.07 0.092,0.07c0.027,-0 0.049,-0.005 0.066,-0.016c0.017,-0.01 0.025,-0.023 0.025,-0.038c0,-0.015 -0.008,-0.026 -0.023,-0.035c-0.015,-0.009 -0.033,-0.014 -0.055,-0.017c-0.023,-0.003 -0.047,-0.007 -0.074,-0.013c-0.026,-0.006 -0.05,-0.013 -0.073,-0.022c-0.022,-0.009 -0.041,-0.024 -0.056,-0.045c-0.014,-0.021 -0.022,-0.048 -0.022,-0.08c-0,-0.047 0.02,-0.085 0.061,-0.116c0.04,-0.032 0.09,-0.047 0.151,-0.047c0.061,0 0.111,0.013 0.15,0.041c0.039,0.027 0.063,0.063 0.07,0.108l-0.134,0.028c-0.007,-0.047 -0.035,-0.07 -0.086,-0.07c-0.022,0 -0.04,0.005 -0.054,0.014c-0.015,0.009 -0.022,0.021 -0.022,0.036c0,0.015 0.008,0.027 0.022,0.036c0.015,0.009 0.034,0.014 0.056,0.017c0.023,0.003 0.047,0.007 0.074,0.013c0.026,0.007 0.05,0.014 0.073,0.023c0.022,0.009 0.04,0.024 0.055,0.045c0.016,0.022 0.023,0.049 0.023,0.082c0,0.046 -0.022,0.085 -0.066,0.116c-0.044,0.031 -0.098,0.047 -0.161,0.047c-0.063,-0 -0.115,-0.014 -0.156,-0.041c-0.04,-0.027 -0.064,-0.063 -0.071,-0.108Z" style="fill:#bf82bb;fill-rule:nonzero;"/></g><g transform="matrix(36,0,0,36,157.248,0)"><path d="M0.04,-0.08c0,-0.025 0.009,-0.047 0.026,-0.064c0.017,-0.017 0.039,-0.026 0.064,-0.026c0.024,0 0.045,0.009 0.063,0.026c0.017,0.018 0.026,0.039 0.026,0.064c0,0.023 -0.009,0.044 -0.026,0.062c-0.018,0.018 -0.039,0.027 -0.063,0.027c-0.025,0 -0.046,-0.009 -0.064,-0.026c-0.017,-0.018 -0.026,-0.039 -0.026,-0.063Z" style="fill:#bf82bb;fill-rule:nonzero;"/></g><g transform="matrix(36,0,0,36,165.636,0)"><path d="M0.446,-0.375l0,-0.141l0.135,0l0,0.458c0,0.076 -0.026,0.14 -0.079,0.191c-0.053,0.051 -0.118,0.077 -0.197,0.077c-0.053,-0 -0.101,-0.013 -0.143,-0.038c-0.042,-0.025 -0.074,-0.059 -0.097,-0.101l0.121,-0.064c0.026,0.053 0.066,0.08 0.119,0.08c0.039,0 0.073,-0.014 0.1,-0.041c0.027,-0.027 0.041,-0.062 0.041,-0.104l0,-0.099c-0.015,0.046 -0.04,0.083 -0.073,0.11c-0.033,0.027 -0.072,0.041 -0.117,0.041c-0.063,-0 -0.116,-0.025 -0.159,-0.075c-0.042,-0.049 -0.063,-0.111 -0.063,-0.185c0,-0.074 0.021,-0.136 0.064,-0.186c0.042,-0.049 0.095,-0.074 0.158,-0.074c0.045,0 0.084,0.014 0.117,0.041c0.033,0.027 0.058,0.064 0.073,0.11Zm-0.137,0.246c0.039,0 0.072,-0.013 0.098,-0.039c0.026,-0.026 0.039,-0.059 0.039,-0.098c0,-0.039 -0.013,-0.072 -0.039,-0.097c-0.026,-0.026 -0.059,-0.039 -0.098,-0.039c-0.038,0 -0.07,0.013 -0.096,0.039c-0.026,0.026 -0.039,0.058 -0.039,0.097c-0,0.039 0.013,0.071 0.039,0.098c0.026,0.026 0.058,0.039 0.096,0.039Z" style="fill:#bf82bb;fill-rule:nonzero;"/></g><g transform="matrix(36,0,0,36,188.496,0)"><path d="M0.446,-0.375l0,-0.141l0.135,0l0,0.458c0,0.076 -0.026,0.14 -0.079,0.191c-0.053,0.051 -0.118,0.077 -0.197,0.077c-0.053,-0 -0.101,-0.013 -0.143,-0.038c-0.042,-0.025 -0.074,-0.059 -0.097,-0.101l0.121,-0.064c0.026,0.053 0.066,0.08 0.119,0.08c0.039,0 0.073,-0.014 0.1,-0.041c0.027,-0.027 0.041,-0.062 0.041,-0.104l0,-0.099c-0.015,0.046 -0.04,0.083 -0.073,0.11c-0.033,0.027 -0.072,0.041 -0.117,0.041c-0.063,-0 -0.116,-0.025 -0.159,-0.075c-0.042,-0.049 -0.063,-0.111 -0.063,-0.185c0,-0.074 0.021,-0.136 0.064,-0.186c0.042,-0.049 0.095,-0.074 0.158,-0.074c0.045,0 0.084,0.014 0.117,0.041c0.033,0.027 0.058,0.064 0.073,0.11Zm-0.137,0.246c0.039,0 0.072,-0.013 0.098,-0.039c0.026,-0.026 0.039,-0.059 0.039,-0.098c0,-0.039 -0.013,-0.072 -0.039,-0.097c-0.026,-0.026 -0.059,-0.039 -0.098,-0.039c-0.038,0 -0.07,0.013 -0.096,0.039c-0.026,0.026 -0.039,0.058 -0.039,0.097c-0,0.039 0.013,0.071 0.039,0.098c0.026,0.026 0.058,0.039 0.096,0.039Z" style="fill:#bf82bb;fill-rule:nonzero;"/></g><rect x="0" y="4.5" width="211.356" height="1.8" style="fill:#bf82bb;"/></g><path d="M1272.29,8602.55l-20.25,-0l35.55,-135l20.25,-0l-35.55,135Z" style="fill:#bf82bb;fill-rule:nonzero;"/><path d="M1331.69,8510.15l-0,20.1c2.5,-9.4 6.375,-15.65 11.625,-18.75c5.25,-3.1 11.025,-3.65 17.325,-1.65l-0,19.2c-8.1,-2.8 -14.95,-2.675 -20.55,0.375c-5.6,3.05 -8.4,7.975 -8.4,14.775l-0,43.35l-20.25,-0l-0,-77.4l20.25,-0Z" style="fill:#bf82bb;fill-rule:nonzero;"/><path d="M1374.74,8577.5c-7.9,-7.7 -11.85,-17.25 -11.85,-28.65c-0,-11.4 3.95,-20.95 11.85,-28.65c7.9,-7.7 17.75,-11.55 29.55,-11.55c11.8,-0 21.65,3.85 29.55,11.55c7.9,7.7 11.85,17.25 11.85,28.65c-0,11.4 -3.95,20.95 -11.85,28.65c-7.9,7.7 -17.75,11.55 -29.55,11.55c-11.8,-0 -21.65,-3.85 -29.55,-11.55Zm9.15,-28.65c-0,6.2 1.95,11.375 5.85,15.525c3.9,4.15 8.75,6.225 14.55,6.225c5.8,-0 10.65,-2.075 14.55,-6.225c3.9,-4.15 5.85,-9.325 5.85,-15.525c-0,-6.2 -1.95,-11.35 -5.85,-15.45c-3.9,-4.1 -8.75,-6.15 -14.55,-6.15c-5.8,-0 -10.65,2.075 -14.55,6.225c-3.9,4.15 -5.85,9.275 -5.85,15.375Z" style="fill:#bf82bb;fill-rule:nonzero;"/><path d="M1467.44,8577.5c-7.9,-7.7 -11.85,-17.25 -11.85,-28.65c-0,-11.4 3.95,-20.95 11.85,-28.65c7.9,-7.7 17.75,-11.55 29.55,-11.55c11.8,-0 21.65,3.85 29.55,11.55c7.9,7.7 11.85,17.25 11.85,28.65c-0,11.4 -3.95,20.95 -11.85,28.65c-7.9,7.7 -17.75,11.55 -29.55,11.55c-11.8,-0 -21.65,-3.85 -29.55,-11.55Zm9.15,-28.65c-0,6.2 1.95,11.375 5.85,15.525c3.9,4.15 8.75,6.225 14.55,6.225c5.8,-0 10.65,-2.075 14.55,-6.225c3.9,-4.15 5.85,-9.325 5.85,-15.525c-0,-6.2 -1.95,-11.35 -5.85,-15.45c-3.9,-4.1 -8.75,-6.15 -14.55,-6.15c-5.8,-0 -10.65,2.075 -14.55,6.225c-3.9,4.15 -5.85,9.275 -5.85,15.375Z" style="fill:#bf82bb;fill-rule:nonzero;"/><path d="M1558.04,8528l-15.6,-0l-0,-17.85l15.6,-0l-0,-22.8l20.25,-6.3l-0,29.1l20.1,-0l-0,17.85l-20.1,-0l-0,30.75c-0,7.3 3.65,10.95 10.95,10.95l9.15,-0l-0,17.85l-9.15,-0c-10.6,-0 -18.45,-2.475 -23.55,-7.425c-5.1,-4.95 -7.65,-12.475 -7.65,-22.575l-0,-29.55Z" style="fill:#bf82bb;fill-rule:nonzero;"/><rect x="1604.99" y="8589.05" width="74.4" height="17.85" style="fill:#bf82bb;fill-rule:nonzero;"/><path d="M1697.84,8577.5c-7.9,-7.7 -11.85,-17.25 -11.85,-28.65c-0,-11.4 3.95,-20.95 11.85,-28.65c7.9,-7.7 17.75,-11.55 29.55,-11.55c11.8,-0 21.65,3.85 29.55,11.55c7.9,7.7 11.85,17.25 11.85,28.65c-0,11.4 -3.95,20.95 -11.85,28.65c-7.9,7.7 -17.75,11.55 -29.55,11.55c-11.8,-0 -21.65,-3.85 -29.55,-11.55Zm9.15,-28.65c-0,6.2 1.95,11.375 5.85,15.525c3.9,4.15 8.75,6.225 14.55,6.225c5.8,-0 10.65,-2.075 14.55,-6.225c3.9,-4.15 5.85,-9.325 5.85,-15.525c-0,-6.2 -1.95,-11.35 -5.85,-15.45c-3.9,-4.1 -8.75,-6.15 -14.55,-6.15c-5.8,-0 -10.65,2.075 -14.55,6.225c-3.9,4.15 -5.85,9.275 -5.85,15.375Z" style="fill:#bf82bb;fill-rule:nonzero;"/><path d="M1810.64,8587.55l-20.25,-0l-0,-59.55l-15.6,-0l-0,-17.85l15.6,-0l-0,-3.6c-0,-10.1 2.55,-17.625 7.65,-22.575c5.1,-4.95 12.95,-7.425 23.55,-7.425l9.15,-0l-0,17.85l-9.15,-0c-7.3,-0 -10.95,3.65 -10.95,10.95l-0,4.8l20.1,-0l-0,17.85l-20.1,-0l-0,59.55Z" style="fill:#bf82bb;fill-rule:nonzero;"/><rect x="1835.84" y="8589.05" width="74.4" height="17.85" style="fill:#bf82bb;fill-rule:nonzero;"/><path d="M1966.79,8508.65c8.6,-0 15.525,3 20.775,9c5.25,6 7.875,13.65 7.875,22.95l-0,46.95l-20.25,-0l-0,-43.35c-0,-5 -1.6,-9.1 -4.8,-12.3c-3.2,-3.2 -7.2,-4.8 -12,-4.8c-5.4,-0 -9.8,1.6 -13.2,4.8c-3.4,3.2 -5.1,7.3 -5.1,12.3l-0,43.35l-20.25,-0l-0,-77.4l20.25,-0l-0,19.8c2,-6.6 5.375,-11.8 10.125,-15.6c4.75,-3.8 10.275,-5.7 16.575,-5.7Z" style="fill:#bf82bb;fill-rule:nonzero;"/><path d="M2008.94,8488.7c-0,-3.4 1.2,-6.275 3.6,-8.625c2.4,-2.35 5.3,-3.525 8.7,-3.525c3.3,-0 6.15,1.175 8.55,3.525c2.4,2.35 3.6,5.225 3.6,8.625c-0,3.3 -1.2,6.15 -3.6,8.55c-2.4,2.4 -5.25,3.6 -8.55,3.6c-3.4,-0 -6.3,-1.2 -8.7,-3.6c-2.4,-2.4 -3.6,-5.25 -3.6,-8.55Zm22.35,98.85l-20.25,-0l-0,-77.4l20.25,-0l-0,77.4Z" style="fill:#bf82bb;fill-rule:nonzero;"/><path d="M2106.29,8531.3l-0,-21.15l20.25,-0l-0,68.7c-0,11.4 -3.95,20.95 -11.85,28.65c-7.9,7.7 -17.75,11.55 -29.55,11.55c-8,-0 -15.15,-1.9 -21.45,-5.7c-6.3,-3.8 -11.15,-8.85 -14.55,-15.15l18.15,-9.6c3.9,8 9.85,12 17.85,12c5.9,-0 10.9,-2.05 15,-6.15c4.1,-4.1 6.15,-9.3 6.15,-15.6l-0,-14.85c-2.3,6.9 -5.95,12.4 -10.95,16.5c-5,4.1 -10.85,6.15 -17.55,6.15c-9.5,-0 -17.425,-3.725 -23.775,-11.175c-6.35,-7.45 -9.525,-16.725 -9.525,-27.825c-0,-11.1 3.175,-20.375 9.525,-27.825c6.35,-7.45 14.275,-11.175 23.775,-11.175c6.7,-0 12.55,2.05 17.55,6.15c5,4.1 8.65,9.6 10.95,16.5Zm-20.55,36.9c5.9,-0 10.8,-1.95 14.7,-5.85c3.9,-3.9 5.85,-8.8 5.85,-14.7c-0,-5.9 -1.95,-10.775 -5.85,-14.625c-3.9,-3.85 -8.8,-5.775 -14.7,-5.775c-5.7,-0 -10.5,1.95 -14.4,5.85c-3.9,3.9 -5.85,8.75 -5.85,14.55c-0,5.8 1.95,10.675 5.85,14.625c3.9,3.95 8.7,5.925 14.4,5.925Z" style="fill:#bf82bb;fill-rule:nonzero;"/><path d="M2189.69,8508.65c8.6,-0 15.525,3 20.775,9c5.25,6 7.875,13.65 7.875,22.95l-0,46.95l-20.25,-0l-0,-43.35c-0,-5 -1.6,-9.1 -4.8,-12.3c-3.2,-3.2 -7.2,-4.8 -12,-4.8c-5.4,-0 -9.8,1.6 -13.2,4.8c-3.4,3.2 -5.1,7.3 -5.1,12.3l-0,43.35l-20.25,-0l-0,-111l20.25,-0l-0,53.4c2,-6.6 5.375,-11.8 10.125,-15.6c4.75,-3.8 10.275,-5.7 16.575,-5.7Z" style="fill:#bf82bb;fill-rule:nonzero;"/><path d="M2239.79,8528l-15.6,-0l-0,-17.85l15.6,-0l-0,-22.8l20.25,-6.3l-0,29.1l20.1,-0l-0,17.85l-20.1,-0l-0,30.75c-0,7.3 3.65,10.95 10.95,10.95l9.15,-0l-0,17.85l-9.15,-0c-10.6,-0 -18.45,-2.475 -23.55,-7.425c-5.1,-4.95 -7.65,-12.475 -7.65,-22.575l-0,-29.55Z" style="fill:#bf82bb;fill-rule:nonzero;"/><path d="M2386.19,8508.65c7.8,-0 14.125,3 18.975,9c4.85,6 7.275,13.65 7.275,22.95l-0,46.95l-20.25,-0l-0,-43.35c-0,-5 -1.325,-9.1 -3.975,-12.3c-2.65,-3.2 -5.975,-4.8 -9.975,-4.8c-4.5,-0 -8.175,1.6 -11.025,4.8c-2.85,3.2 -4.275,7.3 -4.275,12.3l-0,43.35l-20.25,-0l-0,-43.35c-0,-5 -1.325,-9.1 -3.975,-12.3c-2.65,-3.2 -5.925,-4.8 -9.825,-4.8c-4.5,-0 -8.175,1.6 -11.025,4.8c-2.85,3.2 -4.275,7.3 -4.275,12.3l-0,43.35l-20.25,-0l-0,-77.4l20.25,-0l-0,18.75c2,-6.3 5.075,-11.25 9.225,-14.85c4.15,-3.6 9.025,-5.4 14.625,-5.4c6,-0 11.1,1.85 15.3,5.55c4.2,3.7 7.15,8.7 8.85,15c1.9,-6.3 5.05,-11.3 9.45,-15c4.4,-3.7 9.45,-5.55 15.15,-5.55Z" style="fill:#bf82bb;fill-rule:nonzero;"/><path d="M2460.29,8508.65c9.8,-0 17.75,2.55 23.85,7.65c6.1,5.1 9.15,12.55 9.15,22.35l-0,48.9l-20.25,-0l-0,-19.2c-4.3,13.8 -13.2,20.7 -26.7,20.7c-6.3,-0 -11.7,-2.05 -16.2,-6.15c-4.5,-4.1 -6.75,-9.45 -6.75,-16.05c-0,-14.5 9.95,-22.8 29.85,-24.9l12.6,-1.2c4.8,-0.3 7.2,-2.35 7.2,-6.15c-0,-2.8 -1.175,-5.05 -3.525,-6.75c-2.35,-1.7 -5.375,-2.55 -9.075,-2.55c-4,-0 -7.275,1.025 -9.825,3.075c-2.55,2.05 -4.175,4.925 -4.875,8.625l-20.1,-4.5c1.1,-6.9 4.75,-12.6 10.95,-17.1c6.2,-4.5 14.1,-6.75 23.7,-6.75Zm-6.75,64.35c5.3,-0 9.875,-1.8 13.725,-5.4c3.85,-3.6 5.775,-7.75 5.775,-12.45l-0,-1.95c-1.2,1.1 -3.5,1.85 -6.9,2.25l-13.05,1.5c-2.9,0.4 -5.2,1.325 -6.9,2.775c-1.7,1.45 -2.55,3.275 -2.55,5.475c-0,2.3 0.9,4.175 2.7,5.625c1.8,1.45 4.2,2.175 7.2,2.175Z" style="fill:#bf82bb;fill-rule:nonzero;"/><path d="M2528.99,8510.15l-0,20.1c2.5,-9.4 6.375,-15.65 11.625,-18.75c5.25,-3.1 11.025,-3.65 17.325,-1.65l-0,19.2c-8.1,-2.8 -14.95,-2.675 -20.55,0.375c-5.6,3.05 -8.4,7.975 -8.4,14.775l-0,43.35l-20.25,-0l-0,-77.4l20.25,-0Z" style="fill:#bf82bb;fill-rule:nonzero;"/><path d="M2600.84,8508.65c13,-0 23.425,4.675 31.275,14.025c7.85,9.35 10.725,20.475 8.625,33.375l-59.7,-0c1.4,4.7 3.975,8.475 7.725,11.325c3.75,2.85 8.225,4.275 13.425,4.275c8.8,-0 15.2,-3.6 19.2,-10.8l16.65,7.5c-3.5,6.3 -8.425,11.325 -14.775,15.075c-6.35,3.75 -13.575,5.625 -21.675,5.625c-11.8,-0 -21.65,-3.85 -29.55,-11.55c-7.9,-7.7 -11.85,-17.25 -11.85,-28.65c-0,-11.4 3.9,-20.95 11.7,-28.65c7.8,-7.7 17.45,-11.55 28.95,-11.55Zm-0,17.4c-4.5,-0 -8.525,1.325 -12.075,3.975c-3.55,2.65 -6.025,6.175 -7.425,10.575l39.15,-0c-1.4,-4.4 -3.85,-7.925 -7.35,-10.575c-3.5,-2.65 -7.6,-3.975 -12.3,-3.975Z" style="fill:#bf82bb;fill-rule:nonzero;"/><path d="M2650.19,8566.7l20.25,-4.2c0.9,7 5.5,10.5 13.8,10.5c4.1,-0 7.4,-0.775 9.9,-2.325c2.5,-1.55 3.75,-3.475 3.75,-5.775c-0,-2.2 -1.125,-3.95 -3.375,-5.25c-2.25,-1.3 -5.05,-2.15 -8.4,-2.55c-3.35,-0.4 -7,-1.05 -10.95,-1.95c-3.95,-0.9 -7.6,-2 -10.95,-3.3c-3.35,-1.3 -6.15,-3.55 -8.4,-6.75c-2.25,-3.2 -3.375,-7.2 -3.375,-12c-0,-7 3.025,-12.825 9.075,-17.475c6.05,-4.65 13.625,-6.975 22.725,-6.975c9.1,-0 16.6,2.025 22.5,6.075c5.9,4.05 9.4,9.475 10.5,16.275l-20.1,4.2c-1,-7 -5.3,-10.5 -12.9,-10.5c-3.3,-0 -6.025,0.7 -8.175,2.1c-2.15,1.4 -3.225,3.2 -3.225,5.4c-0,2.3 1.125,4.1 3.375,5.4c2.25,1.3 5.05,2.15 8.4,2.55c3.35,0.4 7,1.075 10.95,2.025c3.95,0.95 7.6,2.075 10.95,3.375c3.35,1.3 6.15,3.575 8.4,6.825c2.25,3.25 3.375,7.325 3.375,12.225c-0,6.9 -3.3,12.7 -9.9,17.4c-6.6,4.7 -14.65,7.05 -24.15,7.05c-9.5,-0 -17.275,-2.025 -23.325,-6.075c-6.05,-4.05 -9.625,-9.475 -10.725,-16.275Z" style="fill:#bf82bb;fill-rule:nonzero;"/><path d="M2740.64,8602.55l-20.25,-0l35.55,-135l20.25,-0l-35.55,135Z" style="fill:#bf82bb;fill-rule:nonzero;"/><path d="M2872.64,8508.65c7.8,-0 14.125,3 18.975,9c4.85,6 7.275,13.65 7.275,22.95l-0,46.95l-20.25,-0l-0,-43.35c-0,-5 -1.325,-9.1 -3.975,-12.3c-2.65,-3.2 -5.975,-4.8 -9.975,-4.8c-4.5,-0 -8.175,1.6 -11.025,4.8c-2.85,3.2 -4.275,7.3 -4.275,12.3l-0,43.35l-20.25,-0l-0,-43.35c-0,-5 -1.325,-9.1 -3.975,-12.3c-2.65,-3.2 -5.925,-4.8 -9.825,-4.8c-4.5,-0 -8.175,1.6 -11.025,4.8c-2.85,3.2 -4.275,7.3 -4.275,12.3l-0,43.35l-20.25,-0l-0,-77.4l20.25,-0l-0,18.75c2,-6.3 5.075,-11.25 9.225,-14.85c4.15,-3.6 9.025,-5.4 14.625,-5.4c6,-0 11.1,1.85 15.3,5.55c4.2,3.7 7.15,8.7 8.85,15c1.9,-6.3 5.05,-11.3 9.45,-15c4.4,-3.7 9.45,-5.55 15.15,-5.55Z" style="fill:#bf82bb;fill-rule:nonzero;"/><path d="M2946.74,8508.65c9.8,-0 17.75,2.55 23.85,7.65c6.1,5.1 9.15,12.55 9.15,22.35l-0,48.9l-20.25,-0l-0,-19.2c-4.3,13.8 -13.2,20.7 -26.7,20.7c-6.3,-0 -11.7,-2.05 -16.2,-6.15c-4.5,-4.1 -6.75,-9.45 -6.75,-16.05c-0,-14.5 9.95,-22.8 29.85,-24.9l12.6,-1.2c4.8,-0.3 7.2,-2.35 7.2,-6.15c-0,-2.8 -1.175,-5.05 -3.525,-6.75c-2.35,-1.7 -5.375,-2.55 -9.075,-2.55c-4,-0 -7.275,1.025 -9.825,3.075c-2.55,2.05 -4.175,4.925 -4.875,8.625l-20.1,-4.5c1.1,-6.9 4.75,-12.6 10.95,-17.1c6.2,-4.5 14.1,-6.75 23.7,-6.75Zm-6.75,64.35c5.3,-0 9.875,-1.8 13.725,-5.4c3.85,-3.6 5.775,-7.75 5.775,-12.45l-0,-1.95c-1.2,1.1 -3.5,1.85 -6.9,2.25l-13.05,1.5c-2.9,0.4 -5.2,1.325 -6.9,2.775c-1.7,1.45 -2.55,3.275 -2.55,5.475c-0,2.3 0.9,4.175 2.7,5.625c1.8,1.45 4.2,2.175 7.2,2.175Z" style="fill:#bf82bb;fill-rule:nonzero;"/><path d="M3004.04,8577.5c-7.9,-7.7 -11.85,-17.25 -11.85,-28.65c-0,-11.4 3.95,-20.95 11.85,-28.65c7.9,-7.7 17.75,-11.55 29.55,-11.55c8.3,-0 15.75,2.15 22.35,6.45c6.6,4.3 11.55,10.35 14.85,18.15l-18.6,6.45c-1.7,-4 -4.2,-7.075 -7.5,-9.225c-3.3,-2.15 -7,-3.225 -11.1,-3.225c-5.8,-0 -10.65,2.075 -14.55,6.225c-3.9,4.15 -5.85,9.275 -5.85,15.375c-0,6.2 1.95,11.375 5.85,15.525c3.9,4.15 8.75,6.225 14.55,6.225c4.1,-0 7.8,-1.1 11.1,-3.3c3.3,-2.2 5.8,-5.3 7.5,-9.3l18.6,6.45c-3.3,7.8 -8.25,13.85 -14.85,18.15c-6.6,4.3 -14.05,6.45 -22.35,6.45c-11.8,-0 -21.65,-3.85 -29.55,-11.55Z" style="fill:#bf82bb;fill-rule:nonzero;"/><path d="M3103.04,8510.15l-0,20.1c2.5,-9.4 6.375,-15.65 11.625,-18.75c5.25,-3.1 11.025,-3.65 17.325,-1.65l-0,19.2c-8.1,-2.8 -14.95,-2.675 -20.55,0.375c-5.6,3.05 -8.4,7.975 -8.4,14.775l-0,43.35l-20.25,-0l-0,-77.4l20.25,-0Z" style="fill:#bf82bb;fill-rule:nonzero;"/><path d="M3146.09,8577.5c-7.9,-7.7 -11.85,-17.25 -11.85,-28.65c-0,-11.4 3.95,-20.95 11.85,-28.65c7.9,-7.7 17.75,-11.55 29.55,-11.55c11.8,-0 21.65,3.85 29.55,11.55c7.9,7.7 11.85,17.25 11.85,28.65c-0,11.4 -3.95,20.95 -11.85,28.65c-7.9,7.7 -17.75,11.55 -29.55,11.55c-11.8,-0 -21.65,-3.85 -29.55,-11.55Zm9.15,-28.65c-0,6.2 1.95,11.375 5.85,15.525c3.9,4.15 8.75,6.225 14.55,6.225c5.8,-0 10.65,-2.075 14.55,-6.225c3.9,-4.15 5.85,-9.325 5.85,-15.525c-0,-6.2 -1.95,-11.35 -5.85,-15.45c-3.9,-4.1 -8.75,-6.15 -14.55,-6.15c-5.8,-0 -10.65,2.075 -14.55,6.225c-3.9,4.15 -5.85,9.275 -5.85,15.375Z" style="fill:#bf82bb;fill-rule:nonzero;"/><path d="M3238.79,8577.5c-7.9,-7.7 -11.85,-17.25 -11.85,-28.65c-0,-11.4 3.95,-20.95 11.85,-28.65c7.9,-7.7 17.75,-11.55 29.55,-11.55c8.3,-0 15.75,2.15 22.35,6.45c6.6,4.3 11.55,10.35 14.85,18.15l-18.6,6.45c-1.7,-4 -4.2,-7.075 -7.5,-9.225c-3.3,-2.15 -7,-3.225 -11.1,-3.225c-5.8,-0 -10.65,2.075 -14.55,6.225c-3.9,4.15 -5.85,9.275 -5.85,15.375c-0,6.2 1.95,11.375 5.85,15.525c3.9,4.15 8.75,6.225 14.55,6.225c4.1,-0 7.8,-1.1 11.1,-3.3c3.3,-2.2 5.8,-5.3 7.5,-9.3l18.6,6.45c-3.3,7.8 -8.25,13.85 -14.85,18.15c-6.6,4.3 -14.05,6.45 -22.35,6.45c-11.8,-0 -21.65,-3.85 -29.55,-11.55Z" style="fill:#bf82bb;fill-rule:nonzero;"/><path d="M3326.09,8577.5c-7.9,-7.7 -11.85,-17.25 -11.85,-28.65c-0,-11.4 3.95,-20.95 11.85,-28.65c7.9,-7.7 17.75,-11.55 29.55,-11.55c11.8,-0 21.65,3.85 29.55,11.55c7.9,7.7 11.85,17.25 11.85,28.65c-0,11.4 -3.95,20.95 -11.85,28.65c-7.9,7.7 -17.75,11.55 -29.55,11.55c-11.8,-0 -21.65,-3.85 -29.55,-11.55Zm9.15,-28.65c-0,6.2 1.95,11.375 5.85,15.525c3.9,4.15 8.75,6.225 14.55,6.225c5.8,-0 10.65,-2.075 14.55,-6.225c3.9,-4.15 5.85,-9.325 5.85,-15.525c-0,-6.2 -1.95,-11.35 -5.85,-15.45c-3.9,-4.1 -8.75,-6.15 -14.55,-6.15c-5.8,-0 -10.65,2.075 -14.55,6.225c-3.9,4.15 -5.85,9.275 -5.85,15.375Z" style="fill:#bf82bb;fill-rule:nonzero;"/><path d="M3405.74,8566.7l20.25,-4.2c0.9,7 5.5,10.5 13.8,10.5c4.1,-0 7.4,-0.775 9.9,-2.325c2.5,-1.55 3.75,-3.475 3.75,-5.775c-0,-2.2 -1.125,-3.95 -3.375,-5.25c-2.25,-1.3 -5.05,-2.15 -8.4,-2.55c-3.35,-0.4 -7,-1.05 -10.95,-1.95c-3.95,-0.9 -7.6,-2 -10.95,-3.3c-3.35,-1.3 -6.15,-3.55 -8.4,-6.75c-2.25,-3.2 -3.375,-7.2 -3.375,-12c-0,-7 3.025,-12.825 9.075,-17.475c6.05,-4.65 13.625,-6.975 22.725,-6.975c9.1,-0 16.6,2.025 22.5,6.075c5.9,4.05 9.4,9.475 10.5,16.275l-20.1,4.2c-1,-7 -5.3,-10.5 -12.9,-10.5c-3.3,-0 -6.025,0.7 -8.175,2.1c-2.15,1.4 -3.225,3.2 -3.225,5.4c-0,2.3 1.125,4.1 3.375,5.4c2.25,1.3 5.05,2.15 8.4,2.55c3.35,0.4 7,1.075 10.95,2.025c3.95,0.95 7.6,2.075 10.95,3.375c3.35,1.3 6.15,3.575 8.4,6.825c2.25,3.25 3.375,7.325 3.375,12.225c-0,6.9 -3.3,12.7 -9.9,17.4c-6.6,4.7 -14.65,7.05 -24.15,7.05c-9.5,-0 -17.275,-2.025 -23.325,-6.075c-6.05,-4.05 -9.625,-9.475 -10.725,-16.275Z" style="fill:#bf82bb;fill-rule:nonzero;"/><path d="M3578.39,8508.65c7.8,-0 14.125,3 18.975,9c4.85,6 7.275,13.65 7.275,22.95l-0,46.95l-20.25,-0l-0,-43.35c-0,-5 -1.325,-9.1 -3.975,-12.3c-2.65,-3.2 -5.975,-4.8 -9.975,-4.8c-4.5,-0 -8.175,1.6 -11.025,4.8c-2.85,3.2 -4.275,7.3 -4.275,12.3l-0,43.35l-20.25,-0l-0,-43.35c-0,-5 -1.325,-9.1 -3.975,-12.3c-2.65,-3.2 -5.925,-4.8 -9.825,-4.8c-4.5,-0 -8.175,1.6 -11.025,4.8c-2.85,3.2 -4.275,7.3 -4.275,12.3l-0,43.35l-20.25,-0l-0,-77.4l20.25,-0l-0,18.75c2,-6.3 5.075,-11.25 9.225,-14.85c4.15,-3.6 9.025,-5.4 14.625,-5.4c6,-0 11.1,1.85 15.3,5.55c4.2,3.7 7.15,8.7 8.85,15c1.9,-6.3 5.05,-11.3 9.45,-15c4.4,-3.7 9.45,-5.55 15.15,-5.55Z" style="fill:#bf82bb;fill-rule:nonzero;"/><path id="fills-51d91a5c-5418-8075-8004-33f6da57747c" d="M784.217,7558.85c-7.8,-7.6 -11.7,-17.05 -11.7,-28.35c-0,-11.3 3.9,-20.775 11.7,-28.425c7.8,-7.65 17.45,-11.475 28.95,-11.475c8.3,0 15.725,2.15 22.275,6.45c6.55,4.3 11.375,10.2 14.475,17.7l-14.55,4.95c-2,-4.5 -4.95,-8.05 -8.85,-10.65c-3.9,-2.6 -8.35,-3.9 -13.35,-3.9c-6.9,0 -12.7,2.425 -17.4,7.275c-4.7,4.85 -7.05,10.875 -7.05,18.075c-0,7.2 2.35,13.2 7.05,18c4.7,4.8 10.5,7.2 17.4,7.2c5,0 9.475,-1.275 13.425,-3.825c3.95,-2.55 6.875,-6.125 8.775,-10.725l14.55,4.95c-3.1,7.5 -7.925,13.4 -14.475,17.7c-6.55,4.3 -13.975,6.45 -22.275,6.45c-11.5,0 -21.15,-3.8 -28.95,-11.4Z" style="fill:#efefef;fill-rule:nonzero;"/><path d="M900.017,7490.6c12.3,0 22.3,4.4 30,13.2c7.7,8.8 10.85,19.45 9.45,31.95l-63.45,0c1.1,6.2 3.95,11.225 8.55,15.075c4.6,3.85 10.15,5.775 16.65,5.775c5,0 9.475,-1.225 13.425,-3.675c3.95,-2.45 7.025,-5.775 9.225,-9.975l13.2,5.85c-3.4,6.5 -8.25,11.7 -14.55,15.6c-6.3,3.9 -13.55,5.85 -21.75,5.85c-11.5,0 -21.15,-3.8 -28.95,-11.4c-7.8,-7.6 -11.7,-17.05 -11.7,-28.35c-0,-11.3 3.825,-20.775 11.475,-28.425c7.65,-7.65 17.125,-11.475 28.425,-11.475Zm-0,13.65c-5.8,0 -10.825,1.775 -15.075,5.325c-4.25,3.55 -7.075,8.175 -8.475,13.875l47.1,0c-1.3,-5.7 -4.075,-10.325 -8.325,-13.875c-4.25,-3.55 -9.325,-5.325 -15.225,-5.325Z" style="fill:#efefef;fill-rule:nonzero;"/><path d="M997.817,7490.6c8.7,0 15.8,3.05 21.3,9.15c5.5,6.1 8.25,13.85 8.25,23.25l-0,45.75l-15.75,0l-0,-43.35c-0,-5.9 -1.9,-10.775 -5.7,-14.625c-3.8,-3.85 -8.5,-5.775 -14.1,-5.775c-6.3,0 -11.45,1.925 -15.45,5.775c-4,3.85 -6,8.725 -6,14.625l-0,43.35l-15.75,0l-0,-76.65l15.75,0l-0,19.8c2.1,-6.6 5.575,-11.8 10.425,-15.6c4.85,-3.8 10.525,-5.7 17.025,-5.7Z" style="fill:#efefef;fill-rule:nonzero;"/><path d="M1051.07,7506.05l-16.35,0l-0,-13.95l16.35,0l-0,-24.9l15.75,-4.95l-0,29.85l21.6,0l-0,13.95l-21.6,0l-0,35.4c-0,4.7 1.05,8.1 3.15,10.2c2.1,2.1 5.45,3.15 10.05,3.15l8.4,0l-0,13.95l-8.4,0c-9.9,0 -17.2,-2.3 -21.9,-6.9c-4.7,-4.6 -7.05,-11.65 -7.05,-21.15l-0,-34.65Z" style="fill:#efefef;fill-rule:nonzero;"/><path d="M1100.12,7536.95l-0,-44.85l15.75,0l-0,44.85c-0,5.6 1.8,10.125 5.4,13.575c3.6,3.45 8.2,5.175 13.8,5.175c5.5,0 10.05,-1.725 13.65,-5.175c3.6,-3.45 5.4,-7.975 5.4,-13.575l-0,-44.85l15.75,0l-0,44.85c-0,9.8 -3.275,17.8 -9.825,24c-6.55,6.2 -14.875,9.3 -24.975,9.3c-10.2,0 -18.575,-3.1 -25.125,-9.3c-6.55,-6.2 -9.825,-14.2 -9.825,-24Z" style="fill:#efefef;fill-rule:nonzero;"/><path d="M1202.72,7492.1l-0,20.25c2.5,-9.1 6.425,-15.25 11.775,-18.45c5.35,-3.2 11.425,-4 18.225,-2.4l-0,15c-8.3,-2.3 -15.375,-1.575 -21.225,2.175c-5.85,3.75 -8.775,9.325 -8.775,16.725l-0,43.35l-15.75,-0l-0,-76.65l15.75,-0Z" style="fill:#efefef;fill-rule:nonzero;"/><path d="M1245.47,7476.95c-1.9,-1.9 -2.85,-4.2 -2.85,-6.9c-0,-2.7 0.975,-5 2.925,-6.9c1.95,-1.9 4.275,-2.85 6.975,-2.85c2.7,0 5,0.95 6.9,2.85c1.9,1.9 2.85,4.2 2.85,6.9c-0,2.7 -0.95,5 -2.85,6.9c-1.9,1.9 -4.2,2.85 -6.9,2.85c-2.7,0 -5.05,-0.95 -7.05,-2.85Zm14.85,91.8l-15.75,0l-0,-76.65l15.75,0l-0,76.65Z" style="fill:#efefef;fill-rule:nonzero;"/><path d="M1286.72,7558.85c-7.8,-7.6 -11.7,-17.05 -11.7,-28.35c-0,-11.3 3.9,-20.775 11.7,-28.425c7.8,-7.65 17.45,-11.475 28.95,-11.475c11.5,0 21.15,3.825 28.95,11.475c7.8,7.65 11.7,17.125 11.7,28.425c-0,11.3 -3.9,20.75 -11.7,28.35c-7.8,7.6 -17.45,11.4 -28.95,11.4c-11.5,0 -21.15,-3.8 -28.95,-11.4Zm11.55,-46.35c-4.7,4.8 -7.05,10.8 -7.05,18c-0,7.2 2.35,13.2 7.05,18c4.7,4.8 10.5,7.2 17.4,7.2c7,0 12.825,-2.4 17.475,-7.2c4.65,-4.8 6.975,-10.8 6.975,-18c-0,-7.3 -2.325,-13.35 -6.975,-18.15c-4.65,-4.8 -10.475,-7.2 -17.475,-7.2c-6.9,0 -12.7,2.45 -17.4,7.35Z" style="fill:#efefef;fill-rule:nonzero;"/><path d="M1414.22,7490.6c8.7,0 15.8,3.05 21.3,9.15c5.5,6.1 8.25,13.85 8.25,23.25l-0,45.75l-15.75,0l-0,-43.35c-0,-5.9 -1.9,-10.775 -5.7,-14.625c-3.8,-3.85 -8.5,-5.775 -14.1,-5.775c-6.3,0 -11.45,1.925 -15.45,5.775c-4,3.85 -6,8.725 -6,14.625l-0,43.35l-15.75,0l-0,-76.65l15.75,0l-0,19.8c2.1,-6.6 5.575,-11.8 10.425,-15.6c4.85,-3.8 10.525,-5.7 17.025,-5.7Z" style="fill:#efefef;fill-rule:nonzero;"/><path d="M1501.37,7548.5l15.75,-3.3c1.4,8.2 7,12.3 16.8,12.3c5,0 9.025,-0.975 12.075,-2.925c3.05,-1.95 4.575,-4.425 4.575,-7.425c-0,-3.2 -1.6,-5.625 -4.8,-7.275c-3.2,-1.65 -7.1,-2.85 -11.7,-3.6c-4.6,-0.75 -9.225,-1.675 -13.875,-2.775c-4.65,-1.1 -8.575,-3.275 -11.775,-6.525c-3.2,-3.25 -4.8,-7.625 -4.8,-13.125c-0,-6.7 2.875,-12.25 8.625,-16.65c5.75,-4.4 12.975,-6.6 21.675,-6.6c8.7,0 15.825,1.95 21.375,5.85c5.55,3.9 8.875,9.2 9.975,15.9l-15.75,3.3c-1.2,-8.2 -6.4,-12.3 -15.6,-12.3c-4.2,0 -7.65,0.9 -10.35,2.7c-2.7,1.8 -4.05,4.15 -4.05,7.05c-0,2.6 1.15,4.7 3.45,6.3c2.3,1.6 5.2,2.65 8.7,3.15c3.5,0.5 7.275,1.25 11.325,2.25c4.05,1 7.825,2.125 11.325,3.375c3.5,1.25 6.4,3.475 8.7,6.675c2.3,3.2 3.45,7.2 3.45,12c-0,6.7 -3.125,12.275 -9.375,16.725c-6.25,4.45 -13.975,6.675 -23.175,6.675c-9.1,0 -16.5,-1.95 -22.2,-5.85c-5.7,-3.9 -9.15,-9.2 -10.35,-15.9Z" style="fill:#efefef;fill-rule:nonzero;"/><path d="M1625.87,7490.6c9.9,0 18.15,3.825 24.75,11.475c6.6,7.65 9.9,17.125 9.9,28.425c-0,11.3 -3.3,20.75 -9.9,28.35c-6.6,7.6 -14.85,11.4 -24.75,11.4c-7.2,0 -13.475,-2.125 -18.825,-6.375c-5.35,-4.25 -9.225,-10.025 -11.625,-17.325l-0,52.2l-15.75,0l-0,-106.65l15.75,0l-0,22.2c2.4,-7.3 6.275,-13.075 11.625,-17.325c5.35,-4.25 11.625,-6.375 18.825,-6.375Zm-5.25,65.1c6.6,-0 12.175,-2.425 16.725,-7.275c4.55,-4.85 6.825,-10.825 6.825,-17.925c-0,-7.2 -2.275,-13.225 -6.825,-18.075c-4.55,-4.85 -10.125,-7.275 -16.725,-7.275c-7.3,-0 -13.325,2.4 -18.075,7.2c-4.75,4.8 -7.125,10.85 -7.125,18.15c-0,7.2 2.375,13.2 7.125,18c4.75,4.8 10.775,7.2 18.075,7.2Z" style="fill:#efefef;fill-rule:nonzero;"/><path d="M1706.72,7490.6c9.2,0 16.7,2.4 22.5,7.2c5.8,4.8 8.7,11.7 8.7,20.7l-0,50.25l-15.75,0l-0,-20.4c-4.7,14.6 -14.15,21.9 -28.35,21.9c-6.6,0 -12.1,-1.975 -16.5,-5.925c-4.4,-3.95 -6.6,-9.125 -6.6,-15.525c-0,-7.5 2.65,-13.125 7.95,-16.875c5.3,-3.75 12.05,-6.075 20.25,-6.975l14.85,-1.5c5.6,-0.5 8.4,-3 8.4,-7.5c-0,-3.7 -1.425,-6.65 -4.275,-8.85c-2.85,-2.2 -6.575,-3.3 -11.175,-3.3c-4.7,0 -8.675,1.2 -11.925,3.6c-3.25,2.4 -5.325,5.9 -6.225,10.5l-15.6,-3.75c1.4,-7.2 5.15,-12.925 11.25,-17.175c6.1,-4.25 13.6,-6.375 22.5,-6.375Zm-7.8,66.9c6.5,0 12,-2.175 16.5,-6.525c4.5,-4.35 6.75,-9.425 6.75,-15.225l-0,-4.2c-1.2,2 -4.1,3.25 -8.7,3.75l-14.55,1.8c-3.8,0.5 -6.825,1.625 -9.075,3.375c-2.25,1.75 -3.375,4.125 -3.375,7.125c-0,3 1.125,5.4 3.375,7.2c2.25,1.8 5.275,2.7 9.075,2.7Z" style="fill:#efefef;fill-rule:nonzero;"/><path d="M1834.22,7564.7l17.85,-72.6l15,0l-19.8,76.65l-26.25,0l-16.05,-72.6l-16.05,72.6l-26.1,0l-19.95,-76.65l15.3,0l17.7,72.6l15,-72.6l28.35,0l15,72.6Z" style="fill:#efefef;fill-rule:nonzero;"/><path d="M1920.47,7490.6c8.7,0 15.8,3.05 21.3,9.15c5.5,6.1 8.25,13.85 8.25,23.25l-0,45.75l-15.75,0l-0,-43.35c-0,-5.9 -1.9,-10.775 -5.7,-14.625c-3.8,-3.85 -8.5,-5.775 -14.1,-5.775c-6.3,0 -11.45,1.925 -15.45,5.775c-4,3.85 -6,8.725 -6,14.625l-0,43.35l-15.75,0l-0,-76.65l15.75,0l-0,19.8c2.1,-6.6 5.575,-11.8 10.425,-15.6c4.85,-3.8 10.525,-5.7 17.025,-5.7Z" style="fill:#efefef;fill-rule:nonzero;"/><path id="fills-51d91a5c-5418-8075-8004-33f6da57747d" d="M678.125,7453.75c7.708,12.917 11.563,27.292 11.563,43.125c-0,15.833 -3.855,30.208 -11.563,43.125l29.688,29.688l-31.563,31.25l-30.625,-30.313c-12.917,6.667 -26.875,10 -41.875,10c-15.208,0 -29.271,-3.333 -42.188,-10l-30.624,30.313l-31.563,-31.25l29.688,-29.688c-7.709,-12.917 -11.563,-27.292 -11.563,-43.125c0,-15.833 3.854,-30.208 11.563,-43.125l-29.688,-29.687l31.563,-31.25l30.625,30.312c12.916,-6.667 26.979,-10 42.187,-10c15,0 28.958,3.333 41.875,10l30.625,-30.312l31.563,31.25l-29.688,29.687Zm-105,11.25c-8.125,8.542 -12.188,19.167 -12.188,31.875c0,12.708 4.063,23.385 12.188,32.031c8.125,8.646 18.333,12.969 30.625,12.969c12.083,0 22.188,-4.323 30.313,-12.969c8.125,-8.646 12.187,-19.323 12.187,-32.031c0,-12.708 -4.062,-23.385 -12.188,-32.031c-8.125,-8.646 -18.229,-12.969 -30.312,-12.969c-12.292,0 -22.5,4.375 -30.625,13.125Z" style="fill:#dc6044;fill-rule:nonzero;"/><rect id="fills-51d91a5c-5418-8075-8004-33f6da577480" x="779.579" y="7139.05" width="15.75" height="111" style="fill:#efefef;fill-rule:nonzero;"/><path d="M813.929,7158.25c-1.9,-1.9 -2.85,-4.2 -2.85,-6.9c0,-2.7 0.975,-5 2.925,-6.9c1.95,-1.9 4.275,-2.85 6.975,-2.85c2.7,-0 5,0.95 6.9,2.85c1.9,1.9 2.85,4.2 2.85,6.9c0,2.7 -0.95,5 -2.85,6.9c-1.9,1.9 -4.2,2.85 -6.9,2.85c-2.7,-0 -5.05,-0.95 -7.05,-2.85Zm14.85,91.8l-15.75,-0l0,-76.65l15.75,-0l0,76.65Z" style="fill:#efefef;fill-rule:nonzero;"/><path d="M883.379,7171.9c12.3,-0 22.3,4.4 30,13.2c7.7,8.8 10.85,19.45 9.45,31.95l-63.45,-0c1.1,6.2 3.95,11.225 8.55,15.075c4.6,3.85 10.15,5.775 16.65,5.775c5,-0 9.475,-1.225 13.425,-3.675c3.95,-2.45 7.025,-5.775 9.225,-9.975l13.2,5.85c-3.4,6.5 -8.25,11.7 -14.55,15.6c-6.3,3.9 -13.55,5.85 -21.75,5.85c-11.5,-0 -21.15,-3.8 -28.95,-11.4c-7.8,-7.6 -11.7,-17.05 -11.7,-28.35c0,-11.3 3.825,-20.775 11.475,-28.425c7.65,-7.65 17.125,-11.475 28.425,-11.475Zm0,13.65c-5.8,-0 -10.825,1.775 -15.075,5.325c-4.25,3.55 -7.075,8.175 -8.475,13.875l47.1,-0c-1.3,-5.7 -4.075,-10.325 -8.325,-13.875c-4.25,-3.55 -9.325,-5.325 -15.225,-5.325Z" style="fill:#efefef;fill-rule:nonzero;"/><path d="M936.479,7218.25l0,-44.85l15.75,-0l0,44.85c0,5.6 1.8,10.125 5.4,13.575c3.6,3.45 8.2,5.175 13.8,5.175c5.5,-0 10.05,-1.725 13.65,-5.175c3.6,-3.45 5.4,-7.975 5.4,-13.575l0,-44.85l15.75,-0l0,44.85c0,9.8 -3.275,17.8 -9.825,24c-6.55,6.2 -14.875,9.3 -24.975,9.3c-10.2,-0 -18.575,-3.1 -25.125,-9.3c-6.55,-6.2 -9.825,-14.2 -9.825,-24Z" style="fill:#efefef;fill-rule:nonzero;"/><path d="M1032.93,7187.35l-16.35,-0l0,-13.95l16.35,-0l0,-24.9l15.75,-4.95l0,29.85l21.6,-0l0,13.95l-21.6,-0l0,35.4c0,4.7 1.05,8.1 3.15,10.2c2.1,2.1 5.45,3.15 10.05,3.15l8.4,-0l0,13.95l-8.4,-0c-9.9,-0 -17.2,-2.3 -21.9,-6.9c-4.7,-4.6 -7.05,-11.65 -7.05,-21.15l0,-34.65Z" style="fill:#efefef;fill-rule:nonzero;"/><path d="M1118.58,7171.9c12.3,-0 22.3,4.4 30,13.2c7.7,8.8 10.85,19.45 9.45,31.95l-63.45,-0c1.1,6.2 3.95,11.225 8.55,15.075c4.6,3.85 10.15,5.775 16.65,5.775c5,-0 9.475,-1.225 13.425,-3.675c3.95,-2.45 7.025,-5.775 9.225,-9.975l13.2,5.85c-3.4,6.5 -8.25,11.7 -14.55,15.6c-6.3,3.9 -13.55,5.85 -21.75,5.85c-11.5,-0 -21.15,-3.8 -28.95,-11.4c-7.8,-7.6 -11.7,-17.05 -11.7,-28.35c0,-11.3 3.825,-20.775 11.475,-28.425c7.65,-7.65 17.125,-11.475 28.425,-11.475Zm0,13.65c-5.8,-0 -10.825,1.775 -15.075,5.325c-4.25,3.55 -7.075,8.175 -8.475,13.875l47.1,-0c-1.3,-5.7 -4.075,-10.325 -8.325,-13.875c-4.25,-3.55 -9.325,-5.325 -15.225,-5.325Z" style="fill:#efefef;fill-rule:nonzero;"/><path d="M1216.38,7171.9c8.7,-0 15.8,3.05 21.3,9.15c5.5,6.1 8.25,13.85 8.25,23.25l0,45.75l-15.75,-0l0,-43.35c0,-5.9 -1.9,-10.775 -5.7,-14.625c-3.8,-3.85 -8.5,-5.775 -14.1,-5.775c-6.3,-0 -11.45,1.925 -15.45,5.775c-4,3.85 -6,8.725 -6,14.625l0,43.35l-15.75,-0l0,-76.65l15.75,-0l0,19.8c2.1,-6.6 5.575,-11.8 10.425,-15.6c4.85,-3.8 10.525,-5.7 17.025,-5.7Z" style="fill:#efefef;fill-rule:nonzero;"/><path d="M1294.53,7171.9c9.2,-0 16.7,2.4 22.5,7.2c5.8,4.8 8.7,11.7 8.7,20.7l0,50.25l-15.75,-0l0,-20.4c-4.7,14.6 -14.15,21.9 -28.35,21.9c-6.6,-0 -12.1,-1.975 -16.5,-5.925c-4.4,-3.95 -6.6,-9.125 -6.6,-15.525c0,-7.5 2.65,-13.125 7.95,-16.875c5.3,-3.75 12.05,-6.075 20.25,-6.975l14.85,-1.5c5.6,-0.5 8.4,-3 8.4,-7.5c0,-3.7 -1.425,-6.65 -4.275,-8.85c-2.85,-2.2 -6.575,-3.3 -11.175,-3.3c-4.7,-0 -8.675,1.2 -11.925,3.6c-3.25,2.4 -5.325,5.9 -6.225,10.5l-15.6,-3.75c1.4,-7.2 5.15,-12.925 11.25,-17.175c6.1,-4.25 13.6,-6.375 22.5,-6.375Zm-7.8,66.9c6.5,-0 12,-2.175 16.5,-6.525c4.5,-4.35 6.75,-9.425 6.75,-15.225l0,-4.2c-1.2,2 -4.1,3.25 -8.7,3.75l-14.55,1.8c-3.8,0.5 -6.825,1.625 -9.075,3.375c-2.25,1.75 -3.375,4.125 -3.375,7.125c0,3 1.125,5.4 3.375,7.2c2.25,1.8 5.275,2.7 9.075,2.7Z" style="fill:#efefef;fill-rule:nonzero;"/><path d="M1385.88,7171.9c8.7,-0 15.8,3.05 21.3,9.15c5.5,6.1 8.25,13.85 8.25,23.25l0,45.75l-15.75,-0l0,-43.35c0,-5.9 -1.9,-10.775 -5.7,-14.625c-3.8,-3.85 -8.5,-5.775 -14.1,-5.775c-6.3,-0 -11.45,1.925 -15.45,5.775c-4,3.85 -6,8.725 -6,14.625l0,43.35l-15.75,-0l0,-76.65l15.75,-0l0,19.8c2.1,-6.6 5.575,-11.8 10.425,-15.6c4.85,-3.8 10.525,-5.7 17.025,-5.7Z" style="fill:#efefef;fill-rule:nonzero;"/><path d="M1439.13,7187.35l-16.35,-0l0,-13.95l16.35,-0l0,-24.9l15.75,-4.95l0,29.85l21.6,-0l0,13.95l-21.6,-0l0,35.4c0,4.7 1.05,8.1 3.15,10.2c2.1,2.1 5.45,3.15 10.05,3.15l8.4,-0l0,13.95l-8.4,-0c-9.9,-0 -17.2,-2.3 -21.9,-6.9c-4.7,-4.6 -7.05,-11.65 -7.05,-21.15l0,-34.65Z" style="fill:#efefef;fill-rule:nonzero;"/><path d="M1531.68,7229.8l15.75,-3.3c1.4,8.2 7,12.3 16.8,12.3c5,-0 9.025,-0.975 12.075,-2.925c3.05,-1.95 4.575,-4.425 4.575,-7.425c0,-3.2 -1.6,-5.625 -4.8,-7.275c-3.2,-1.65 -7.1,-2.85 -11.7,-3.6c-4.6,-0.75 -9.225,-1.675 -13.875,-2.775c-4.65,-1.1 -8.575,-3.275 -11.775,-6.525c-3.2,-3.25 -4.8,-7.625 -4.8,-13.125c0,-6.7 2.875,-12.25 8.625,-16.65c5.75,-4.4 12.975,-6.6 21.675,-6.6c8.7,-0 15.825,1.95 21.375,5.85c5.55,3.9 8.875,9.2 9.975,15.9l-15.75,3.3c-1.2,-8.2 -6.4,-12.3 -15.6,-12.3c-4.2,-0 -7.65,0.9 -10.35,2.7c-2.7,1.8 -4.05,4.15 -4.05,7.05c0,2.6 1.15,4.7 3.45,6.3c2.3,1.6 5.2,2.65 8.7,3.15c3.5,0.5 7.275,1.25 11.325,2.25c4.05,1 7.825,2.125 11.325,3.375c3.5,1.25 6.4,3.475 8.7,6.675c2.3,3.2 3.45,7.2 3.45,12c0,6.7 -3.125,12.275 -9.375,16.725c-6.25,4.45 -13.975,6.675 -23.175,6.675c-9.1,-0 -16.5,-1.95 -22.2,-5.85c-5.7,-3.9 -9.15,-9.2 -10.35,-15.9Z" style="fill:#efefef;fill-rule:nonzero;"/><path d="M1656.18,7171.9c9.9,-0 18.15,3.825 24.75,11.475c6.6,7.65 9.9,17.125 9.9,28.425c0,11.3 -3.3,20.75 -9.9,28.35c-6.6,7.6 -14.85,11.4 -24.75,11.4c-7.2,-0 -13.475,-2.125 -18.825,-6.375c-5.35,-4.25 -9.225,-10.025 -11.625,-17.325l0,52.2l-15.75,-0l0,-106.65l15.75,-0l0,22.2c2.4,-7.3 6.275,-13.075 11.625,-17.325c5.35,-4.25 11.625,-6.375 18.825,-6.375Zm-5.25,65.1c6.6,-0 12.175,-2.425 16.725,-7.275c4.55,-4.85 6.825,-10.825 6.825,-17.925c0,-7.2 -2.275,-13.225 -6.825,-18.075c-4.55,-4.85 -10.125,-7.275 -16.725,-7.275c-7.3,-0 -13.325,2.4 -18.075,7.2c-4.75,4.8 -7.125,10.85 -7.125,18.15c0,7.2 2.375,13.2 7.125,18c4.75,4.8 10.775,7.2 18.075,7.2Z" style="fill:#efefef;fill-rule:nonzero;"/><path d="M1737.03,7171.9c9.2,-0 16.7,2.4 22.5,7.2c5.8,4.8 8.7,11.7 8.7,20.7l0,50.25l-15.75,-0l0,-20.4c-4.7,14.6 -14.15,21.9 -28.35,21.9c-6.6,-0 -12.1,-1.975 -16.5,-5.925c-4.4,-3.95 -6.6,-9.125 -6.6,-15.525c0,-7.5 2.65,-13.125 7.95,-16.875c5.3,-3.75 12.05,-6.075 20.25,-6.975l14.85,-1.5c5.6,-0.5 8.4,-3 8.4,-7.5c0,-3.7 -1.425,-6.65 -4.275,-8.85c-2.85,-2.2 -6.575,-3.3 -11.175,-3.3c-4.7,-0 -8.675,1.2 -11.925,3.6c-3.25,2.4 -5.325,5.9 -6.225,10.5l-15.6,-3.75c1.4,-7.2 5.15,-12.925 11.25,-17.175c6.1,-4.25 13.6,-6.375 22.5,-6.375Zm-7.8,66.9c6.5,-0 12,-2.175 16.5,-6.525c4.5,-4.35 6.75,-9.425 6.75,-15.225l0,-4.2c-1.2,2 -4.1,3.25 -8.7,3.75l-14.55,1.8c-3.8,0.5 -6.825,1.625 -9.075,3.375c-2.25,1.75 -3.375,4.125 -3.375,7.125c0,3 1.125,5.4 3.375,7.2c2.25,1.8 5.275,2.7 9.075,2.7Z" style="fill:#efefef;fill-rule:nonzero;"/><path d="M1864.53,7246l17.85,-72.6l15,-0l-19.8,76.65l-26.25,-0l-16.05,-72.6l-16.05,72.6l-26.1,-0l-19.95,-76.65l15.3,-0l17.7,72.6l15,-72.6l28.35,-0l15,72.6Z" style="fill:#efefef;fill-rule:nonzero;"/><path d="M1950.78,7171.9c8.7,-0 15.8,3.05 21.3,9.15c5.5,6.1 8.25,13.85 8.25,23.25l0,45.75l-15.75,-0l0,-43.35c0,-5.9 -1.9,-10.775 -5.7,-14.625c-3.8,-3.85 -8.5,-5.775 -14.1,-5.775c-6.3,-0 -11.45,1.925 -15.45,5.775c-4,3.85 -6,8.725 -6,14.625l0,43.35l-15.75,-0l0,-76.65l15.75,-0l0,19.8c2.1,-6.6 5.575,-11.8 10.425,-15.6c4.85,-3.8 10.525,-5.7 17.025,-5.7Z" style="fill:#efefef;fill-rule:nonzero;"/><path id="fills-51d91a5c-5418-8075-8004-33f6da57747f" d="M491.875,7068.75l225,0l-112.5,221.875l-112.5,-221.875Zm112.5,154.688l63.75,-125.625l-127.187,-0l63.437,125.625Z" style="fill:#bf82bb;fill-rule:nonzero;"/><path d="M4051.6,3762.5l1373.4,2400l-2741.67,0l1368.27,-2400Z" style="fill:none;fill-rule:nonzero;stroke:#92bacf;stroke-width:12.5px;"/><path d="M2630.77,700l1373.4,2400l-2741.67,0l1368.27,-2400Z" style="fill:none;fill-rule:nonzero;stroke:#92bacf;stroke-width:12.5px;"/><path d="M10909.9,3754.17l1373.39,2400l-2741.67,-0l1368.27,-2400Z" style="fill:none;fill-rule:nonzero;stroke:#d5ad65;stroke-width:12.5px;"/><path d="M12309.9,700l1373.39,2400l-2741.67,0l1368.27,-2400Z" style="fill:none;fill-rule:nonzero;stroke:#d5ad65;stroke-width:12.5px;"/><path d="M7454.17,7108.33l-1593.14,-558.95l-2423.53,-4922.9l941.667,0l707.812,-422.316l4734.38,-0l707.813,422.316l941.666,0l-2423.53,4922.9l-1593.14,558.95Z" style="fill:none;fill-rule:nonzero;stroke:#b1b2b5;stroke-width:12.5px;"/><path id="fills-51d91a5c-5418-8075-8004-33f6da577482" d="M5612.5,1204.17l3683.33,-0l-200,537.5l-3266.67,-0l-216.667,-537.5Z" style="fill:none;fill-rule:nonzero;"/><path d="M5612.5,1204.17l3683.33,-0l-200,537.5l-3266.67,-0l-216.667,-537.5Z" style="fill:none;fill-rule:nonzero;stroke:#b1b2b5;stroke-width:12.5px;"/><path id="fills-51d91a5c-5418-8075-8004-33f6da577451" d="M7566.67,2311.25l28.333,48.333l-84.583,48.75l84.583,48.75l-28.333,48.334l-84.167,-48.75l0,97.5l-56.25,-0l0,-97.084l-83.75,48.334l-28.333,-48.334l84.583,-48.75l-84.583,-48.75l28.333,-48.333l83.75,48.333l0,-97.083l56.25,0l0,97.5l84.167,-48.75Z" style="fill:#e64134;fill-rule:nonzero;"/><path id="fills-51d91a5c-5418-8075-8004-33f6da577452" d="M6079.17,1413.33c10.277,17.223 15.416,36.389 15.416,57.5c0,21.111 -5.139,40.278 -15.416,57.5l39.583,39.584l-42.083,41.666l-40.834,-40.416c-17.222,8.889 -35.833,13.333 -55.833,13.333c-20.278,-0 -39.028,-4.444 -56.25,-13.333l-40.833,40.416l-42.084,-41.666l39.584,-39.584c-10.278,-17.222 -15.417,-36.389 -15.417,-57.5c-0,-21.111 5.139,-40.277 15.417,-57.5l-39.584,-39.583l42.084,-41.667l40.833,40.417c17.222,-8.889 35.972,-13.333 56.25,-13.333c20,-0 38.611,4.444 55.833,13.333l40.834,-40.417l42.083,41.667l-39.583,39.583Zm-140,15c-10.834,11.389 -16.25,25.556 -16.25,42.5c-0,16.945 5.416,31.181 16.25,42.709c10.833,11.527 24.444,17.291 40.833,17.291c16.111,0 29.583,-5.764 40.417,-17.291c10.833,-11.528 16.25,-25.764 16.25,-42.709c-0,-16.944 -5.417,-31.18 -16.25,-42.708c-10.834,-11.528 -24.306,-17.292 -40.417,-17.292c-16.389,0 -30,5.834 -40.833,17.5Z" style="fill:#dc6044;fill-rule:nonzero;"/><path id="fills-51d91a5c-5418-8075-8004-33f6da577453" d="M9029.17,1413.33c10.277,17.223 15.416,36.389 15.416,57.5c0,21.111 -5.139,40.278 -15.416,57.5l39.583,39.584l-42.083,41.666l-40.834,-40.416c-17.222,8.889 -35.833,13.333 -55.833,13.333c-20.278,-0 -39.028,-4.444 -56.25,-13.333l-40.833,40.416l-42.084,-41.666l39.584,-39.584c-10.278,-17.222 -15.417,-36.389 -15.417,-57.5c0,-21.111 5.139,-40.277 15.417,-57.5l-39.584,-39.583l42.084,-41.667l40.833,40.417c17.222,-8.889 35.972,-13.333 56.25,-13.333c20,-0 38.611,4.444 55.833,13.333l40.834,-40.417l42.083,41.667l-39.583,39.583Zm-140,15c-10.834,11.389 -16.25,25.556 -16.25,42.5c-0,16.945 5.416,31.181 16.25,42.709c10.833,11.527 24.444,17.291 40.833,17.291c16.111,0 29.583,-5.764 40.417,-17.291c10.833,-11.528 16.25,-25.764 16.25,-42.709c-0,-16.944 -5.417,-31.18 -16.25,-42.708c-10.834,-11.528 -24.306,-17.292 -40.417,-17.292c-16.389,0 -30,5.834 -40.833,17.5Z" style="fill:#dc6044;fill-rule:nonzero;"/><path id="fills-51d91a5c-5418-8075-8004-33f6da577454" d="M3055.83,2691.67l300,-0l-150,295.833l-150,-295.833Zm150,206.25l85,-167.5l-169.583,-0l84.583,167.5Z" style="fill:#bf82bb;fill-rule:nonzero;"/><path id="fills-51d91a5c-5418-8075-8004-33f6da577455" d="M4518.33,5779.17l300,-0l-150,295.833l-150,-295.833Zm150,206.25l85,-167.5l-169.583,-0l84.583,167.5Z" style="fill:#bf82bb;fill-rule:nonzero;"/><path id="fills-51d91a5c-5418-8075-8004-33f6da577456" d="M10060,5779.17l300,-0l-150,295.833l-150,-295.833Zm150,206.25l85,-167.5l-169.583,-0l84.583,167.5Z" style="fill:#bf82bb;fill-rule:nonzero;"/><path id="fills-51d91a5c-5418-8075-8004-33f6da577457" d="M11480.8,2691.67l300,-0l-150,295.833l-150,-295.833Zm150,206.25l85,-167.5l-169.583,-0l84.583,167.5Z" style="fill:#bf82bb;fill-rule:nonzero;"/><circle id="stroke-shape-render-39-51d91a5c-5418-8075-8004-33f6da577486-0" cx="6181.25" cy="4156.25" r="377.083" style="fill:none;stroke:#efefef;stroke-width:41.67px;"/><path id="fills-51d91a5c-5418-8075-8004-33f6da577487" d="M6285.37,4302.07l-200,-0l-0,-291.667l70.833,0l0,229.167l129.167,-0l-0,62.5Z" style="fill:#efefef;fill-rule:nonzero;"/><circle id="stroke-shape-render-43-51d91a5c-5418-8075-8004-33f6da577489-0" cx="7447.92" cy="5268.75" r="377.083" style="fill:none;stroke:#efefef;stroke-width:41.67px;"/><path id="fills-51d91a5c-5418-8075-8004-33f6da57748a" d="M7620.83,5139.52l0,291.666l-66.666,0l-0,-270.416l-37.5,270.416l-125.417,0l-37.083,-270.416l-0,270.416l-66.667,0l0,-291.666l130.417,-0l37.083,270.416l37.5,-270.416l128.333,-0Z" style="fill:#efefef;fill-rule:nonzero;"/><circle id="stroke-shape-render-47-51d91a5c-5418-8075-8004-33f6da57748c-0" cx="8685.31" cy="4156.3" r="377.083" style="fill:none;stroke:#efefef;stroke-width:41.67px;"/><path id="fills-51d91a5c-5418-8075-8004-33f6da57748d" d="M8759.02,4201.7l67.916,104.583l-84.166,0l-62.084,-95.833l-28.75,-0l0,95.833l-70.833,0l0,-291.666l129.167,-0c32.777,-0 59.027,9.166 78.75,27.5c19.722,18.333 29.583,41.805 29.583,70.416c0,20.278 -5.208,38.264 -15.625,53.959c-10.417,15.694 -25.069,27.43 -43.958,35.208Zm-48.75,-124.583l-58.334,-0l0,68.75l58.334,-0c10.555,-0 19.027,-3.195 25.416,-9.584c6.389,-6.389 9.584,-14.583 9.584,-24.583c-0,-10 -3.195,-18.264 -9.584,-24.792c-6.389,-6.528 -14.861,-9.791 -25.416,-9.791Z" style="fill:#efefef;fill-rule:nonzero;"/><path id="fills-51d91a5c-5418-8075-8004-33f6da57745b" d="M7340.47,6758.19c-0,-17.4 6.2,-32.3 18.6,-44.7c12.4,-12.4 27.4,-18.6 45,-18.6c20.6,-0 37.3,8.1 50.1,24.3c12.8,-16.2 29.5,-24.3 50.1,-24.3c17.6,-0 32.6,6.2 45,18.6c12.4,12.4 18.6,27.3 18.6,44.7c-0,12.4 -3.05,25.2 -9.15,38.4c-6.1,13.2 -15,26.55 -26.7,40.05c-11.7,13.5 -23.45,25.75 -35.25,36.75c-11.8,11 -26,23.5 -42.6,37.5c-16.6,-14 -30.8,-26.5 -42.6,-37.5c-11.8,-11 -23.55,-23.25 -35.25,-36.75c-11.7,-13.5 -20.6,-26.85 -26.7,-40.05c-6.1,-13.2 -9.15,-26 -9.15,-38.4Z" style="fill:#b1b2b5;fill-rule:nonzero;"/><rect id="fills-51d91a5c-5418-8075-8004-33f6da57748e" x="3562.08" y="1245.83" width="43.75" height="308.333" style="fill:#92bacf;fill-rule:nonzero;"/><path d="M3657.5,1299.17c-5.278,-5.278 -7.917,-11.667 -7.917,-19.167c0,-7.5 2.709,-13.889 8.125,-19.167c5.417,-5.277 11.875,-7.916 19.375,-7.916c7.5,-0 13.889,2.639 19.167,7.916c5.278,5.278 7.917,11.667 7.917,19.167c-0,7.5 -2.639,13.889 -7.917,19.167c-5.278,5.277 -11.667,7.916 -19.167,7.916c-7.5,0 -14.027,-2.639 -19.583,-7.916Zm41.25,255l-43.75,-0l0,-212.917l43.75,0l0,212.917Z" style="fill:#92bacf;fill-rule:nonzero;"/><path d="M3920.42,1401.67l-0,-60.417l43.75,0l-0,190c-0,31.389 -10.834,57.639 -32.5,78.75c-21.667,21.111 -48.473,31.667 -80.417,31.667c-22.5,-0 -42.569,-5.417 -60.208,-16.25c-17.639,-10.834 -30.903,-25.417 -39.792,-43.75l39.583,-19.584c5.834,12.223 13.959,21.875 24.375,28.959c10.417,7.083 22.431,10.625 36.042,10.625c19.444,-0 35.833,-6.736 49.167,-20.209c13.333,-13.472 20,-30.208 20,-50.208l-0,-41.667c-6.945,19.445 -17.848,35 -32.709,46.667c-14.861,11.667 -32.152,17.5 -51.875,17.5c-27.5,0 -50.416,-10.347 -68.75,-31.042c-18.333,-20.694 -27.5,-46.458 -27.5,-77.291c0,-30.834 9.167,-56.598 27.5,-77.292c18.334,-20.694 41.25,-31.042 68.75,-31.042c19.723,0 37.084,5.834 52.084,17.5c15,11.667 25.833,27.361 32.5,47.084Zm-68.75,112.083c19.722,-0 36.111,-6.528 49.166,-19.583c13.056,-13.056 19.584,-29.306 19.584,-48.75c-0,-19.445 -6.528,-35.625 -19.584,-48.542c-13.055,-12.917 -29.444,-19.375 -49.166,-19.375c-18.889,-0 -34.792,6.528 -47.709,19.583c-12.916,13.056 -19.375,29.167 -19.375,48.334c0,19.444 6.459,35.694 19.375,48.75c12.917,13.055 28.82,19.583 47.709,19.583Z" style="fill:#92bacf;fill-rule:nonzero;"/><path d="M4133.33,1337.08c24.167,0 43.889,8.473 59.167,25.417c15.278,16.944 22.917,38.472 22.917,64.583l-0,127.084l-43.75,-0l-0,-120.417c-0,-16.389 -5.278,-29.931 -15.834,-40.625c-10.555,-10.694 -23.611,-16.042 -39.166,-16.042c-17.5,0 -31.806,5.348 -42.917,16.042c-11.111,10.694 -16.667,24.236 -16.667,40.625l0,120.417l-43.75,-0l0,-308.334l43.75,0l0,150.417c5.834,-18.333 15.486,-32.778 28.959,-43.333c13.472,-10.556 29.236,-15.834 47.291,-15.834Z" style="fill:#92bacf;fill-rule:nonzero;"/><path d="M4281.25,1380l-45.417,0l0,-38.75l45.417,0l0,-69.167l43.75,-13.75l0,82.917l60,0l0,38.75l-60,0l0,98.333c0,13.056 2.917,22.5 8.75,28.334c5.833,5.833 15.139,8.75 27.917,8.75l23.333,-0l0,38.75l-23.333,-0c-27.5,-0 -47.778,-6.389 -60.834,-19.167c-13.055,-12.778 -19.583,-32.361 -19.583,-58.75l-0,-96.25Z" style="fill:#92bacf;fill-rule:nonzero;"/><path id="fills-51d91a5c-5418-8075-8004-33f6da57748f" d="M10713.8,1402.92l0,-157.084l43.75,0l0,308.334l-43.75,-0l0,-61.667c-6.667,20.278 -17.431,36.319 -32.292,48.125c-14.861,11.806 -32.291,17.708 -52.291,17.708c-27.5,0 -50.417,-10.555 -68.75,-31.666c-18.334,-21.111 -27.5,-47.361 -27.5,-78.75c-0,-31.389 9.166,-57.709 27.5,-78.959c18.333,-21.25 41.25,-31.875 68.75,-31.875c20,0 37.43,5.903 52.291,17.709c14.861,11.805 25.625,27.847 32.292,48.125Zm-70,115c20.278,-0 37.014,-6.667 50.208,-20c13.195,-13.334 19.792,-30 19.792,-50c0,-20.278 -6.597,-37.084 -19.792,-50.417c-13.194,-13.333 -29.93,-20 -50.208,-20c-18.333,-0 -33.889,6.736 -46.667,20.208c-12.777,13.473 -19.166,30.209 -19.166,50.209c-0,19.722 6.389,36.319 19.166,49.791c12.778,13.473 28.334,20.209 46.667,20.209Z" style="fill:#d5ad65;fill-rule:nonzero;"/><path d="M10894.2,1337.08c25.555,0 46.389,6.667 62.5,20c16.111,13.334 24.166,32.5 24.166,57.5l0,139.584l-43.75,-0l0,-56.667c-13.055,40.556 -39.305,60.833 -78.75,60.833c-18.333,0 -33.611,-5.486 -45.833,-16.458c-12.222,-10.972 -18.333,-25.347 -18.333,-43.125c-0,-20.833 7.361,-36.458 22.083,-46.875c14.722,-10.417 33.472,-16.875 56.25,-19.375l41.25,-4.167c15.556,-1.389 23.333,-8.333 23.333,-20.833c0,-10.278 -3.958,-18.472 -11.875,-24.583c-7.916,-6.111 -18.264,-9.167 -31.041,-9.167c-13.056,-0 -24.098,3.333 -33.125,10c-9.028,6.667 -14.792,16.389 -17.292,29.167l-43.333,-10.417c3.889,-20 14.305,-35.903 31.25,-47.708c16.944,-11.806 37.777,-17.709 62.5,-17.709Zm-21.667,185.834c18.056,-0 33.333,-6.042 45.833,-18.125c12.5,-12.084 18.75,-26.181 18.75,-42.292l0,-11.667c-3.333,5.556 -11.389,9.028 -24.166,10.417l-40.417,5c-10.556,1.389 -18.958,4.514 -25.208,9.375c-6.25,4.861 -9.375,11.458 -9.375,19.792c-0,8.333 3.125,15 9.375,20c6.25,5 14.652,7.5 25.208,7.5Z" style="fill:#d5ad65;fill-rule:nonzero;"/><path d="M11071.7,1341.25l-0,56.25c6.944,-25.278 17.847,-42.361 32.708,-51.25c14.861,-8.889 31.736,-11.111 50.625,-6.667l0,41.667c-23.056,-6.389 -42.708,-4.375 -58.958,6.042c-16.25,10.416 -24.375,25.902 -24.375,46.458l-0,120.417l-43.75,-0l-0,-212.917l43.75,0Z" style="fill:#d5ad65;fill-rule:nonzero;"/><path d="M11294.6,1430l98.334,124.167l-55.417,-0l-72.5,-91.667l-33.333,35.833l-0,55.834l-43.75,-0l-0,-308.334l43.75,0l-0,195l90,-99.583l55,0l-82.084,88.75Z" style="fill:#d5ad65;fill-rule:nonzero;"/><circle cx="2633.33" cy="848.023" r="259.268" style="fill:#151515;"/><path d="M8041.67,6900l-0,1883.33m-1183.33,0l0,-1883.33" style="fill:none;fill-rule:nonzero;stroke:#b1b2b5;stroke-width:12.5px;"/><path id="fills-51d91a5c-5418-8075-8004-33f6da57746a" d="M7368.75,7989.17l-47.083,-47.083l132.5,-132.5l132.5,132.5l-47.084,47.083l-52.083,-52.083l0,362.5l-66.667,0l0,-362.5l-52.083,52.083Z" style="fill:#b1b2b5;fill-rule:nonzero;"/><path id="fills-51d91a5c-5418-8075-8004-33f6da57746b" d="M7355.42,598.855l-47.084,-47.083l132.5,-132.5l132.5,132.5l-47.083,47.083l-52.083,-52.083l-0,362.5l-66.667,-0l-0,-362.5l-52.083,52.083Z" style="fill:#b1b2b5;fill-rule:nonzero;"/><path d="M2716.33,3987.1l-927.737,576.933l298.308,834.005l-369.937,180.433l-385.93,-791.271l-370.112,-758.842l-400.163,-820.458l369.942,-180.429l487.779,777.721l1044.78,-336.954l253.07,518.862Z" style="fill:none;fill-rule:nonzero;stroke:#b1b2b5;stroke-width:12.5px;"/><path d="M1363.16,4986.12l197.267,404.458l97.37,-47.49l-197.267,-404.458l-97.37,47.49Z" style="fill:none;stroke:#b1b2b5;stroke-width:12.5px;"/><path d="M588.791,3388.93l197.267,404.457l97.369,-47.49l-197.267,-404.457l-97.369,47.49Z" style="fill:none;stroke:#b1b2b5;stroke-width:12.5px;"/><path d="M11576.6,4237.1l927.734,576.933l-298.309,834.005l369.938,180.433l385.929,-791.271l370.112,-758.842l400.163,-820.458l-369.938,-180.429l-487.783,777.721l-1044.78,-336.955l-253.067,518.863Z" style="fill:none;fill-rule:nonzero;stroke:#b1b2b5;stroke-width:12.5px;"/><path d="M12929.8,5236.12l-197.267,404.457l-97.369,-47.49l197.267,-404.457l97.369,47.49Z" style="fill:none;stroke:#b1b2b5;stroke-width:12.5px;"/><path d="M13704.2,3638.93l-197.267,404.458l-97.37,-47.49l197.268,-404.458l97.369,47.49Z" style="fill:none;stroke:#b1b2b5;stroke-width:12.5px;"/><circle cx="1323.86" cy="2937.39" r="259.268" style="fill:#151515;"/><circle cx="3834.06" cy="2960.52" r="259.268" style="fill:#151515;"/><circle cx="4044.69" cy="3845.73" r="259.268" style="fill:#151515;"/><circle cx="2848.86" cy="5998.02" r="259.268" style="fill:#151515;"/><circle cx="12163.2" cy="6093.86" r="259.268" style="fill:#151515;"/><circle cx="9646.56" cy="6091.56" r="259.268" style="fill:#151515;"/><circle cx="10904.9" cy="3910.52" r="259.268" style="fill:#151515;"/><circle cx="11073.9" cy="3019.79" r="259.268" style="fill:#151515;"/><circle cx="13590.5" cy="3023.02" r="259.268" style="fill:#151515;"/><path id="fills-51d91a5c-5418-8075-8004-33f6da5774a5" d="M10884,3206.46c-50.555,-50.555 -75.833,-112.777 -75.833,-186.666c0,-73.889 25.278,-136.111 75.833,-186.667c50.556,-50.556 112.778,-75.833 186.667,-75.833c73.889,-0 136.111,25.277 186.667,75.833c50.555,50.556 75.833,112.778 75.833,186.667c0,73.889 -25.278,136.111 -75.833,186.666c-50.556,50.556 -112.778,75.834 -186.667,75.834c-73.889,-0 -136.111,-25.278 -186.667,-75.834Zm58.334,-159.687l-0,61.25l127.604,-0l-0,36.458l70,0l-0,-36.458l28.437,-0l0,-61.25l-28.437,-0l-0,-151.667l-127.604,0l-70,151.667Zm127.604,-0l-59.063,-0l59.063,-126.875l-0,126.875Z" style="fill:#efefef;fill-rule:nonzero;"/><path id="fills-51d91a5c-5418-8075-8004-33f6da5774a8" d="M1133.96,3127.29c-50.555,-50.556 -75.833,-112.778 -75.833,-186.667c0,-73.889 25.278,-136.111 75.833,-186.667c50.556,-50.555 112.778,-75.833 186.667,-75.833c73.889,0 136.111,25.278 186.667,75.833c50.555,50.556 75.833,112.778 75.833,186.667c0,73.889 -25.278,136.111 -75.833,186.667c-50.556,50.555 -112.778,75.833 -186.667,75.833c-73.889,0 -136.111,-25.278 -186.667,-75.833Zm159.688,-145.104l-73.646,8.02c3.403,25.278 13.854,44.358 31.354,57.24c17.5,12.882 40.59,19.323 69.271,19.323c29.167,-0 53.472,-8.507 72.917,-25.521c19.444,-17.014 29.166,-38.646 29.166,-64.896c0,-21.389 -6.441,-38.767 -19.323,-52.135c-12.882,-13.368 -29.774,-20.052 -50.677,-20.052c-26.736,-0 -46.423,10.937 -59.062,32.812l8.021,-58.333l101.354,-0l-0,-62.708l-156.042,-0l-18.958,144.375l66.354,7.291c4.861,-12.153 13.854,-18.229 26.979,-18.229c8.264,0 14.827,2.431 19.688,7.292c4.861,4.861 7.291,11.423 7.291,19.687c0,8.75 -2.552,15.556 -7.656,20.417c-5.104,4.861 -11.788,7.292 -20.052,7.292c-7.292,-0 -13.368,-2.066 -18.229,-6.198c-4.861,-4.132 -7.778,-9.358 -8.75,-15.677Z" style="fill:#efefef;fill-rule:nonzero;"/><path id="fills-51d91a5c-5418-8075-8004-33f6da5774ab" d="M13400.6,3198.12c-50.556,-50.556 -75.833,-112.778 -75.833,-186.667c-0,-73.889 25.277,-136.111 75.833,-186.666c50.556,-50.556 112.778,-75.834 186.667,-75.834c73.889,0 136.111,25.278 186.666,75.834c50.556,50.555 75.834,112.777 75.834,186.666c-0,73.889 -25.278,136.111 -75.834,186.667c-50.555,50.556 -112.777,75.833 -186.666,75.833c-73.889,0 -136.111,-25.277 -186.667,-75.833Zm159.688,-145.104l-73.646,8.021c3.402,25.277 13.854,44.357 31.354,57.239c17.5,12.882 40.59,19.323 69.271,19.323c29.166,0 53.472,-8.507 72.916,-25.521c19.445,-17.014 29.167,-38.645 29.167,-64.895c0,-21.389 -6.441,-38.768 -19.323,-52.136c-12.882,-13.368 -29.774,-20.052 -50.677,-20.052c-26.736,0 -46.424,10.938 -59.062,32.813l8.02,-58.334l101.355,0l-0,-62.708l-156.042,-0l-18.958,144.375l66.354,7.292c4.861,-12.153 13.854,-18.23 26.979,-18.23c8.264,0 14.826,2.431 19.687,7.292c4.861,4.861 7.292,11.424 7.292,19.688c0,8.75 -2.552,15.555 -7.656,20.416c-5.104,4.861 -11.788,7.292 -20.052,7.292c-7.292,-0 -13.368,-2.066 -18.229,-6.198c-4.862,-4.132 -7.778,-9.358 -8.75,-15.677Z" style="fill:#efefef;fill-rule:nonzero;"/><path id="fills-51d91a5c-5418-8075-8004-33f6da577491" d="M5038.12,6223.12c-50.556,-50.556 -75.833,-112.778 -75.833,-186.667c-0,-73.889 25.277,-136.111 75.833,-186.666c50.556,-50.556 112.778,-75.834 186.667,-75.834c73.889,0 136.111,25.278 186.666,75.834c50.556,50.555 75.834,112.777 75.834,186.666c-0,73.889 -25.278,136.111 -75.834,186.667c-50.555,50.556 -112.777,75.833 -186.666,75.833c-73.889,0 -136.111,-25.277 -186.667,-75.833Zm96.979,-124.688l0,62.709l191.771,-0l0,-62.708l-53.958,-0.001l-0,-188.854l-137.813,35.73l0,63.437l65.625,-16.771l0,106.459l-65.625,-0Z" style="fill:#efefef;fill-rule:nonzero;"/><path id="fills-51d91a5c-5418-8075-8004-33f6da577493" d="M9463.12,6281.46c-50.556,-50.555 -75.833,-112.777 -75.833,-186.666c-0,-73.889 25.277,-136.111 75.833,-186.667c50.556,-50.556 112.778,-75.833 186.667,-75.833c73.889,-0 136.111,25.277 186.666,75.833c50.556,50.556 75.834,112.778 75.834,186.667c-0,73.889 -25.278,136.111 -75.834,186.666c-50.555,50.556 -112.777,75.834 -186.666,75.834c-73.889,-0 -136.111,-25.278 -186.667,-75.834Zm96.979,-124.687l0,62.708l191.771,0l0,-62.708l-53.958,-0l-0,-188.854l-137.813,35.729l0,63.437l65.625,-16.771l0,106.459l-65.625,-0Z" style="fill:#efefef;fill-rule:nonzero;"/><path id="fills-51d91a5c-5418-8075-8004-33f6da577496" d="M2658.96,6181.46c-50.555,-50.555 -75.833,-112.777 -75.833,-186.666c0,-73.889 25.278,-136.111 75.833,-186.667c50.556,-50.556 112.778,-75.833 186.667,-75.833c73.889,-0 136.111,25.277 186.667,75.833c50.555,50.556 75.833,112.778 75.833,186.667c0,73.889 -25.278,136.111 -75.833,186.666c-50.556,50.556 -112.778,75.834 -186.667,75.834c-73.889,-0 -136.111,-25.278 -186.667,-75.834Zm87.5,-120.312l0,58.333l200.521,0l0,-62.708l-96.979,-0l45.208,-29.896c33.542,-19.444 50.313,-44.479 50.313,-75.104c-0,-25.278 -9.115,-45.452 -27.344,-60.521c-18.229,-15.069 -42.413,-22.604 -72.552,-22.604c-29.653,-0 -54.08,8.021 -73.281,24.062c-19.202,16.042 -28.802,38.889 -28.802,68.542l74.375,-0c-0.486,-8.264 1.823,-15.191 6.927,-20.781c5.104,-5.591 12.274,-8.386 21.51,-8.386c7.778,0 13.976,1.945 18.594,5.834c4.618,3.889 6.927,8.993 6.927,15.312c-0,8.75 -5.104,16.771 -15.313,24.063l-110.104,83.854Z" style="fill:#efefef;fill-rule:nonzero;"/><path id="fills-51d91a5c-5418-8075-8004-33f6da577499" d="M11979.8,6277.29c-50.556,-50.556 -75.834,-112.778 -75.834,-186.667c0,-73.889 25.278,-136.111 75.834,-186.667c50.555,-50.555 112.777,-75.833 186.666,-75.833c73.889,0 136.111,25.278 186.667,75.833c50.556,50.556 75.833,112.778 75.833,186.667c0,73.889 -25.277,136.111 -75.833,186.667c-50.556,50.555 -112.778,75.833 -186.667,75.833c-73.889,0 -136.111,-25.278 -186.666,-75.833Zm87.5,-120.313l-0,58.334l200.521,-0l-0,-62.709l-96.98,0l45.209,-29.896c33.541,-19.444 50.312,-44.479 50.312,-75.104c0,-25.278 -9.114,-45.451 -27.344,-60.521c-18.229,-15.069 -42.413,-22.604 -72.552,-22.604c-29.652,0 -54.08,8.021 -73.281,24.063c-19.201,16.041 -28.802,38.889 -28.802,68.541l74.375,0c-0.486,-8.264 1.823,-15.191 6.927,-20.781c5.104,-5.59 12.274,-8.385 21.511,-8.385c7.777,-0 13.975,1.944 18.593,5.833c4.618,3.889 6.927,8.993 6.927,15.313c0,8.75 -5.104,16.77 -15.312,24.062l-110.104,83.854Z" style="fill:#efefef;fill-rule:nonzero;"/><path id="fills-51d91a5c-5418-8075-8004-33f6da57749c" d="M3854.79,4035.62c-50.556,-50.556 -75.834,-112.778 -75.834,-186.667c0,-73.889 25.278,-136.111 75.834,-186.666c50.555,-50.556 112.777,-75.834 186.666,-75.834c73.889,0 136.111,25.278 186.667,75.834c50.556,50.555 75.833,112.777 75.833,186.666c0,73.889 -25.277,136.111 -75.833,186.667c-50.556,50.556 -112.778,75.833 -186.667,75.833c-73.889,0 -136.111,-25.277 -186.666,-75.833Zm160.416,-150.937l-73.645,8.02c1.944,27.709 11.788,48.368 29.531,61.98c17.743,13.611 41.198,20.416 70.364,20.416c29.653,0 53.716,-7.048 72.188,-21.146c18.472,-14.097 27.708,-33.784 27.708,-59.062c0,-35 -18.472,-59.306 -55.416,-72.917l46.666,-35.729l0,-61.979l-177.187,-0l-0,62.708l87.5,0l-40.834,29.896l0,53.229l29.896,0c23.82,0 35.729,7.049 35.729,21.146c0,6.319 -2.309,11.424 -6.927,15.313c-4.618,3.888 -10.816,5.833 -18.593,5.833c-17.987,-0 -26.98,-9.236 -26.98,-27.709Z" style="fill:#efefef;fill-rule:nonzero;"/><path id="fills-51d91a5c-5418-8075-8004-33f6da57749f" d="M10721.5,4093.96c-50.555,-50.555 -75.833,-112.777 -75.833,-186.666c0,-73.889 25.278,-136.111 75.833,-186.667c50.556,-50.556 112.778,-75.833 186.667,-75.833c73.889,-0 136.111,25.277 186.667,75.833c50.555,50.556 75.833,112.778 75.833,186.667c0,73.889 -25.278,136.111 -75.833,186.666c-50.556,50.556 -112.778,75.834 -186.667,75.834c-73.889,-0 -136.111,-25.278 -186.667,-75.834Zm160.417,-150.937l-73.646,8.021c1.945,27.708 11.788,48.368 29.531,61.979c17.743,13.611 41.198,20.416 70.365,20.416c29.653,0 53.715,-7.048 72.188,-21.145c18.472,-14.098 27.708,-33.785 27.708,-59.063c-0,-35 -18.472,-59.305 -55.417,-72.917l46.667,-35.729l-0,-61.979l-177.188,0l0,62.708l87.5,0l-40.833,29.896l0,53.229l29.896,0c23.819,0 35.729,7.049 35.729,21.146c0,6.32 -2.309,11.424 -6.927,15.313c-4.618,3.889 -10.816,5.833 -18.594,5.833c-17.986,0 -26.979,-9.236 -26.979,-27.708Z" style="fill:#efefef;fill-rule:nonzero;"/><path id="fills-51d91a5c-5418-8075-8004-33f6da5774a2" d="M3650.62,3143.96c-50.556,-50.555 -75.833,-112.777 -75.833,-186.666c-0,-73.889 25.277,-136.111 75.833,-186.667c50.556,-50.556 112.778,-75.833 186.667,-75.833c73.889,-0 136.111,25.277 186.666,75.833c50.556,50.556 75.834,112.778 75.834,186.667c-0,73.889 -25.278,136.111 -75.834,186.666c-50.555,50.556 -112.777,75.834 -186.666,75.834c-73.889,-0 -136.111,-25.278 -186.667,-75.834Zm58.333,-159.687l0,61.25l127.604,-0l0.001,36.458l69.999,0l0.001,-36.458l28.437,-0l0,-61.25l-28.438,-0l0.001,-151.667l-127.605,0l-70,151.667Zm127.604,-0l-59.062,-0l59.063,-126.875l-0.001,126.875Z" style="fill:#efefef;fill-rule:nonzero;stroke:#000;stroke-width:4.17px;stroke-linejoin:round;stroke-miterlimit:2;"/><path id="fills-51d91a5c-5418-8075-8004-33f6da5774ae" d="M2433.96,1031.46c-50.555,-50.555 -75.833,-112.777 -75.833,-186.666c0,-73.889 25.278,-136.111 75.833,-186.667c50.556,-50.556 112.778,-75.833 186.667,-75.833c73.889,-0 136.111,25.277 186.667,75.833c50.555,50.556 75.833,112.778 75.833,186.667c0,73.889 -25.278,136.111 -75.833,186.666c-50.556,50.556 -112.778,75.834 -186.667,75.834c-73.889,-0 -136.111,-25.278 -186.667,-75.834Zm84.584,-151.666c-0,26.25 9.722,48.003 29.166,65.26c19.445,17.257 43.75,25.885 72.917,25.885c29.167,0 53.594,-8.75 73.281,-26.25c19.688,-17.5 29.532,-39.131 29.532,-64.895c-0.001,-16.042 -3.768,-29.896 -11.303,-41.563c-7.534,-11.667 -16.77,-19.687 -27.708,-24.062c-10.937,-4.375 -22.604,-5.591 -35,-3.646c-12.396,1.944 -22.969,7.048 -31.719,15.312l64.896,-105.729l-82.396,0l-61.25,102.083c-13.611,21.875 -20.416,41.077 -20.416,57.605Zm73.646,0.729c-0.001,-8.264 2.673,-14.948 8.02,-20.052c5.348,-5.104 12.153,-7.657 20.417,-7.657c8.264,0 15.069,2.553 20.417,7.657c5.347,5.104 8.021,11.788 8.021,20.052c-0.001,7.778 -2.674,14.219 -8.021,19.323c-5.348,5.104 -12.153,7.656 -20.417,7.656c-8.264,-0 -15.069,-2.552 -20.417,-7.656c-5.347,-5.104 -8.021,-11.545 -8.021,-19.323Z" style="fill:#efefef;fill-rule:nonzero;"/><path id="fills-51d91a5c-5418-8075-8004-33f6da5774b1" d="M12117.3,1089.79c-50.556,-50.556 -75.834,-112.778 -75.834,-186.667c0,-73.889 25.278,-136.111 75.834,-186.667c50.555,-50.555 112.777,-75.833 186.666,-75.833c73.889,0 136.111,25.278 186.667,75.833c50.556,50.556 75.833,112.778 75.833,186.667c0,73.889 -25.277,136.111 -75.833,186.667c-50.556,50.555 -112.778,75.833 -186.667,75.833c-73.889,0 -136.111,-25.278 -186.666,-75.833Zm84.583,-151.667c0,26.25 9.722,48.003 29.167,65.26c19.444,17.257 43.75,25.886 72.916,25.886c29.167,-0 53.594,-8.75 73.282,-26.25c19.687,-17.5 29.531,-39.132 29.531,-64.896c-0,-16.042 -3.768,-29.896 -11.302,-41.562c-7.535,-11.667 -16.771,-19.688 -27.709,-24.063c-10.937,-4.375 -22.604,-5.59 -35,-3.646c-12.395,1.945 -22.968,7.049 -31.718,15.313l64.896,-105.729l-82.396,-0l-61.25,102.083c-13.611,21.875 -20.417,41.076 -20.417,57.604Zm73.646,0.729c-0,-8.264 2.673,-14.948 8.021,-20.052c5.347,-5.104 12.152,-7.656 20.416,-7.656c8.264,-0 15.07,2.552 20.417,7.656c5.347,5.104 8.021,11.788 8.021,20.052c-0,7.778 -2.674,14.219 -8.021,19.323c-5.347,5.104 -12.153,7.656 -20.417,7.656c-8.264,0 -15.069,-2.552 -20.416,-7.656c-5.348,-5.104 -8.021,-11.545 -8.021,-19.323Z" style="fill:#efefef;fill-rule:nonzero;"/></g></svg>